<svg width="572" height="491" viewBox="0 0 572 491" fill="none" xmlns="http://www.w3.org/2000/svg">
<g opacity="0.1">
<path fill-rule="evenodd" clip-rule="evenodd" d="M564.634 227.657L572 204.651L547.616 205.408C545.57 205.408 530.584 204.971 516.076 194.712C517.167 194.799 518.228 194.959 519.363 194.959C534.304 194.959 548.782 186.17 554.564 173.597L565.052 150.897C551.904 151.071 539.877 149.456 539.877 149.456C539.772 149.456 530.3 148.248 519.348 137.32C511.49 129.506 501.763 125.358 491.23 125.358C487.06 125.374 482.917 126.017 478.948 127.265C479.501 125.431 480.024 123.554 480.338 121.633C483.67 100.388 469.67 84.2061 469.67 84.2061L451.338 62.0583L439.968 88.0768C439.923 88.1641 437.054 94.2759 431.929 97.2444C430.376 89.5902 426.566 80.9901 418.438 72.7684C403.094 57.2853 384.432 54.9571 374.661 54.9571C370.134 54.9571 366.892 55.4518 366.115 55.5682L343.988 59.8173C345.258 55.0007 347.992 46.5753 352.952 39.0229L365.174 20.4694L334.44 23.8891L324.654 3.60397L305.694 13.1354L288.169 -3.75921L270.688 13.1208L251.698 3.60397L241.927 23.8745L211.208 20.4549L223.445 39.0375C228.42 46.5898 231.124 54.9716 232.394 59.7882L211.283 55.7138L210.551 55.6119C207.635 55.1645 204.687 54.9455 201.736 54.9571C191.964 54.9571 173.303 57.2853 158.004 72.7684C149.861 80.9756 146.036 89.5902 144.482 97.2444C139.388 94.2904 136.534 88.2951 136.534 88.2951L125.149 62.102L106.518 84.4243C104.247 87.291 93.0261 102.512 96.0591 121.677C96.3878 123.583 96.8958 125.446 97.4486 127.279C93.4913 126.027 89.3578 125.384 85.1971 125.373C74.6489 125.373 64.9224 129.52 57.0485 137.334C46.1417 148.219 36.714 149.456 36.7887 149.456C36.7887 149.456 26.8232 151.202 11.3893 150.911L21.8329 173.612C27.63 186.185 42.1226 194.974 57.0336 194.974C58.1691 194.974 59.2299 194.814 60.3355 194.727C45.8429 205 30.8722 205.422 29.0643 205.422L4.24756 204.651L11.7628 227.643C15.5578 239.517 28.1977 259.147 52.4019 261.257C49.7723 272.025 43.9305 284.103 31.1112 289.313L12.6144 296.734L22.6995 313.876C28.392 323.117 41.764 333.928 60.7837 333.928C64.8925 333.928 68.8667 333.506 72.7065 332.721C73.6777 336.941 74.9029 341.161 76.3521 345.381C81.9998 361.824 77.129 373.291 77.0693 373.422L67.9554 392.077L88.3197 397.316C88.5737 397.403 94.7443 399.062 102.439 399.062C105.935 399.062 109.282 398.698 112.419 397.971C114.78 397.432 117.051 396.705 119.247 395.846C121.892 400.459 125.089 404.679 128.824 408.448C141.883 421.53 160.409 428.151 183.837 428.151H183.911L200.645 427.933L166.072 441.961L192.323 454.344C201.87 458.884 213.165 464.239 224.7 468.343L221.413 477.088L230.452 481.119C231.259 481.483 248.68 489.065 277.59 490.68C277.59 490.68 284.568 491 288.408 491C292.262 491 299.165 490.665 299.165 490.665C327.881 489.006 345.153 481.483 345.96 481.119L355.029 477.088L351.727 468.328C363.56 464.108 375.289 458.52 384.447 454.17L410.205 441.946L375.737 427.933L392.545 428.151C416.003 428.151 434.529 421.515 447.573 408.433C451.293 404.679 454.475 400.474 457.135 395.846C462.468 397.994 468.187 399.083 473.958 399.048C481.533 399.048 487.763 397.418 487.928 397.36L508.397 392.077L499.477 373.757C499.268 373.291 494.397 361.824 500.045 345.352C501.494 341.161 502.704 336.926 503.69 332.721C507.53 333.506 511.549 333.914 515.688 333.928C539.922 333.928 551.546 317.296 553.787 313.687L563.782 296.72L545.286 289.313C532.437 284.118 526.61 272.04 524.01 261.286C547.9 259.249 560.705 239.604 564.649 227.672L564.634 227.657Z" fill="#FFFFFE"/>
<path fill-rule="evenodd" clip-rule="evenodd" d="M288.168 66.7149C268.596 66.7294 253.909 72.9867 250.712 80.3644L288.168 94.7706L325.64 80.3644C322.473 72.9867 307.786 66.7294 288.168 66.7149ZM288.572 448.538H287.825C275.962 448.611 259.601 446.239 251.743 443.983L242.27 468.998C248.515 471.166 269.672 475.328 288.213 475.328C306.725 475.328 327.896 471.166 334.126 468.998L324.669 443.998C316.765 446.239 300.435 448.611 288.572 448.538ZM360.243 423.655C353.191 427.554 337.458 433.404 328.3 436.111L335.979 456.774C350.143 452.991 361.842 448.582 371.494 443.852L355.537 438.687L360.243 423.655V423.655ZM216.139 423.655L220.86 438.687L204.888 443.852C214.525 448.582 226.268 452.991 240.388 456.76L248.082 436.096C238.938 433.39 223.176 427.554 216.139 423.655V423.655ZM288.168 42.8064C302.945 42.8064 317.408 46.2551 328.554 52.2941C329.569 48.9763 330.989 44.9309 332.916 40.6964L328.703 41.1911L324.295 41.6277L322.428 37.7133L316.78 26.1155L306.531 31.325L302.527 33.3041L299.329 30.2482L288.168 19.4799L277.037 30.2482L273.855 33.3041L269.866 31.325L259.557 26.1155L253.984 37.7133L252.086 41.6422L247.664 41.1911L243.48 40.6964C245.408 44.9309 246.812 48.9763 247.843 52.2941C259.019 46.2551 273.482 42.8064 288.183 42.8064H288.168ZM513.551 176.93C515.479 177.57 517.421 177.861 519.348 177.861C527.715 177.861 535.783 172.579 538.547 166.554C538.547 166.554 523.233 165.652 506.768 149.34C501.539 144.072 495.981 142.486 491.23 142.486C483.834 142.486 478.276 146.284 478.276 146.284C498.177 156.616 502.226 173.205 513.551 176.93V176.93ZM57.0334 177.847C58.9757 177.847 60.918 177.57 62.7856 176.915C74.1407 173.19 78.2345 156.616 98.0909 146.298C98.0909 146.298 92.5329 142.486 85.182 142.486C80.4009 142.486 74.8579 144.057 69.5987 149.354C53.1488 165.652 37.8494 166.569 37.8494 166.569C40.5985 172.579 48.6815 177.861 57.0334 177.861V177.847Z" fill="#FFFFFE"/>
<path fill-rule="evenodd" clip-rule="evenodd" d="M507.56 295.934C492.171 288.513 482.459 268.868 480.099 261.796C477.559 300.765 458.061 327.802 435.276 353.821C423.443 367.325 419.319 380.45 419.319 380.45C419.319 380.45 421.605 365.579 431.825 353.471C453.086 328.559 473.286 297.535 474.795 261.65C475.826 236.621 469.237 216.321 458.928 199.587C464.695 217.005 463.873 238.353 444.315 258.274C444.315 258.274 483.266 212.756 428.822 166.074C407.038 148.321 383.192 137.349 370.926 129.578C415.256 143.694 436.92 128.152 436.92 128.152C422.756 140.128 404.423 139.925 393.053 138.193C396.146 139.663 399.358 141.205 402.795 142.995C440.192 162.815 473.779 195.425 479.516 240.565V240.215C488.197 284.554 507.56 295.934 507.56 295.934ZM518.945 244.275C519.289 244.304 519.587 244.304 519.931 244.304C540.774 244.304 547.826 222.52 547.826 222.52H547.422C543.597 222.52 512.61 221.647 490.707 194.479C476.304 176.624 464.486 160.923 441.148 154.753L438.847 154.345L438.354 152.061C437.712 148.583 440.147 145.323 445.705 141.816C477.903 121.24 456.014 94.9889 456.014 94.9889C456.014 94.9889 446.84 115.973 426.267 115.973L424.728 115.943C422.397 115.827 420.141 115.754 417.87 115.274L414.075 114.546C414.075 114.546 419.947 98.9761 405.783 84.7008C395.13 73.9034 382.147 72.0699 374.661 72.0699C370.881 72.0699 368.491 72.5501 368.491 72.5501C375.602 81.6158 380.742 96.6769 372.525 105.961C365.428 113.935 348.096 114.328 348.096 126.231C348.096 131.266 352.922 137.145 361.588 142.428C387.645 158.434 413.507 179.68 424.265 208.158C437.712 243.664 422.562 267.238 400.957 280.756C400.957 280.756 407.74 286.839 417.556 287.625C419.558 287.814 421.516 287.901 423.338 287.901C444.091 287.901 454.819 278.399 454.819 278.399C454.819 278.399 453.041 291.525 442.269 303.705C432.288 314.938 419.215 321.574 399.269 321.851C399.269 321.851 398.641 330.873 407.471 338.701C413.134 343.635 426.177 345.25 426.177 345.25C426.177 345.25 401.734 350.066 399.03 385.296C397.566 404.388 392.575 411.009 392.575 411.009H393.009C449.724 411.009 448.275 363.541 448.275 363.541C448.275 363.541 452.219 377.598 468.042 381.265C469.954 381.76 472.001 381.949 473.943 381.949C479.023 381.949 483.461 380.785 483.461 380.785C483.461 380.785 475.168 363.73 483.386 339.88C490.214 320.075 489.108 305.407 489.108 305.407C489.108 305.407 496.743 316.685 515.703 316.787H515.897C520.376 316.854 524.799 315.82 528.759 313.78C532.718 311.74 536.085 308.76 538.547 305.116C500.732 289.793 504.467 240.361 504.467 240.361C504.467 240.361 509.368 243.941 518.945 244.29V244.275ZM141.106 353.821C118.321 327.802 98.8232 300.765 96.2534 261.796C93.9077 268.882 84.211 288.527 68.8369 295.934C68.8369 295.934 88.1704 284.554 96.851 240.215V240.565C102.603 195.425 136.19 162.815 173.587 143.01C177.024 141.191 180.251 139.663 183.314 138.208C171.959 139.925 153.611 140.128 139.462 128.167C139.462 128.167 161.127 143.694 205.441 129.578C193.19 137.349 169.344 148.321 147.575 166.074C93.1158 212.756 132.067 258.274 132.067 258.274C112.494 238.338 111.687 217.02 117.454 199.587C107.145 216.321 100.541 236.621 101.617 261.665C103.096 297.535 123.281 328.559 144.497 353.486C154.777 365.564 157.093 380.436 157.093 380.436C157.093 380.436 152.909 367.325 141.106 353.821ZM150.22 345.235C150.22 345.235 163.263 343.635 168.926 338.687C177.741 330.873 177.128 321.851 177.128 321.851C157.167 321.574 144.109 314.938 134.084 303.705C123.356 291.525 121.563 278.399 121.563 278.399C121.563 278.399 132.291 287.901 153.014 287.901C154.881 287.901 156.824 287.814 158.811 287.625C164.942 287.02 170.744 284.626 175.455 280.756C153.82 267.238 138.67 243.664 152.102 208.143C162.86 179.695 188.707 158.434 214.794 142.413C223.445 137.145 228.256 131.266 228.256 126.231C228.256 114.328 210.954 113.935 203.857 105.961C195.64 96.6769 200.795 81.6158 207.891 72.5501C207.891 72.5501 205.516 72.0699 201.721 72.0699C194.25 72.0699 181.267 73.9034 170.599 84.7008C156.405 98.9906 162.307 114.561 162.307 114.561L158.512 115.289C156.256 115.74 153.97 115.827 151.639 115.958L150.145 115.973C129.527 115.973 120.368 95.0034 120.368 95.0034C120.368 95.0034 98.5094 121.24 130.707 141.816C136.235 145.323 138.67 148.598 138.028 152.061L137.535 154.331L135.189 154.738C111.896 160.923 100.078 176.624 85.6454 194.479C63.7421 221.647 32.7846 222.52 28.9448 222.52H28.5265C28.5265 222.52 35.5935 244.304 56.4509 244.304C56.7796 244.304 57.0785 244.304 57.437 244.275C67.0141 243.941 71.9297 240.361 71.9297 240.361C71.9297 240.361 75.635 289.793 37.8346 305.116C37.8346 305.116 44.7224 316.801 60.4999 316.801H60.6792C79.6541 316.685 87.2739 305.407 87.2739 305.407C87.2739 305.407 86.1683 320.09 92.9664 339.88C101.184 363.745 92.9365 380.771 92.9365 380.771C92.9365 380.771 97.3441 381.935 102.439 381.935C104.411 381.935 106.428 381.76 108.326 381.265C124.133 377.598 128.092 363.541 128.092 363.541C128.092 363.541 126.643 411.009 183.373 411.009H183.792C183.792 411.009 178.817 404.388 177.367 385.296C174.678 350.081 150.205 345.235 150.205 345.235H150.22ZM275.379 170.323H302.123V179.273C298.986 175.518 292.86 176.289 292.86 176.289V189.197C292.86 189.197 293.069 195.541 295.37 198.292H282.133C284.448 195.541 284.643 189.197 284.643 189.197V176.289C284.643 176.289 278.547 175.518 275.379 179.273V170.323V170.323ZM246.245 171.662C247.171 172.637 248.082 173.699 248.964 174.762C249.173 175.009 249.367 175.227 249.576 175.518C250.398 176.566 251.22 177.701 252.012 178.836L252.55 179.607C253.491 181.004 254.387 182.445 255.284 183.944C263.471 197.724 276.56 205.96 288.169 205.975C299.808 205.96 312.881 197.724 321.083 183.944C321.995 182.416 322.906 180.931 323.862 179.535C324.953 177.907 326.12 176.329 327.358 174.805C328.27 173.699 329.211 172.622 330.167 171.633C330.332 171.487 330.466 171.327 330.631 171.196C334.814 167.035 339.759 163.862 346.274 162.102L343.375 160.457H343.226L331.691 153.938L319.873 147.317L288.258 164.11L288.169 164.037L288.124 164.11L256.509 147.317L244.676 153.938L233.141 160.457H233.007L230.094 162.102C236.593 163.848 241.553 166.991 245.737 171.167C245.916 171.313 246.035 171.517 246.245 171.662V171.662Z" fill="#FFFFFE"/>
<path fill-rule="evenodd" clip-rule="evenodd" d="M278.114 113.426V121.866L276.455 121.109C276.38 121.051 273.93 120.527 269.702 117.239C262.695 111.942 262.56 107.052 262.56 107.052L278.099 113.426H278.114ZM285.435 152.963V100.548L251.25 89.2264L260.274 140.012L285.45 152.963H285.435ZM298.284 113.426L313.822 107.052C313.822 107.052 313.703 111.942 306.666 117.239C302.437 120.513 300.002 121.051 299.927 121.109L298.284 121.851V113.426ZM316.108 140.027L325.088 89.241L290.918 100.548V152.963L316.108 140.012V140.027ZM237.086 274.47C240.418 275.634 244.452 275.882 246.529 275.882C246.603 275.634 246.723 275.329 246.827 274.95C246.992 274.368 247.171 273.757 247.306 273.117C247.888 270.206 248.082 266.932 248.142 264.808C246.231 263.701 244.674 262.099 243.645 260.18C242.375 257.575 240.567 256.353 237.923 256.353C234.486 256.353 230.796 258.39 229.197 259.322C227.942 266.568 233.425 273.146 237.086 274.456V274.47ZM312.717 246.662C306.382 253.399 293.936 265.142 293.338 265.724L292.591 266.452L253.297 265.855C253.264 269.022 252.843 272.173 252.042 275.241L251.728 276.449L298.448 284.656C303.304 281.338 316.676 271.807 321.875 268.067C318.095 262.683 317.737 256.295 318.588 251.813C316.345 250.433 314.36 248.691 312.717 246.662V246.662Z" fill="#FFFFFE"/>
<path fill-rule="evenodd" clip-rule="evenodd" d="M318.05 200.562C308.996 209.322 300.315 212.567 292.561 213.324C291.142 213.474 289.716 213.551 288.288 213.557H288.094C285.241 213.556 282.397 213.264 279.607 212.684C279.099 214.648 278.457 218.766 280.295 222.666C281.938 226.202 285.27 228.836 290.141 230.597L291.784 231.222L291.799 232.94C291.799 233.449 292.188 244.596 304.648 247.695C306.68 245.658 308.533 243.81 309.878 242.253C307.338 236.417 308.682 230.451 312.373 227.526C312.223 228.152 310.58 242.777 322.607 248.219L324.594 249.136L323.997 251.187C323.802 251.813 319.798 265.972 334.366 271.24L336.935 272.2L335.785 274.63C335.531 275.169 329.824 288.018 343.27 295.323H372.42V272.724C362.051 271.487 357.673 263.353 356.538 257.59C351.712 256.79 347.992 254.767 345.437 251.464C339.311 243.606 344.57 236.403 344.645 236.01C344.63 236.068 344.645 243.722 349.486 248.466C351.891 250.736 354.73 252.512 359.048 252.905L361.155 253.094L361.334 255.204C361.379 255.655 362.529 266.03 372.42 267.66L372.405 221.531C372.405 214.372 374.542 207.183 377.111 200.547H318.05V200.562ZM239.566 221.706L238.789 251.071L242.225 251.595L250.592 223.408L246.334 214.735L239.581 221.706H239.566ZM257.704 330.465C257.474 330.458 257.248 330.406 257.04 330.311C256.832 330.215 256.646 330.08 256.494 329.912C256.341 329.745 256.225 329.549 256.154 329.336C256.082 329.123 256.055 328.899 256.076 328.675C256.089 328.455 256.147 328.239 256.247 328.041C256.347 327.842 256.487 327.665 256.658 327.52C256.829 327.375 257.028 327.265 257.244 327.196C257.46 327.127 257.687 327.101 257.913 327.118C258.899 327.162 259.587 327.992 259.557 328.894C259.522 329.34 259.309 329.756 258.962 330.05C258.615 330.344 258.163 330.493 257.704 330.465ZM331.841 356.469C332.095 356.469 332.393 356.498 332.662 356.571C337.892 358.026 339.192 376.332 348.32 377.962C349.217 378.151 350.054 378.195 350.771 378.195C353.415 378.195 354.984 377.104 356.687 375.139C356.687 375.139 352.086 368.111 348.649 363.352C344.092 357.124 340.551 349.601 332.05 349.601C331.841 349.601 331.602 349.601 331.377 349.63C329.758 349.694 328.192 350.209 326.865 351.114C324.028 349.286 320.706 348.3 317.303 348.277C311.999 348.277 307.846 350.663 305.769 350.663H305.694L286.719 348.83C283.746 348.539 281.4 345.628 280.549 344.493L280.22 343.998C280.22 343.489 280.22 342.98 280.19 342.529C279.548 327.38 267.535 320.905 263.247 320.788C263.247 320.788 263.755 317.907 262.605 316.816L258.421 321.763L244.676 315.041L254.477 326.216L246.185 335.311C245.139 336.344 245.273 337.741 245.707 338.338L249.292 341.423L253.834 338.731C254.059 338.571 254.477 338.512 254.985 338.512C256.24 338.512 258.122 338.833 259.811 338.833C261.678 338.833 263.277 338.454 263.471 336.752C262.904 342.369 257.555 352.133 261.066 359.802L263.666 365.593L246.887 363.236L239.028 376.172C236.608 380.48 236.219 385.136 238.55 387.668L241.493 391.263C241.493 391.263 245.617 386.999 246.528 384.19L245.199 382.764C244.078 381.557 244.138 380.48 244.825 379.185L249.756 371.21L269.552 375.765L270.598 374.019C271.943 371.836 273.885 371.196 276.007 371.196C276.888 371.196 277.785 371.298 278.711 371.443C282.386 372.156 288.437 373.102 294.489 373.102C301.137 373.102 307.726 371.938 311.237 368.111C318.409 378.486 332.961 380.13 331.811 385.413L327.986 403.195C330.526 403.079 332.961 402.918 335.277 402.613L338.923 384.118C339.218 382.547 339.477 380.97 339.7 379.388C338.295 377.991 334.904 375.066 332.976 371.501C330.421 366.685 331.811 364.167 329.42 357.91C329.42 357.91 330.167 356.455 331.841 356.455V356.469Z" fill="#FFFFFE"/>
<path fill-rule="evenodd" clip-rule="evenodd" d="M230.646 373.276C230.646 373.276 237.22 370.657 237.818 368.765L236.922 366.641C236.309 365.244 236.384 363.73 237.594 362.916L244.676 358.128L256.524 360.354C256.524 360.354 254.373 357.735 254.582 354.243L243.286 351.914L232.619 358.244C230.757 359.589 229.412 361.501 228.797 363.677C228.182 365.853 228.334 368.167 229.227 370.25L230.646 373.291V373.276ZM314.42 403.428C316.526 403.34 318.887 403.311 321.442 403.311C321.442 403.311 327.538 385.922 327.882 385.369C323.354 383.312 318.936 381.034 314.644 378.544C316.452 381.193 320.844 384.205 319.978 386.533L314.42 403.428Z" fill="#FFFFFE"/>
<path fill-rule="evenodd" clip-rule="evenodd" d="M372.42 300.299H203.962V362.13C203.962 387.421 222.713 403.238 250.398 403.238C273.512 403.238 279.608 404.112 288.199 412.45C294.13 406.673 299.031 404.534 309.116 403.719L309.34 402.773L314.644 386.751C314.345 386.388 305.679 376.769 305.679 376.769C302.243 377.889 299.344 378.078 294.474 378.078C289.498 378.078 283.866 377.496 277.755 376.391C277.182 376.258 276.596 376.19 276.007 376.187C275.26 376.187 275.215 376.245 275.006 376.609L273.96 378.311L272.018 381.425L268.387 380.596L252.221 376.885L249.995 380.45L250.338 380.843L252.296 382.953L251.429 385.718C250.234 389.312 246.379 393.518 245.199 394.682L241.165 398.902L237.474 394.376L234.71 390.986C231.797 387.814 231.124 382.953 232.768 377.86C232.72 377.894 232.663 377.915 232.604 377.918L228.047 379.767L226 375.401L224.551 372.331C223.159 369.189 222.909 365.68 223.84 362.381C224.772 359.082 226.83 356.191 229.675 354.185L242.674 347.011L255.075 349.382C255.373 348.218 255.822 344.086 256.165 343.023C255.926 342.994 255.702 342.951 255.463 342.951L248.321 345.541L241.449 340.913C241.449 340.913 238.759 338.381 241.195 335.849L247.843 325.998L230.96 305.334L256.912 315.724L258.646 313.643L262.142 309.54L266.116 313.236C267.161 314.231 267.888 315.5 268.208 316.888C275.349 319.61 288.169 327.628 289.304 340.666L285.3 342.223V342.325C286.211 343.387 286.973 343.824 287.212 343.867L305.739 345.643C306.217 345.555 306.785 345.352 307.442 345.177C309.758 344.406 313.21 343.285 317.303 343.285C320.65 343.285 323.877 344.042 326.97 345.468C328.121 345.032 329.51 344.726 331.153 344.624L332.05 344.595C341.956 344.595 346.886 351.827 350.846 357.604C351.503 358.608 352.16 359.54 352.848 360.471C356.314 365.244 360.841 372.214 361.02 372.52L363.067 375.619L360.557 378.471C358.645 380.654 355.731 383.201 350.771 383.201C349.647 383.192 348.526 383.08 347.424 382.866C346.408 382.676 345.416 382.378 344.466 381.978C344.314 383.005 344.139 384.029 343.943 385.049L340.701 401.594C360.124 396.938 372.465 382.619 372.465 362.13L372.42 300.299V300.299ZM203.962 295.323H334.993C328.449 288.716 328.554 280.378 330.212 274.95C328.445 274.123 326.801 273.066 325.327 271.807C320.202 275.489 304.574 286.592 300.495 289.386L299.613 289.968L248.187 280.887H247.141C245.916 280.887 244.108 280.844 242.136 280.596C241.925 281.516 241.445 282.357 240.753 283.016C240.062 283.675 239.189 284.126 238.241 284.312C237.292 284.498 236.308 284.413 235.409 284.066C234.509 283.719 233.732 283.125 233.171 282.357C232.778 281.833 232.495 281.237 232.341 280.605C232.188 279.972 232.165 279.316 232.275 278.676L232.469 277.584C227.18 273.946 222.265 265.797 224.446 257.212L224.655 256.31L225.402 255.786C226.156 255.285 226.934 254.818 227.733 254.389L223.998 253.807C223.334 253.696 222.742 253.337 222.345 252.807C221.949 252.277 221.781 251.618 221.876 250.969C222.115 249.601 223.415 248.641 224.805 248.888L233.694 250.256L234.516 219.683L247.754 206.004L256.031 222.986L247.305 252.41L255.164 253.617C255.835 253.725 256.436 254.087 256.833 254.624C257.231 255.161 257.394 255.83 257.286 256.484C257.19 257.064 256.884 257.591 256.423 257.97C255.963 258.348 255.379 258.555 254.776 258.55L254.372 258.536L247.963 257.517C248.052 257.721 248.172 257.823 248.262 258.027C248.975 259.232 250.049 260.196 251.339 260.791L290.529 261.417C292.188 259.831 296.296 255.902 300.54 251.74C296.846 250.42 293.604 248.124 291.176 245.108C288.748 242.093 287.231 238.479 286.794 234.671C281.415 232.43 277.68 229.083 275.618 224.718C273.108 219.304 274.005 213.891 274.677 211.257C269.448 209.409 263.95 206.004 258.332 200.562H199.286C201.825 207.197 203.962 214.386 203.962 221.531V295.308V295.323Z" fill="#4E4E4E"/>
<path fill-rule="evenodd" clip-rule="evenodd" d="M257.913 327.118C257.686 327.1 257.457 327.127 257.241 327.197C257.024 327.267 256.824 327.379 256.653 327.525C256.482 327.672 256.342 327.85 256.243 328.051C256.144 328.251 256.087 328.468 256.076 328.69C256.057 328.912 256.085 329.135 256.158 329.346C256.231 329.557 256.347 329.751 256.499 329.917C256.652 330.083 256.837 330.217 257.044 330.312C257.251 330.406 257.476 330.458 257.704 330.465C258.161 330.493 258.61 330.346 258.957 330.055C259.303 329.764 259.519 329.352 259.557 328.908C259.581 328.459 259.422 328.018 259.114 327.683C258.806 327.348 258.375 327.145 257.913 327.118V327.118ZM335.994 456.774L328.3 436.111C337.458 433.39 353.191 427.54 360.258 423.655L355.552 438.687L371.494 443.852C361.842 448.567 350.158 452.976 335.994 456.76V456.774ZM288.213 475.328C269.672 475.328 248.516 471.166 242.27 468.998L251.743 443.998C259.602 446.239 275.947 448.611 287.825 448.538H288.572C300.435 448.611 316.765 446.224 324.669 443.998L334.127 468.998C327.881 471.181 306.725 475.328 288.213 475.328ZM204.903 443.852L220.86 438.687L216.139 423.655C223.176 427.54 238.953 433.404 248.082 436.111L240.388 456.774C226.269 452.991 214.54 448.567 204.903 443.852ZM372.211 439.269L362.499 435.631L365.189 425.852L368.132 415.185C368.132 415.185 350.95 424.295 326.701 431.12C319.828 433.04 314.629 433.928 314.629 433.928V441.189C314.629 441.189 301.66 443.372 288.572 443.372H287.825C274.707 443.372 261.768 441.189 261.768 441.189V433.914C261.768 433.914 256.554 433.04 249.681 431.12C225.462 424.28 208.28 415.185 208.28 415.185L211.178 425.852L213.927 435.631L204.186 439.269L193.384 443.198C205.755 449.033 222.907 457.516 238.595 461.707L234.904 471.573C234.904 471.573 254.806 480.421 287.959 480.508V480.523H288.408V480.508C321.606 480.421 341.507 471.573 341.507 471.573L337.772 461.707C353.475 457.516 370.657 449.047 382.968 443.198L372.211 439.269V439.269ZM247.679 41.1766L252.086 41.6422L253.984 37.7133L259.542 26.1155L269.851 31.3251L273.855 33.3186L288.169 19.4654L299.329 30.2337L302.527 33.3186L306.531 31.3251L316.78 26.1155L322.428 37.7133L324.296 41.6422L328.703 41.1766L332.916 40.6964C330.989 44.9309 329.57 48.9618 328.539 52.3087C317.408 46.2406 302.945 42.8064 288.184 42.8064C273.482 42.8064 259.019 46.2406 247.843 52.3087C246.638 48.3535 245.181 44.4752 243.48 40.6964L247.664 41.1766H247.679ZM288.169 48.8453C307.935 48.8453 323.728 55.2481 332.468 62.0438C332.468 62.0438 335.068 46.8081 343.913 33.3768L328.001 35.1231L319.679 17.8792L303.692 25.9264L288.169 10.9672L272.705 25.9264L256.688 17.8792L248.381 35.1376L232.469 33.3623C241.329 46.8081 243.914 62.0292 243.914 62.0292C252.699 55.2336 268.447 48.8453 288.169 48.8453V48.8453ZM538.547 305.116C538.547 305.116 531.675 316.801 515.897 316.801H515.703C496.758 316.685 489.108 305.407 489.108 305.407C489.108 305.407 490.214 320.075 483.401 339.88C475.183 363.745 483.461 380.771 483.461 380.771C483.461 380.771 479.038 381.949 473.943 381.949C472.001 381.949 469.969 381.76 468.042 381.265C452.219 377.613 448.275 363.556 448.275 363.556C448.275 363.556 449.739 411.009 393.009 411.009H392.56C392.56 411.009 397.566 404.388 399.045 385.296C401.734 350.081 426.177 345.235 426.177 345.235C426.177 345.235 413.134 343.635 407.471 338.701C398.641 330.887 399.254 321.851 399.254 321.851C419.215 321.574 432.303 314.953 442.269 303.705C448.69 296.508 453.023 287.772 454.819 278.399C454.819 278.399 444.091 287.901 423.338 287.901C421.516 287.901 419.573 287.814 417.571 287.625C407.74 286.854 400.957 280.756 400.957 280.756C422.562 267.238 437.712 243.65 424.28 208.143C413.522 179.695 387.645 158.434 361.603 142.428C352.937 137.145 348.096 131.266 348.096 126.217C348.096 114.328 365.428 113.95 372.54 105.961C380.757 96.6769 375.602 81.6159 368.491 72.5501C368.491 72.5501 370.881 72.0699 374.661 72.0699C382.161 72.0699 395.13 73.9034 405.798 84.7008C419.947 98.9906 414.075 114.561 414.075 114.561L417.87 115.289C420.141 115.74 422.397 115.842 424.743 115.958L426.267 115.973C446.84 115.973 456.029 94.9889 456.029 94.9889C456.029 94.9889 477.902 121.24 445.705 141.816C440.162 145.323 437.712 148.598 438.354 152.061L438.862 154.345L441.148 154.738C464.486 160.923 476.304 176.639 490.722 194.479C512.625 221.647 543.612 222.52 547.422 222.52H547.841C547.841 222.52 540.774 244.304 519.931 244.304C519.587 244.304 519.289 244.304 518.945 244.275C509.383 243.941 504.452 240.361 504.452 240.361C504.452 240.361 500.732 289.793 538.547 305.116V305.116ZM519.931 250.969C545.48 250.969 554.026 225.605 554.385 224.529L557.224 215.579L547.661 215.87H547.631C544.24 215.87 516.061 215.143 496.085 190.361L494.188 188.062C481.13 171.866 468.744 156.455 446.601 149.427C447.486 148.672 448.43 147.986 449.425 147.375C461.169 139.837 468.012 130.684 469.715 120.047C472.24 104.055 461.766 91.3073 461.318 90.7835L454.206 82.1979L449.754 92.3842C449.455 93.0099 441.985 109.308 426.267 109.308H425.101C424.026 109.264 422.995 109.221 421.979 109.133C422.532 101.857 421.172 90.6234 410.713 80.0588C398.148 67.3552 382.729 65.4489 374.661 65.4489C370.358 65.4489 367.49 65.9727 367.176 66.0018L356.433 68.0827L363.052 76.5955C368.252 83.1729 372.973 95.2945 367.385 101.625C365.592 103.662 361.917 105.277 358.406 106.921C351.174 110.166 341.283 114.707 341.283 126.217C341.283 133.667 347.215 141.482 357.972 148.103C389.766 167.617 409.399 187.989 417.87 210.472C430.988 245.046 413.881 264.779 397.252 275.169L389.811 279.84L396.34 285.69C397.222 286.446 405.185 293.3 416.974 294.29C419.215 294.435 421.351 294.551 423.353 294.551C430.899 294.551 437.338 293.387 442.567 291.845C441.004 294.502 439.183 297.006 437.129 299.324C427.641 310.064 415.958 314.953 399.149 315.215L392.904 315.302L392.426 321.414C392.366 322.651 391.903 333.987 402.884 343.62C404.573 345.104 406.605 346.341 408.741 347.331C401.271 353.879 393.711 365.287 392.247 384.816C391.006 401.114 387.017 407.153 386.972 407.226L380.07 417.499L392.545 417.659C413.149 417.659 428.926 412.13 439.848 401.128C445.505 395.35 449.727 388.386 452.189 380.771C458.256 385.809 465.97 388.575 473.943 388.57C479.77 388.57 484.641 387.363 485.179 387.246L493.142 385.18L489.631 377.933C489.362 377.351 482.728 362.799 489.87 342.034C492.948 333.055 494.517 325.023 495.279 318.751C500.299 321.312 507.007 323.408 515.688 323.437C535.41 323.437 544.09 309.074 544.479 308.478L548.364 301.871L541.162 298.99C517.675 289.473 512.476 263.92 511.43 250.096C513.566 250.489 515.987 250.853 518.721 250.925L519.931 250.969V250.969Z" fill="#1A1919"/>
<path fill-rule="evenodd" clip-rule="evenodd" d="M491.23 142.486C495.981 142.486 501.539 144.072 506.768 149.354C523.233 165.652 538.547 166.569 538.547 166.569C535.768 172.579 527.7 177.861 519.348 177.861C517.421 177.861 515.464 177.57 513.566 176.915C502.226 173.19 498.177 156.615 478.291 146.298C478.291 146.298 483.819 142.486 491.23 142.486V142.486ZM475.049 152.177C484.566 157.125 490.124 163.775 494.995 169.654C499.776 175.402 504.303 180.931 511.43 183.231C513.94 184.075 516.614 184.482 519.348 184.482C530.001 184.482 540.714 178.108 544.778 169.29L548.857 160.472L538.981 159.89C538.518 159.89 525.803 158.74 511.669 144.654C505.842 138.862 498.805 135.836 491.23 135.836C481.966 135.836 475.094 140.347 474.347 140.812L465.263 147.055L475.049 152.177V152.177ZM479.516 240.23V240.564C473.779 195.425 440.192 162.829 402.795 143.01C399.358 141.205 396.146 139.663 393.053 138.208C404.423 139.925 422.756 140.128 436.92 128.167C436.92 128.167 415.256 143.694 370.926 129.578C383.177 137.349 407.038 148.321 428.822 166.074C483.251 212.756 444.315 258.274 444.315 258.274C463.888 238.353 464.695 217.02 458.928 199.587C469.237 216.321 475.811 236.621 474.795 261.664C473.301 297.534 453.086 328.559 431.825 353.486C421.605 365.564 419.334 380.436 419.334 380.436C419.334 380.436 423.458 367.325 435.276 353.835C458.061 327.788 477.559 300.765 480.099 261.795C482.459 268.882 492.171 288.527 507.56 295.934C507.56 295.934 488.212 284.554 479.516 240.23V240.23ZM183.388 411.009C126.658 411.009 128.107 363.556 128.107 363.556C128.107 363.556 124.133 377.613 108.34 381.265C106.411 381.738 104.428 381.968 102.439 381.949C97.3589 381.949 92.9365 380.785 92.9365 380.785C92.9365 380.785 101.199 363.73 92.9663 339.88C86.1832 320.09 87.2888 305.407 87.2888 305.407C87.2888 305.407 79.654 316.685 60.6941 316.801H60.4999C44.7373 316.801 37.8495 305.116 37.8495 305.116C75.6499 289.793 71.9446 240.361 71.9446 240.361C71.9446 240.361 67.0141 243.94 57.4519 244.29H56.4509C35.5935 244.29 28.5264 222.52 28.5264 222.52H28.9597C32.8145 222.52 63.757 221.647 85.6453 194.479C100.063 176.624 111.896 160.923 135.189 154.753L137.535 154.345L138.028 152.061C138.685 148.597 136.235 145.323 130.707 141.816C98.5094 121.24 120.368 95.0034 120.368 95.0034C120.368 95.0034 129.512 115.972 150.145 115.972L151.639 115.958C153.97 115.841 156.256 115.74 158.512 115.274L162.307 114.561C162.307 114.561 156.42 98.9906 170.614 84.7008C181.282 73.9034 194.235 72.0699 201.721 72.0699C205.531 72.0699 207.876 72.5501 207.876 72.5501C200.794 81.6158 195.655 96.6768 203.842 105.961C210.954 113.95 228.271 114.328 228.271 126.217C228.271 131.266 223.445 137.145 214.794 142.428C188.722 158.434 162.86 179.68 152.102 208.158C138.685 243.664 153.835 267.238 175.455 280.771C175.455 280.771 168.657 286.854 158.826 287.625C156.899 287.806 154.964 287.898 153.029 287.901C132.291 287.901 121.563 278.414 121.563 278.414C121.563 278.414 123.356 291.525 134.084 303.719C144.094 314.953 157.167 321.574 177.113 321.85C177.113 321.85 177.756 330.873 168.926 338.701C163.263 343.649 150.22 345.25 150.22 345.25C150.22 345.25 174.678 350.081 177.367 385.296C178.831 404.388 183.792 411.009 183.792 411.009H183.388ZM189.41 407.225C189.395 407.153 185.435 401.114 184.165 384.816C182.671 365.287 175.111 353.879 167.626 347.331C169.792 346.341 171.809 345.104 173.483 343.62C184.464 333.987 184.001 322.665 183.926 321.414L183.508 315.302L177.218 315.215C160.454 314.953 148.755 310.064 139.268 299.324C137.223 296.999 135.402 294.496 133.83 291.845C139.059 293.402 145.454 294.551 153.029 294.551C155.046 294.551 157.167 294.435 159.393 294.289C167.019 293.548 174.229 290.552 180.057 285.704L186.586 279.84L179.145 275.183C162.471 264.779 145.424 245.061 158.527 210.471C166.998 187.989 186.586 167.631 218.44 148.103C229.197 141.482 235.084 133.667 235.084 126.217C235.084 114.706 225.223 110.166 217.991 106.921C214.465 105.277 210.79 103.647 209.012 101.624C203.409 95.2944 208.115 83.1728 213.33 76.5954L219.993 68.0827L209.191 66.0018C208.892 65.9581 206.054 65.4488 201.721 65.4488C193.668 65.4488 178.264 67.3551 165.713 80.0588C155.24 90.6233 153.865 101.872 154.403 109.133C153.387 109.22 152.371 109.264 151.295 109.308H150.145C134.367 109.308 126.927 93.0098 126.643 92.3841L122.206 82.1979L115.034 90.7834C114.631 91.3073 104.127 104.055 106.697 120.047C108.385 130.67 115.228 139.837 126.972 147.375C128.257 148.175 129.138 148.859 129.781 149.427C107.608 156.455 95.2523 171.866 82.194 188.062L80.3114 190.361C60.3505 215.143 32.0973 215.885 28.7207 215.885L19.0988 215.594L22.0272 224.528C22.3708 225.605 30.8871 250.969 56.4509 250.969L57.676 250.925C60.3803 250.853 62.8157 250.489 64.9672 250.081C63.9213 263.905 58.692 289.473 35.205 298.975L28.0334 301.885L31.918 308.477C32.2766 309.074 41.002 323.437 60.7539 323.437C67.8233 323.505 74.8049 321.908 81.1033 318.78C81.8653 325.037 83.449 333.055 86.5268 342.034C93.6686 362.784 87.0199 377.351 86.7659 377.933L83.2398 385.18L91.2033 387.231C91.7412 387.377 96.6418 388.57 102.439 388.57C110.415 388.59 118.134 385.823 124.193 380.77C126.359 387.275 130.079 394.624 136.519 401.128C147.486 412.115 163.248 417.659 183.837 417.659L196.312 417.499L189.41 407.225V407.225Z" fill="#1A1919"/>
<path fill-rule="evenodd" clip-rule="evenodd" d="M69.5989 149.354C74.8581 144.072 80.4012 142.471 85.1822 142.471C92.5331 142.471 98.1061 146.298 98.1061 146.298C78.2348 156.63 74.141 173.19 62.7859 176.93C60.9366 177.554 58.9909 177.864 57.0337 177.847C48.6817 177.847 40.5987 172.579 37.8496 166.569C37.8496 166.569 53.1491 165.652 69.5989 149.354V149.354ZM57.0337 184.482C59.7679 184.482 62.4423 184.075 64.9822 183.231C72.0941 180.932 76.6361 175.416 81.4172 169.654C86.3028 163.79 91.801 157.14 101.333 152.192L111.135 147.055L102.021 140.798C101.274 140.347 94.4456 135.85 85.1822 135.85C77.5923 135.85 70.5402 138.863 64.7282 144.654C50.5792 158.755 37.8944 159.89 37.4313 159.904L27.5703 160.472L31.6043 169.305C35.6981 178.109 46.3958 184.482 57.0337 184.482V184.482ZM101.602 261.665C100.556 236.621 107.13 216.321 117.44 199.587C111.702 217.02 112.479 238.353 132.082 258.289C132.082 258.289 93.1158 212.742 147.575 166.089C169.359 148.321 193.19 137.349 205.441 129.579C161.127 143.694 139.477 128.152 139.477 128.152C153.626 140.129 171.959 139.939 183.329 138.193C180.251 139.663 177.024 141.191 173.587 143.01C136.19 162.815 102.618 195.425 96.8511 240.565V240.23C88.1704 284.555 68.837 295.934 68.837 295.934C84.226 288.513 93.9077 268.868 96.2684 261.796C98.8382 300.765 118.321 327.802 141.091 353.835C152.924 367.325 157.078 380.436 157.078 380.436C157.078 380.436 154.777 365.579 144.512 353.486C123.296 328.559 103.096 297.535 101.602 261.665V261.665ZM275.379 170.323V179.287C278.547 175.518 284.643 176.29 284.643 176.29V189.197C284.643 189.197 284.448 195.542 282.133 198.292H295.37C293.069 195.542 292.845 189.197 292.845 189.197V176.29C292.845 176.29 298.971 175.518 302.109 179.287V170.323H275.364H275.379ZM269.702 117.239C273.93 120.513 276.38 121.066 276.455 121.109L278.099 121.852V113.426L262.56 107.052C262.56 107.052 262.695 111.942 269.702 117.239V117.239ZM306.665 117.239C313.688 111.942 313.837 107.052 313.837 107.052L298.284 113.426V121.866L299.927 121.109C300.002 121.066 302.437 120.513 306.665 117.239Z" fill="#1A1919"/>
<path fill-rule="evenodd" clip-rule="evenodd" d="M288.184 94.7851L250.727 80.3498C253.909 72.9866 268.596 66.7294 288.184 66.7148C307.786 66.7294 322.473 72.9866 325.655 80.3498L288.184 94.7851ZM316.108 140.026L290.933 152.978V100.533L325.102 89.2118L316.108 139.997V140.026ZM331.706 153.938L343.211 160.457H343.375L346.274 162.101C339.774 163.848 334.799 167.034 330.631 171.196L330.182 171.633C329.199 172.654 328.257 173.713 327.359 174.805L326.836 175.475C325.939 176.595 325.088 177.745 324.296 178.938L323.862 179.534C322.893 180.975 321.972 182.446 321.098 183.944C312.881 197.724 299.808 205.96 288.184 205.99C276.56 205.96 263.471 197.724 255.284 183.944C254.413 182.474 253.502 181.028 252.55 179.607L252.012 178.836C251.231 177.712 250.424 176.606 249.591 175.518C249.382 175.227 249.188 175.009 248.979 174.761C248.102 173.7 247.19 172.666 246.245 171.662C246.05 171.516 245.916 171.327 245.737 171.167C241.468 166.813 236.059 163.679 230.094 162.101L233.022 160.457H233.142L244.691 153.938L256.509 147.317L288.124 164.11L288.184 164.051L288.273 164.11L319.873 147.317L331.706 153.938ZM377.127 200.562C374.542 207.197 372.405 214.386 372.405 221.531L372.435 267.66C362.559 266.059 361.379 255.669 361.349 255.218L361.17 253.108L359.033 252.919C355.41 252.608 352.025 251.032 349.501 248.481C344.645 243.751 344.645 236.097 344.645 236.024C344.585 236.417 339.326 243.591 345.422 251.449C347.992 254.767 351.727 256.819 356.538 257.619C357.674 263.367 362.066 271.501 372.435 272.753V295.308H343.285C329.839 288.018 335.531 275.183 335.8 274.63L336.936 272.185L334.366 271.24C319.798 265.972 323.818 251.798 324.012 251.187L324.609 249.121L322.607 248.219C310.595 242.776 312.223 228.137 312.388 227.526C308.682 230.451 307.353 236.403 309.893 242.267C308.518 243.809 306.665 245.658 304.648 247.695C301.139 246.948 297.979 245.098 295.657 242.428C293.335 239.759 291.979 236.419 291.799 232.925L291.784 231.208L290.141 230.597C285.285 228.85 281.953 226.202 280.295 222.666C278.457 218.751 279.1 214.662 279.608 212.669C282.4 213.233 285.242 213.525 288.094 213.542H288.288C289.737 213.542 291.157 213.455 292.561 213.324C300.331 212.567 308.996 209.322 318.05 200.562H377.127V200.562ZM340.701 401.594L343.958 385.049L344.481 381.993C346.491 382.76 348.627 383.169 350.786 383.201C355.746 383.201 358.645 380.639 360.572 378.471L363.052 375.634L361.02 372.52C360.841 372.214 356.314 365.244 352.848 360.471C352.159 359.528 351.496 358.567 350.86 357.59C346.901 351.827 341.956 344.595 332.035 344.595L331.153 344.624C329.725 344.699 328.315 344.978 326.97 345.453C323.951 344.048 320.65 343.312 317.303 343.3C313.937 343.379 310.609 344.008 307.457 345.162C306.8 345.352 306.202 345.555 305.739 345.643L287.212 343.867C286.973 343.809 286.226 343.373 285.3 342.325V342.223L289.304 340.666C288.184 327.628 275.349 319.609 268.208 316.888C267.891 315.494 267.164 314.22 266.116 313.221L262.142 309.54L258.646 313.629L256.927 315.724L230.96 305.32L247.843 325.998L241.195 335.849C238.744 338.367 241.449 340.913 241.449 340.913L248.321 345.541L255.463 342.936C255.702 342.936 255.911 342.994 256.165 343.023C255.822 344.086 255.374 348.233 255.075 349.382L242.689 347.01L229.69 354.184C222.982 358.987 222.07 366.903 224.565 372.33L226 375.415L228.047 379.766L232.604 377.933C232.678 377.904 232.738 377.889 232.783 377.846C231.139 382.953 231.812 387.799 234.725 390.986L237.489 394.376L241.165 398.916L245.199 394.682C246.394 393.518 250.249 389.312 251.429 385.703L252.296 382.953L250.338 380.843L250.01 380.45L252.221 376.885L268.387 380.61L272.033 381.425L273.975 378.297L275.021 376.609C275.215 376.245 275.26 376.187 276.007 376.187C276.589 376.187 277.157 376.245 277.77 376.39C283.283 377.45 288.885 378.01 294.504 378.064C299.329 378.064 302.243 377.889 305.679 376.769C305.679 376.769 314.36 386.373 314.659 386.751L309.34 402.758L309.101 403.719C299.046 404.519 294.145 406.673 288.213 412.45C279.608 404.126 273.527 403.238 250.413 403.238C222.728 403.238 203.962 387.421 203.962 362.115V300.299H372.435L372.465 362.115C372.465 382.619 360.124 396.923 340.701 401.594V401.594ZM236.936 366.641L237.818 368.78C237.22 370.642 230.646 373.291 230.646 373.291L229.242 370.25C228.345 368.165 228.192 365.848 228.806 363.669C229.421 361.49 230.769 359.575 232.634 358.23L243.286 351.9L254.597 354.228C254.372 357.735 256.524 360.354 256.524 360.354L244.691 358.143L237.594 362.915C236.399 363.73 236.309 365.244 236.936 366.641V366.641ZM338.908 384.103L335.277 402.598C332.946 402.918 330.496 403.093 327.986 403.18L331.811 385.427C332.946 380.13 318.424 378.486 311.237 368.11C307.726 371.952 301.137 373.102 294.504 373.102C288.438 373.102 282.402 372.156 278.711 371.443C277.823 371.292 276.923 371.21 276.022 371.195C273.885 371.195 271.958 371.836 270.613 374.033L269.567 375.779L249.756 371.225L244.825 379.184C244.138 380.479 244.078 381.556 245.199 382.764L246.543 384.19C245.617 386.999 241.493 391.262 241.493 391.262L238.55 387.668C236.219 385.136 236.608 380.479 239.028 376.172L246.887 363.221L263.666 365.593L261.066 359.787C257.555 352.118 262.904 342.368 263.471 336.751C263.277 338.454 261.679 338.832 259.826 338.832C258.123 338.832 256.24 338.527 254.985 338.527C254.492 338.527 254.059 338.57 253.835 338.73L249.293 341.423L245.707 338.338C245.273 337.756 245.139 336.344 246.185 335.296L254.492 326.216L244.691 315.04L258.406 321.778L262.605 316.816C263.755 317.922 263.247 320.788 263.247 320.788C267.535 320.905 279.563 327.38 280.19 342.514C280.235 342.98 280.235 343.489 280.235 343.998L280.549 344.493C281.4 345.643 283.746 348.567 286.719 348.829L305.694 350.663H305.769C307.861 350.663 311.999 348.276 317.303 348.276C320.217 348.276 323.429 349.004 326.865 351.114C326.865 351.114 328.599 349.775 331.393 349.63C331.602 349.601 331.841 349.601 332.035 349.601C340.551 349.601 344.092 357.109 348.664 363.352C352.101 368.096 356.687 375.139 356.687 375.139C354.999 377.103 353.415 378.195 350.771 378.195C349.948 378.198 349.127 378.12 348.321 377.962C339.207 376.318 337.877 358.026 332.677 356.571C332.404 356.501 332.123 356.467 331.841 356.469C330.167 356.469 329.435 357.924 329.435 357.924C331.826 364.167 330.421 366.684 332.991 371.501C334.904 375.066 338.295 377.991 339.7 379.388C339.7 379.388 339.326 382.095 338.908 384.117V384.103ZM321.442 403.311C318.902 403.311 316.541 403.34 314.42 403.428L319.978 386.533C320.844 384.19 316.452 381.178 314.644 378.529C317.378 380.217 324.475 383.914 327.896 385.369C325.679 391.327 323.527 397.308 321.442 403.311V403.311ZM238.789 251.071L239.581 221.705L246.334 214.735L250.577 223.408L242.211 251.595L238.774 251.085L238.789 251.071ZM243.645 260.18C244.671 262.093 246.223 263.69 248.127 264.793C248.075 267.584 247.8 270.367 247.305 273.117C247.156 273.757 247.007 274.354 246.812 274.95C246.723 275.329 246.603 275.634 246.529 275.882C244.452 275.882 240.403 275.634 237.101 274.455C233.425 273.146 227.942 266.568 229.212 259.322C230.796 258.376 234.471 256.353 237.923 256.353C240.567 256.353 242.375 257.575 243.645 260.18V260.18ZM321.875 268.067C316.691 271.807 303.304 281.338 298.448 284.656L251.713 276.449L252.042 275.241C252.639 272.869 253.282 269.639 253.312 265.841L292.591 266.452L293.338 265.724C293.936 265.142 306.382 253.399 312.716 246.662C314.226 248.51 316.108 250.256 318.588 251.798C317.752 256.309 318.095 262.683 321.875 268.067V268.067ZM258.332 200.562C263.964 206.004 269.448 209.395 274.677 211.257C274.005 213.877 273.108 219.319 275.618 224.718C277.68 229.083 281.415 232.43 286.809 234.671C287.407 240.055 290.888 248.16 300.555 251.74C296.311 255.902 292.188 259.831 290.544 261.403L251.339 260.806C250.044 260.203 248.97 259.228 248.262 258.012C248.187 257.823 248.052 257.721 247.963 257.517L254.372 258.536L254.776 258.55C255.379 258.554 255.963 258.348 256.423 257.969C256.884 257.59 257.19 257.064 257.286 256.484C257.394 255.832 257.233 255.165 256.839 254.628C256.444 254.091 255.848 253.728 255.179 253.617L247.305 252.395L256.031 222.986L247.769 206.004L234.516 219.683L233.709 250.256L224.805 248.873C223.43 248.612 222.115 249.601 221.861 250.954C221.762 251.609 221.93 252.276 222.329 252.812C222.728 253.348 223.327 253.71 223.998 253.821L227.733 254.374C226.388 255.116 225.507 255.713 225.402 255.786L224.655 256.309L224.446 257.212C222.28 265.797 227.18 273.946 232.469 277.584L232.275 278.675C232.066 279.985 232.365 281.295 233.171 282.357C233.631 283.002 234.245 283.528 234.962 283.888C235.678 284.249 236.474 284.432 237.28 284.423C238.412 284.414 239.508 284.033 240.39 283.341C241.271 282.649 241.887 281.687 242.136 280.611C244.108 280.829 245.916 280.887 247.141 280.887H248.202L299.613 289.953L300.495 289.386C304.589 286.592 320.217 275.489 325.327 271.807C326.746 272.986 328.315 274.063 330.212 274.95C328.554 280.378 328.449 288.716 334.993 295.323H203.962V221.545C203.962 214.386 201.825 207.197 199.286 200.562H258.332V200.562ZM251.25 89.2409L285.449 100.548V152.963L260.274 140.012L251.25 89.2263V89.2409ZM334.68 82.9109C334.68 70.1199 312.612 58.6095 288.258 58.6095H288.109C263.755 58.6095 241.703 70.1199 241.703 82.9109L242.181 86.0541L251.907 140.521L242.136 146.051L216.871 160.457H216.961C216.961 160.457 211.283 163.309 208.639 165.055C199.017 171.575 196.97 181.091 202.558 185.02C203.932 177.264 210.222 169.159 221.981 169.159C230.467 169.159 236.922 173.437 242.151 179.825C243.496 181.441 244.765 183.172 245.946 185.02C247.41 187.363 248.889 189.43 250.338 191.409H185.226C190.007 200.795 194.564 210.733 194.564 221.531V362.13C194.564 396.152 221.383 412.391 250.398 412.391C272.824 412.391 275.842 411.402 288.213 423.422C300.525 411.402 303.558 412.391 325.999 412.391C355.029 412.391 381.803 396.152 381.803 362.13V221.531C381.803 210.733 386.36 200.795 391.171 191.409H326.029C327.493 189.43 328.957 187.363 330.421 185.02C331.617 183.172 332.887 181.441 334.201 179.825C339.461 173.408 345.915 169.159 354.401 169.159C366.16 169.159 372.435 177.264 373.825 185.02C379.412 181.091 377.395 171.575 367.699 165.055C365.129 163.309 359.422 160.457 359.422 160.457H359.526L334.201 146.051L324.49 140.521L334.201 86.0541L334.68 82.9109V82.9109Z" fill="#1A1919"/>
</g>
</svg>
