<svg width="522" height="53" viewBox="0 0 522 53" fill="none" xmlns="http://www.w3.org/2000/svg">
<g clip-path="url(#clip0_37_389)">
<path d="M35.8473 50.8888V15.8034H56.5909V3.0359H0V15.8034H20.7429V50.8888H35.8473ZM77.236 30.8834V3.0359H62.6356V50.8888H75.5245L100.698 23.0418V50.8888H115.299V3.0359H102.41L77.236 30.8834ZM164.42 33.095V50.8888H179.02V3.0359H164.42V20.5281H140.957V3.0359H126.357V50.8888H140.957V33.095H164.42ZM219.683 50.8888C223.006 50.8888 226.027 50.5872 228.846 49.7828C236.398 47.6716 241.332 41.5392 241.332 33.1953C241.332 25.2534 237.103 19.7242 230.356 17.2105C227.134 16.0047 223.308 15.9038 219.683 15.9038H204.68V3.0359H190.079V50.8888H219.683ZM217.165 27.1639C219.179 27.1639 221.092 27.1639 222.804 27.7665C225.221 28.571 226.631 30.5813 226.631 32.9941C226.631 35.5078 225.221 37.6184 222.905 38.6241C221.294 39.3277 219.683 39.3277 217.165 39.3277H204.68V27.1639H217.165ZM267.511 32.7928L284.932 50.8888H304.366L280.099 25.9569L303.46 3.0359H285.133L267.511 21.0315H263.483V3.0359H248.882V50.8888H263.483V32.7928H267.511ZM334.409 1.72912C314.774 1.72912 302.993 12.7874 302.993 27.063C302.993 41.338 314.774 52.3968 334.409 52.3968C353.944 52.3968 365.726 41.338 365.726 27.063C365.726 12.7874 353.944 1.72912 334.409 1.72912ZM334.409 40.7353C324.642 40.7353 318.399 34.904 318.399 27.063C318.399 19.2214 324.642 13.491 334.409 13.491C344.076 13.491 350.42 19.2214 350.42 27.063C350.42 34.904 344.076 40.7353 334.409 40.7353ZM414.351 0.321472H399.751V5.14709C381.424 5.5496 370.448 13.2903 370.448 26.9626C370.448 40.6344 381.424 47.7725 399.751 48.1744V53H414.351V48.1744C432.779 47.7725 443.754 40.6344 443.754 26.9626C443.754 13.2903 432.779 5.5496 414.351 5.14709V0.321472ZM399.751 37.9206C389.681 37.5181 385.25 33.396 385.25 26.9626C385.25 20.5281 389.681 15.9038 399.751 15.5018V37.9206ZM414.351 15.5018C424.522 15.9038 428.851 20.5281 428.851 26.9626C428.851 33.396 424.522 37.5181 414.351 37.9206V15.5018ZM492.332 0.321472H477.731V5.14709C459.404 5.5496 448.429 13.2903 448.429 26.9626C448.429 40.6344 459.404 47.7725 477.731 48.1744V53H492.332V48.1744C510.756 47.7725 521.735 40.6344 521.735 26.9626C521.735 13.2903 510.756 5.5496 492.332 5.14709V0.321472ZM477.731 37.9206C467.661 37.5181 463.23 33.396 463.23 26.9626C463.23 20.5281 467.661 15.9038 477.731 15.5018V37.9206ZM492.332 15.5018C502.503 15.9038 506.831 20.5281 506.831 26.9626C506.831 33.396 502.503 37.5181 492.332 37.9206V15.5018Z" fill="black"/>
</g>
<defs>
<clipPath id="clip0_37_389">
<rect width="522" height="53" fill="white"/>
</clipPath>
</defs>
</svg>
