<svg width="1187" height="137" viewBox="0 0 1187 137" fill="none" xmlns="http://www.w3.org/2000/svg">
<g clip-path="url(#clip0_19_53)">
<g opacity="0.2">
<path d="M47.1932 120.644H81.5571L81.5571 40.1324L128.75 40.1324V10.8346L0 10.8346L0 40.1324H47.1932L47.1932 120.644ZM232.988 10.8346L175.714 74.7361V10.8346L142.496 10.8346V120.644H171.82L229.093 56.7422V120.644H262.312V10.8346L232.988 10.8346ZM320.696 79.8114H374.075V120.644H407.293V10.8346L374.075 10.8346V50.9749L320.696 50.9749V10.8346L287.477 10.8346V120.644H320.696V79.8114ZM499.801 120.644C507.361 120.644 514.234 119.952 520.648 118.106C537.83 113.262 549.056 99.1895 549.056 80.0421C549.056 61.8174 539.434 49.1294 524.085 43.3621C516.754 40.5938 508.048 40.3631 499.801 40.3631L465.666 40.3631V10.8346L432.447 10.8346V120.644L499.801 120.644ZM465.666 66.2006H494.074C498.655 66.2006 503.008 66.2005 506.903 67.5847C512.401 69.4302 515.608 74.0441 515.608 79.5807C515.608 85.348 512.401 90.1925 507.132 92.4994C503.466 94.1142 499.801 94.1142 494.074 94.1142L465.666 94.1142V66.2006ZM599.456 79.1193H608.62L648.253 120.644L692.468 120.644L637.257 63.4323L690.406 10.8346L648.711 10.8346L608.62 52.1284H599.456V10.8346L566.238 10.8346V120.644H599.456V79.1193Z" fill="black"/>
<path d="M760.818 7.83478C716.145 7.83478 689.341 33.2108 689.341 65.969C689.341 98.7272 716.145 124.103 760.818 124.103C805.262 124.103 832.066 98.7272 832.066 65.969C832.066 33.2108 805.262 7.83478 760.818 7.83478ZM760.818 97.3431C738.596 97.3431 724.392 83.963 724.392 65.969C724.392 47.9751 738.596 34.8257 760.818 34.8257C782.811 34.8257 797.244 47.9751 797.244 65.969C797.244 83.963 782.811 97.3431 760.818 97.3431ZM942.695 15.6783V4.6051L909.477 4.6051V15.6783C867.782 16.6011 842.811 34.3643 842.811 65.7384C842.811 97.1124 867.782 113.492 909.477 114.414V125.487L942.695 125.487V114.414C984.619 113.492 1009.59 97.1124 1009.59 65.7384C1009.59 34.3643 984.619 16.6011 942.695 15.6783ZM909.477 90.8837C886.567 89.961 876.487 80.5026 876.487 65.7384C876.487 50.9741 886.567 40.3623 909.477 39.4395V90.8837ZM942.695 90.8837V39.4395C965.834 40.3623 975.685 50.9741 975.685 65.7384C975.685 80.5026 965.834 89.961 942.695 90.8837ZM1120.1 15.6783V4.6051L1086.89 4.6051V15.6783C1045.19 16.6011 1020.22 34.3643 1020.22 65.7384C1020.22 97.1124 1045.19 113.492 1086.89 114.414V125.487L1120.1 125.487V114.414C1162.03 113.492 1187 97.1124 1187 65.7384C1187 34.3643 1162.03 16.6011 1120.1 15.6783ZM1086.89 90.8837C1063.98 89.961 1053.9 80.5026 1053.9 65.7384C1053.9 50.9741 1063.98 40.3623 1086.89 39.4395V90.8837ZM1120.1 90.8837V39.4395C1143.24 40.3623 1153.09 50.9741 1153.09 65.7384C1153.09 80.5026 1143.24 89.961 1120.1 90.8837Z" fill="black"/>
</g>
</g>
<defs>
<clipPath id="clip0_19_53">
<rect width="1187" height="137" fill="white"/>
</clipPath>
</defs>
</svg>
