<svg width="630" height="456" viewBox="0 0 630 456" fill="none" xmlns="http://www.w3.org/2000/svg">
<path d="M492.705 117.969C491.715 116.961 491.135 116.039 490.316 114.757C489.889 114.108 489.428 113.407 488.916 112.655C490.333 111.016 491.528 109.119 492.432 107.035L496.051 98.783L487.142 97.5015C485.64 97.2796 483.217 96.6472 480.384 95.8961C474.923 94.4611 467.909 92.6149 460.264 91.8122C462.874 90.6675 465.094 88.6001 466.646 85.7984L468.114 83.1509C468.114 83.1509 467.721 79.4433 466.288 78.2818C466.834 77.1371 467.26 75.8724 467.551 74.4883L468.762 68.577L463.062 66.6299C462.175 66.3224 461.288 66.1001 460.417 65.9635C460.093 64.8873 459.615 63.7422 458.966 62.5294L455.587 56.3275L449.495 59.8983C447.976 60.7869 446.697 61.8122 445.655 62.9566C444.751 62.7859 443.778 62.7001 442.754 62.7001C442.754 62.7001 439.273 62.307 435.433 63.708L430.518 58.5998L424.698 52.3812C419.255 46.5557 411.883 44.83 404.374 47.7001C401.506 44.83 397.035 42.4553 390.09 42.4553C387.735 42.4553 385.669 42.7452 384.458 42.8993C384.458 42.8993 374.901 44.6417 369.526 49.75L363.007 46.6408C358.638 53.5256 351.163 55.7128 351.163 55.7128C350.651 53.6964 349.78 51.8173 348.535 50.0915L348.962 47.666C348.962 47.5977 350.429 39.3802 354.901 32.4095L362.682 20.2791L351.658 21.5266C351.692 20.4331 351.641 19.1346 351.487 17.597L350.497 8.16595L341.862 12.0789C340.906 12.5055 340.104 12.9327 339.354 13.3258L337.647 9.68685L333.688 11.7367C333.296 10.763 332.784 9.65265 332.084 8.37156L327.528 0L321.059 6.98733C320.393 7.70526 319.83 8.37162 319.352 9.00379L315.428 5.09084L311.469 9.02048C310.973 8.38832 310.427 7.72202 309.762 7.00476L303.226 0L298.652 8.40576C297.953 9.68685 297.458 10.7804 297.065 11.7541L293.123 9.70422L291.416 13.3432C290.665 12.9501 289.863 12.5229 288.907 12.0789L280.238 8.18339L279.282 17.6486C279.129 19.1687 279.078 20.4498 279.112 21.5434L268.07 20.2964L275.869 32.4262C280.357 39.3802 281.791 47.5977 281.791 47.666L282.201 50.0915C280.955 51.8347 280.068 53.7139 279.573 55.7295C279.573 55.7295 272.507 52.706 267.78 46.6408L261.125 49.8183C253.531 44.6934 248.82 42.6943 240.629 42.4553C233.683 42.2671 229.212 44.83 226.345 47.7001C218.819 44.8467 211.464 46.5724 206.037 52.3986C206.037 52.3986 202.47 56.2766 200.217 58.6172C197.965 60.9744 194.637 62.9225 194.637 62.9225C194.637 62.9225 189.91 61.8631 185.047 62.9734C184.006 61.8289 182.708 60.8036 181.173 59.8983L175.062 56.3275L171.701 62.5635C171.052 63.7596 170.591 64.8873 170.284 65.9635C169.414 66.1001 168.527 66.3224 167.64 66.6299L161.973 68.6112L163.151 74.4883C163.441 75.9066 163.85 77.1713 164.413 78.3153C164.09 78.9477 163.8 79.6143 163.561 80.3143L162.605 83.1677L164.055 85.8158C165.592 88.6001 167.793 90.685 170.421 91.8297C162.759 92.6324 155.762 94.4778 150.284 95.9129C147.468 96.6472 145.044 97.297 143.543 97.5183L134.6 98.8172L136.631 103.43L138.252 107.103C139.174 109.154 140.386 111.05 141.785 112.69C141.255 113.441 139.003 116.978 137.996 117.986L133.474 122.582L137.809 127.365C138.355 127.946 143.219 133.055 151.085 133.072C153.236 133.072 155.369 132.696 157.485 131.944C159.584 135.225 162.076 138.556 164.345 140.196C160.164 145.116 155.403 149.388 148.628 152.617L142.963 155.316L145.403 161.791C146.99 165.703 150.079 169.991 156.052 171.631C154.772 175.459 154.158 179.081 153.612 182.309C152.331 189.98 151.785 193.158 145.044 195.533L138.986 197.651L140.727 203.836C142.126 208.876 144.225 212.208 146.495 214.411L142.468 218.853C142.468 218.853 152.024 226.029 161.393 226.9C161.529 226.918 169.516 227.43 173.1 222.851C174.534 228.044 176.804 232.829 178.868 237.168C183.101 246.086 185.353 251.365 182.52 256.183L176.121 267.049L188.698 266.519C194.194 266.297 199.296 265.955 203.716 264.862C203.716 265.102 203.699 265.323 203.682 265.546L202.658 274.873L213.682 272.551C214.843 272.209 215.935 271.747 216.925 271.217C223.751 279.213 235.355 285.449 250.988 285.449H251.892L233.922 292.829L247.011 299.646C255.629 304.139 265.204 307.899 276.126 311.093L274.606 316.339L281.177 318.269C284.966 319.379 298.669 323.018 315.359 323.018C332.05 323.018 345.736 319.379 349.542 318.269L356.095 316.339L354.575 311.11C365.515 307.915 375.089 304.157 383.707 299.664L396.796 292.847L378.809 285.466H379.714C395.346 285.466 406.933 279.23 413.76 271.234C414.75 271.764 415.842 272.225 417.002 272.567L428.026 274.891L427.019 265.58C427.002 265.357 426.986 265.118 426.986 264.879C431.389 265.973 436.508 266.297 441.986 266.537L454.563 267.066L448.198 256.217C445.348 251.4 447.618 246.121 451.833 237.202C453.898 232.863 456.168 228.078 457.601 222.885C460.025 224.73 462.636 225.841 465.23 226.422C465.23 226.422 467.244 227.02 469.172 227.071C474.735 227.242 477.517 225.653 481.34 223.244L488.286 218.871L484.223 214.429C486.493 212.242 488.593 208.91 489.992 203.888L491.749 197.685L485.674 195.568C478.916 193.192 478.387 190.015 477.108 182.343C476.562 179.115 475.964 175.476 474.667 171.665C480.64 170.009 483.711 165.72 485.299 161.825L487.723 155.333L482.057 152.633C475.281 149.405 470.52 145.133 466.322 140.213C468.608 138.573 471.1 135.241 473.217 131.961C475.315 132.713 477.449 133.072 479.616 133.089C487.483 133.089 492.364 127.98 492.893 127.399L497.228 122.616L492.705 117.969Z" fill="white"/>
<path fill-rule="evenodd" clip-rule="evenodd" d="M259.9 202.162V150.054C259.9 145.202 258.5 140.349 256.828 135.891H297.223C300.926 140.981 307.649 144.398 315.363 144.398C323.043 144.398 329.766 140.981 333.487 135.891H373.881C372.174 140.366 370.792 145.202 370.792 150.054V202.162H259.9ZM315.346 273.369C309.697 267.749 305.669 267.134 290.448 267.134C272.255 267.134 259.9 256.456 259.9 239.389V205.219H370.775V239.389C370.775 256.456 358.437 267.134 340.211 267.134C325.005 267.117 320.977 267.749 315.346 273.369Z" fill="#FFDD2D"/>
<path d="M266.331 279.812V290.216L257.304 293.855C264.932 297.323 274.404 300.774 285.53 303.32L290.65 286.628C279.729 284.39 272.117 282.05 266.331 279.812Z" fill="white"/>
<path d="M315.341 293.907C304.675 293.907 295.699 292.796 292.115 291.976L286.705 309.488C295.204 311.572 305.153 313.11 315.341 313.11C325.495 313.11 335.444 311.589 343.977 309.488L338.551 291.976C334.966 292.813 326.024 293.907 315.341 293.907Z" fill="white"/>
<path d="M364.356 279.812C358.554 282.05 350.96 284.374 340.037 286.646L345.174 303.337C356.319 300.791 365.755 297.34 373.384 293.873L364.373 290.233V279.812H364.356Z" fill="white"/>
<path d="M247.42 111.955C261.55 104.318 296.091 87.5071 272.677 69.3797C269.486 66.9199 265.97 64.6986 263.017 61.9483C259.366 64.7669 264.383 71.7717 265.646 74.3347C265.646 74.3347 257.847 75.12 255.987 75.12C243.938 75.069 231.31 67.9279 237.709 54.243C232.914 55.2341 232.334 59.8468 230.867 63.7932C227.794 61.7092 222.453 57.2331 218.34 57.8653C221.685 68.5764 235.765 78.2302 246.686 80.4163C235.645 86.4301 215.166 90.9063 204.398 77.9559C196.837 92.5982 207.367 98.7139 217.692 106.385C178.39 124.341 184.192 144.484 158.406 160.338C161.75 161.91 176.666 158.75 177.997 158.561C172.399 165.822 169.788 168.898 168.15 172.434C166.58 175.748 165.88 179.49 164.328 187.554C163.115 193.927 160.897 200.282 153.149 204.502C156.187 210.003 162.928 205.698 165.744 204.963C165.368 205.544 164.412 212.173 161.887 215.367C175.13 214.513 169.003 186.563 182.247 193.294C185.984 195.174 187.11 199.582 185.386 203.186C176.683 221.159 196.462 236.997 195.386 252.749C200.251 252.715 205.285 252.578 208.459 246.001C210.115 249.28 212.674 253.893 214.108 258.335L218.067 251.587C220.507 262.761 230.918 273.08 244.98 274.002C238.273 263.376 246.311 248.871 230.013 233.443C232.044 231.803 236.737 228.642 238.409 226.49C218.409 228.848 197.537 213.01 207.008 205.493C213.203 200.59 215.917 210.772 225.473 209.063L221.736 205.834C223.05 204.535 224.552 202.845 226.105 201.563C222.043 201.068 217.606 198.471 217.606 198.471L220.029 194.456C196.599 194.422 196.001 176.483 205.523 175.766C209.995 175.441 215.78 183.693 230.2 181.967C228.357 179.746 227.624 176.381 226.753 173.904C230.235 173.579 234.331 173.613 237.624 172.007C230.576 171.102 228.801 168.727 222.931 164.285L229.74 161.791C219.859 156.853 220.456 148.26 220.149 139.307C225.32 142.279 231.395 146.893 237.88 144.757C239.416 144.244 240.406 143.527 240.44 141.921C231.19 138.214 225.252 123.948 247.42 111.955ZM230.542 113.356C218.169 126.596 223.528 134.523 226.02 136.966C221.411 135.976 214.535 130.098 216.104 124.41C214.637 126.169 213.135 128.082 211.599 130.047C208.527 134.148 205.78 138.163 203.34 142.058C199.585 153.231 206.462 164.764 218.169 169.871C205.165 167.958 199.329 156.375 199.363 148.995C193.151 160.749 190.181 171.477 190.455 180.481C190.574 183.83 190.864 186.956 191.308 189.911C194.295 195.584 199.09 197.669 207.64 198.71C199.875 199.206 195.762 198.847 192.384 195.293C197.674 218.067 222.419 237.783 232.488 254.662C222.401 241.541 201.531 221.997 194.227 207.868C193.663 212.975 195.028 226.063 201.377 234.109C192.024 224.901 191.291 210.96 191.906 202.793C189.533 196.916 188.032 190.356 187.827 182.89C187.639 176.022 188.116 170.06 189.158 164.712C183.253 173.118 174.72 176.363 170.522 189.16C171.341 172.656 183.646 172.4 192.862 152.36C196.428 143.596 201.615 136.027 207.35 127.451C200.063 129.843 194.602 131.551 186.171 140.793C192.161 126.613 226.77 110.674 242.625 95.2457C237.863 96.2542 218.425 96.7491 210.353 91.3509C224.979 95.3141 257.523 90.7869 269.81 82.3811C261.328 94.5965 242.863 95.2973 220.389 119.592C223.255 117.302 227.078 114.996 230.542 113.356Z" fill="white"/>
<path d="M466.34 187.555C464.788 179.492 464.105 175.75 462.535 172.436C460.914 168.899 458.286 165.824 452.671 158.563C454.002 158.751 468.952 161.912 472.28 160.34C446.493 144.486 452.295 124.342 412.977 106.387C423.301 98.716 433.831 92.5995 426.27 77.9411C415.503 90.9083 395.024 86.4321 383.982 80.4015C394.921 78.2141 408.983 68.5791 412.328 57.8493C408.198 57.2171 402.856 61.6932 399.785 63.7605C398.317 59.8141 397.753 55.2014 392.958 54.1935C399.358 67.8951 386.712 75.0361 374.647 75.0878C372.804 75.0878 365.022 74.3019 365.022 74.3019C366.268 71.7389 371.285 64.7349 367.616 61.9156C364.664 64.6833 361.183 66.8872 357.974 69.3475C334.543 87.4742 369.118 104.303 383.248 111.922C405.382 123.915 399.495 138.181 390.228 141.837C390.262 143.443 391.252 144.161 392.805 144.673C399.255 146.826 405.366 142.214 410.502 139.224C410.212 148.176 410.826 156.786 400.946 161.707L407.738 164.201C401.867 168.643 400.109 171.018 393.061 171.923C396.337 173.529 400.468 173.495 403.932 173.82C403.044 176.297 402.277 179.663 400.468 181.884C414.905 183.592 420.708 175.357 425.144 175.681C434.633 176.4 434.07 194.338 410.621 194.372L413.045 198.387C413.045 198.387 408.607 200.984 404.529 201.48C406.082 202.744 407.601 204.452 408.914 205.751L405.177 208.98C414.717 210.688 417.448 200.506 423.642 205.409C433.114 212.927 412.259 228.763 392.242 226.406C393.931 228.559 398.625 231.737 400.655 233.377C384.34 248.787 392.362 263.308 385.688 273.952C399.716 273.013 410.127 262.694 412.601 251.52L416.56 258.268C417.976 253.826 420.571 249.214 422.192 245.934C425.349 252.511 430.418 252.648 435.299 252.682C434.189 236.93 453.951 221.093 445.282 203.12C443.542 199.532 444.667 195.124 448.405 193.228C461.682 186.496 455.521 214.447 468.781 215.301C466.238 212.106 465.3 205.478 464.941 204.897C467.74 205.632 474.465 209.936 477.501 204.418C469.805 200.283 467.587 193.928 466.34 187.555ZM441.544 164.696C442.586 170.061 443.114 176.007 442.875 182.875C442.654 190.34 441.168 196.901 438.797 202.778C439.394 210.945 438.678 224.885 429.325 234.094C435.657 226.031 437.039 212.961 436.476 207.852C429.137 221.981 408.284 241.526 398.18 254.647C408.266 237.767 433.011 218.034 438.319 195.278C434.905 198.814 430.827 199.191 423.045 198.695C431.578 197.653 436.373 195.568 439.36 189.896C439.803 186.958 440.094 183.814 440.213 180.466C440.504 171.462 437.517 160.733 431.305 148.979C431.357 156.359 425.52 167.942 412.499 169.856C424.172 164.731 431.066 153.199 427.329 142.043C424.905 138.147 422.175 134.115 419.069 130.032C417.533 128.067 416.031 126.154 414.547 124.394C416.117 130.083 409.24 135.96 404.631 136.951C407.14 134.508 412.482 126.58 400.126 113.34C403.59 114.98 407.413 117.287 410.297 119.542C387.822 95.2477 369.374 94.5643 360.858 82.3321C373.162 90.738 405.707 95.2819 420.315 91.3006C412.259 96.6995 392.805 96.2039 388.043 95.196C403.898 110.624 438.541 126.564 444.514 140.744C436.084 131.501 430.605 129.793 423.352 127.401C429.103 135.994 434.257 143.546 437.824 152.31C447.056 172.35 459.378 172.59 460.18 189.111C455.982 176.348 447.466 173.102 441.544 164.696Z" fill="white"/>
<path d="M333.466 135.873C329.762 140.964 323.021 144.38 315.359 144.38C313.567 144.38 311.843 144.176 310.205 143.868C310.666 145.97 311.741 148.14 313.976 150.001C313.072 156.1 315.7 161.807 322.236 163.294C322.935 166.403 324.848 168.743 328.09 169.853L323.533 175.116C321.775 177.132 319.489 177.781 317.645 177.542L297.304 175.235C298.191 172.98 295.835 170.366 289.385 171.477L297.372 149.096L292.507 138.726L283.276 146.619L282.593 170.093L278.616 168.163C273.497 165.941 271.978 175.286 276.859 175.321L278.821 175.338C278.685 176.294 278.992 177.354 279.76 177.696C278.838 178.071 278.565 179.797 279.709 180.412C278.548 180.976 278.378 182.753 279.316 183.522C278.309 185.247 278.121 188.989 281.689 189.929C284.623 190.697 286.466 187.553 287.064 185.725L318.72 195.532C323.175 196.814 326.383 196.095 330.103 192.833L338.364 185.605C337.322 190.338 339.011 194.592 342.613 196.01C342.613 196.01 342.049 200.35 342.271 202.144L353.346 202.161H370.787V150.053C370.787 145.201 372.171 140.349 373.877 135.873H353.346H333.466Z" fill="white"/>
<path d="M286.059 223.552L286.674 224.321C287.527 225.381 288.039 225.124 289.012 224.561L290.445 223.792C291.35 223.108 297.238 225.364 297.562 220.461C298.21 224.116 293.859 231.821 296.487 236.127L300.019 241.919L288.483 242.09C287.22 242.09 286.555 242.858 286.214 243.542L283.192 249.812C282.407 251.469 282.458 253.177 283.448 254.322L285.496 256.628C285.496 256.628 287.169 255.21 287.714 253.348L286.81 252.408C286.059 251.691 286.059 251.007 286.469 250.119L288.329 246.258C289.046 244.737 289.78 244.413 291.418 244.806L300.753 246.821C301.435 246.993 302.545 247.317 303.21 246.172C304.353 244.139 306.367 244.003 308.416 244.327C313.535 245.096 325.362 246.326 329.577 241.389C334.526 247.967 344.202 247.967 343.571 251.417L341.523 262.727H344.594L346.472 251.161C346.676 249.812 347.513 247.967 346.062 246.925C345.465 246.463 345.192 246.224 343.843 243.9C342.086 240.825 342.172 236.212 340.481 232.231C342.086 230.335 343.826 229.686 345.345 230.045C348.758 230.882 349.68 236.776 354.526 241.576C353.981 239.441 353.742 237.101 352.598 235.067C352.598 235.067 355.96 237.681 356.83 240.739C357.377 242.653 357.94 244.054 359.663 244.942C360.807 245.352 362.172 244.806 363.538 243.165C363.538 243.165 360.346 238.621 358.008 235.649C354.8 231.565 350.516 227.465 344.68 227.943C342.836 228.097 341.062 228.934 339.373 229.942C332.734 226.218 327.58 230.164 325.532 230.164L313.108 229.429C310.668 229.276 308.739 226.44 308.739 226.44C308.432 215.916 299.985 211.73 297.067 211.73C297.067 211.73 297.34 209.833 296.572 209.167L293.978 212.43L286.776 209.799L292.425 214.429L286.298 221.554C285.667 222.254 285.752 223.176 286.059 223.552Z" fill="white"/>
<path d="M277.92 238.329C276.18 239.678 276.265 241.558 277.306 243.66L278.347 245.607L281.06 243.54L280.446 242.207C280.003 241.268 280.02 240.311 280.787 239.712L284.679 236.774C285.771 235.971 286.112 235.886 287.273 236.056L295.481 237.783C295.481 237.783 294.235 235.971 293.826 234.126L286.095 233.1C285.002 232.964 284.338 233.426 283.382 234.16L277.92 238.329Z" fill="white"/>
<path d="M330.412 262.726H333.518L338.5 250.443C338.671 250.015 338.91 249.828 339.098 249.469C336.862 248.58 335.548 247.965 333.688 246.889C334.934 248.564 335.907 249.281 335.395 250.836L330.412 262.726Z" fill="white"/>
<path d="M333.056 96.5795L338.807 63.4871L317.014 70.902V105.019L333.056 96.5795ZM320.7 74.2502L335.154 68.9204C335.154 68.9204 332.339 71.2091 328.977 73.5152C325.99 75.5827 320.7 77.7869 320.7 77.7869V74.2502ZM320.7 82.2631L333.926 77.5301C333.926 77.5301 332.339 79.2052 328.994 81.5113C326.007 83.5613 320.717 85.7649 320.717 85.7649V82.2631H320.7ZM320.7 90.7708L332.339 86.2946C332.339 86.2946 332.339 87.7129 328.977 90.0023C325.99 92.0698 320.7 94.2733 320.7 94.2733V90.7708Z" fill="white"/>
<path d="M294.284 125.845L294.761 126.614H299.25L299.301 127.4C299.352 128.152 299.523 128.921 299.779 129.706C300.479 131.842 301.861 134.08 304.079 135.891C306.656 137.976 310.377 139.479 315.326 139.479C326.06 139.479 330.907 132.526 331.368 127.4L331.402 126.614H335.906L336.384 125.845C340.617 119.216 345.788 111.853 351.795 110.794L335.412 101.277L315.326 112.212L295.222 101.277L278.856 110.794C284.864 111.836 290.034 119.216 294.284 125.845Z" fill="white"/>
<path d="M313.638 105.019V70.902L291.88 63.4871L297.596 96.5795L313.638 105.019ZM309.969 94.3075C309.969 94.3075 304.678 92.0872 301.692 90.0365C298.331 87.7471 298.331 86.3121 298.331 86.3121L309.986 90.7883V94.3075H309.969ZM309.969 74.2502V77.7869C309.969 77.7869 304.678 75.5827 301.692 73.5152C298.313 71.2091 295.48 68.9204 295.48 68.9204L309.969 74.2502ZM309.969 82.2631V85.7823C309.969 85.7823 304.678 83.5788 301.692 81.5281C298.313 79.222 296.744 77.5475 296.744 77.5475L309.969 82.2631Z" fill="white"/>
<path d="M315.341 48.8963C302.899 48.8963 293.565 52.9793 291.533 57.7635L315.341 67.1768L339.113 57.7635C337.099 52.9793 327.781 48.8963 315.341 48.8963Z" fill="white"/>
<path d="M315.343 35.2273C324.508 35.2273 333.689 38.0124 339.866 41.6173C340.874 38.2857 341.949 35.911 343.416 33.1948L337.785 34.0661L333.228 24.3277L324.713 28.8553L315.343 19.5784L305.957 28.8553L297.459 24.3277L292.868 34.0661L287.236 33.1948C288.704 35.911 289.762 38.2857 290.803 41.6173C296.998 38.0124 306.145 35.2273 315.343 35.2273Z" fill="white"/>
<path d="M470.639 110.229C473.71 109.836 476.185 108.811 479.206 106.555C472.704 104.83 459.085 99.8928 447.463 102.114C443.624 102.626 441.491 104.181 442.856 105.069C449.102 109.221 456.815 118.839 462.43 130.065C467.362 123.931 465.297 115.884 464.256 113.578C474.086 119.506 476.663 122.393 481.219 121.265C478.778 117.524 475.348 114.158 470.639 110.229Z" fill="white"/>
<path d="M168.254 130.049C173.868 118.824 181.582 109.206 187.845 105.054C189.244 104.166 187.077 102.611 183.271 102.098C171.632 99.8948 157.98 104.815 151.478 106.54C154.533 108.796 156.956 109.821 160.062 110.214C155.335 114.16 151.905 117.509 149.464 121.25C154.055 122.378 156.615 119.491 166.427 113.562C165.421 115.886 163.338 123.915 168.254 130.049Z" fill="white"/>
<path fill-rule="evenodd" clip-rule="evenodd" d="M236.396 234.23C240.918 230.641 244.672 228.847 244.485 220.151C237.693 223.636 218.426 223.449 210.371 212.344C208.101 209.183 210.524 207.595 212.725 210.089C218.238 216.342 228.443 213.506 232.163 211.711C231.566 209.559 229.911 206.757 228.529 205.561C229.928 204.195 233.87 202.144 234.672 198.625C232.573 197.48 224.398 196.66 224.398 196.66C225.713 195.396 227.35 193.636 226.361 188.938C218.016 191.501 207.691 188.016 205.353 184.923C203.049 181.882 205.405 179.029 207.35 181.045C211.514 185.418 232.027 190.424 239.656 182.822C236.823 182.036 233.699 179.507 233.136 177.935C240.202 177.218 245.833 173.049 246.294 167.856C242.385 167.856 235.013 167.565 232.487 165.686C235.866 164.439 238.017 163.208 239.092 159.416C226.174 158.63 225.149 149.028 225.081 147.44C233.494 152.291 248.307 150.139 244.468 138.179C237.471 137.804 230.423 126.477 249.656 116.072C267.148 106.591 287.03 96.3736 285.272 79.5459C284.128 68.7822 266.431 61.4357 264.179 55.9859C256.789 59.505 255.304 63.5887 258.632 70.4393C258.632 70.4393 242.164 72.0795 240.867 61.9312C240.304 57.3868 243.341 53.1324 246.601 49.8698C244.758 49.8698 232.351 46.5381 228.613 56.6522C221.668 51.9029 215.712 52.0737 211.036 57.0962C218.51 61.5381 223.135 76.7777 235.491 81.2706C226.702 86.0371 212.486 84.0388 204.193 69.3797C196.342 81.2196 191.82 92.9395 208.664 105.463C178.031 119.42 178.253 146.107 151.596 158.817C154.293 166.079 159.993 166.079 167.263 164.951C155.743 179.934 165.556 195.618 147.313 202.025C149.019 208.141 152.449 213.027 159.174 211.233C157.262 214.223 156 214.154 153.03 217.435C162.996 223.722 174.823 219.178 177.502 199C177.98 195.396 182.929 197.651 181.222 201.188C169.856 224.713 198.596 242.413 188.424 259.669C197.383 259.292 204.227 258.592 207.947 255.568C209.773 259.19 210.883 262.777 210.473 266.314C215.422 265.306 217.231 262.384 217.572 259.002C220.815 268.484 232.419 278.615 250.987 278.615C241.14 264.538 250.305 250.272 236.396 234.23ZM218.067 251.57L214.108 258.318C212.691 253.876 210.115 249.264 208.459 245.984C205.268 252.561 200.234 252.698 195.387 252.732C196.462 236.98 176.683 221.143 185.386 203.169C187.127 199.582 185.984 195.174 182.246 193.278C168.986 186.546 175.129 214.496 161.887 215.351C164.413 212.155 165.368 205.527 165.744 204.946C162.928 205.681 156.187 209.986 153.15 204.485C160.898 200.265 163.116 193.91 164.328 187.537C165.863 179.473 166.58 175.732 168.133 172.417C169.771 168.881 172.382 165.806 177.98 158.544C176.649 158.732 161.751 161.893 158.389 160.322C184.175 144.467 178.373 124.324 217.675 106.368C207.367 98.6972 196.837 92.5807 204.381 77.9398C215.149 90.8895 235.611 86.4133 246.669 80.3995C235.748 78.2127 221.668 68.577 218.34 57.8482C222.453 57.2161 227.794 61.6922 230.85 63.7762C232.334 59.8124 232.915 55.2171 237.71 54.226C231.31 67.9105 243.939 75.0522 255.987 75.1039C257.864 75.1039 265.646 74.3173 265.646 74.3173C264.4 71.755 259.366 64.7499 263.018 61.9312C265.97 64.699 269.486 66.9028 272.677 69.363C296.108 87.5064 261.55 104.318 247.42 111.955C225.251 123.948 231.191 138.231 240.44 141.87C240.406 143.476 239.416 144.193 237.88 144.706C231.396 146.859 225.32 142.228 220.149 139.256C220.456 148.209 219.842 156.819 229.74 161.739L222.93 164.216C228.784 168.676 230.576 171.033 237.624 171.956C234.331 173.562 230.252 173.527 226.753 173.853C227.641 176.329 228.358 179.696 230.201 181.916C215.781 183.625 209.995 175.39 205.524 175.715C196.001 176.432 196.598 194.371 220.03 194.406L217.606 198.42C217.606 198.42 222.043 201.017 226.123 201.512C224.569 202.777 223.067 204.485 221.754 205.783L225.491 209.012C215.917 210.72 213.22 200.538 207.008 205.441C197.537 212.959 218.408 228.797 238.409 226.438C236.737 228.591 232.027 231.769 230.013 233.409C246.311 248.82 238.273 263.341 244.98 273.986C230.918 273.062 220.508 262.726 218.067 251.57Z" fill="black"/>
<path fill-rule="evenodd" clip-rule="evenodd" d="M192.351 195.295C195.747 198.831 199.843 199.207 207.607 198.711C199.058 197.669 194.263 195.584 191.276 189.913C190.849 186.975 190.56 183.83 190.44 180.482C190.167 171.478 193.136 160.749 199.348 148.995C199.314 156.358 205.133 167.941 218.154 169.872C206.448 164.747 199.57 153.215 203.324 142.059C205.765 138.163 208.513 134.131 211.584 130.049C213.12 128.084 214.622 126.17 216.089 124.41C214.519 130.099 221.397 135.977 226.004 136.967C223.513 134.524 218.154 126.614 230.527 113.374C227.079 115.014 223.257 117.32 220.356 119.575C242.815 95.2812 261.296 94.5979 269.778 82.3657C257.49 90.7715 224.947 95.3154 210.321 91.3341C218.393 96.733 237.831 96.2375 242.592 95.2296C226.756 110.657 192.146 126.598 186.14 140.778C194.569 131.518 200.03 129.827 207.334 127.451C201.584 136.045 196.413 143.596 192.846 152.361C183.63 172.383 171.309 172.64 170.507 189.144C174.706 176.347 183.238 173.102 189.143 164.696C188.102 170.061 187.607 176.006 187.794 182.874C187.999 190.34 189.501 196.9 191.873 202.777C191.276 210.944 191.993 224.884 201.345 234.094C194.996 226.047 193.631 212.96 194.194 207.852C201.516 221.98 222.387 241.525 232.473 254.646C222.387 237.784 197.658 218.068 192.351 195.295Z" fill="black"/>
<path fill-rule="evenodd" clip-rule="evenodd" d="M423.368 127.45C430.621 129.842 436.1 131.534 444.53 140.793C438.557 126.613 403.896 110.673 388.059 95.2463C392.821 96.2368 412.275 96.7498 420.331 91.3509C405.723 95.3315 373.179 90.7869 360.874 82.3811C369.373 94.614 387.838 95.2973 410.313 119.591C407.429 117.336 403.606 115.03 400.142 113.39C412.498 126.631 407.156 134.558 404.648 137.001C409.255 136.01 416.133 130.133 414.562 124.443C416.047 126.203 417.549 128.117 419.085 130.081C422.173 134.182 424.904 138.196 427.345 142.092C431.099 153.266 424.205 164.797 412.532 169.906C425.553 167.992 431.389 156.391 431.322 149.028C437.55 160.782 440.52 171.512 440.246 180.515C440.127 183.863 439.837 186.99 439.393 189.946C436.39 195.617 431.594 197.702 423.061 198.744C430.844 199.222 434.922 198.864 438.335 195.328C433.027 218.101 408.299 237.817 398.196 254.696C408.299 241.575 429.137 222.031 436.492 207.901C437.055 213.01 435.69 226.096 429.342 234.144C438.693 224.935 439.41 210.994 438.813 202.827C441.168 196.95 442.652 190.39 442.892 182.924C443.113 176.056 442.584 170.093 441.56 164.746C447.482 173.151 455.998 176.398 460.213 189.194C459.411 172.673 447.09 172.417 437.857 152.394C434.273 143.578 429.119 136.027 423.368 127.45Z" fill="black"/>
<path fill-rule="evenodd" clip-rule="evenodd" d="M463.438 164.916C470.691 166.061 476.392 166.061 479.105 158.8C452.448 146.089 452.671 119.42 422.037 105.445C438.881 92.9388 434.343 81.2015 426.509 69.3623C418.232 84.0207 403.966 86.0197 395.211 81.2532C407.532 76.7596 412.191 61.5205 419.666 57.0785C414.989 52.0553 409.017 51.8846 402.071 56.6339C398.317 46.5198 385.927 49.8514 384.067 49.8514C387.309 53.0973 390.381 57.3517 389.801 61.9136C388.521 72.0621 372.053 70.4212 372.053 70.4212C375.381 63.5704 373.895 59.4874 366.506 55.9676C364.254 61.418 346.574 68.7641 345.413 79.5271C343.639 96.3555 363.553 106.572 381.029 116.055C400.262 126.459 393.214 137.803 386.234 138.162C382.36 150.121 397.173 152.274 405.603 147.421C405.569 149.011 404.495 158.612 391.576 159.398C392.668 163.191 394.801 164.42 398.181 165.668C395.655 167.565 388.282 167.838 384.391 167.838C384.851 173.031 390.501 177.217 397.566 177.918C397.002 179.49 393.863 182.018 391.046 182.804C398.675 190.406 419.188 185.401 423.352 181.027C425.263 179.012 427.602 181.864 425.314 184.905C422.959 188.014 412.652 191.5 404.29 188.919C403.334 193.602 404.938 195.378 406.252 196.643C406.252 196.643 398.078 197.462 395.961 198.607C396.764 202.127 400.723 204.159 402.105 205.543C400.705 206.739 399.05 209.541 398.453 211.694C402.207 213.505 412.413 216.324 417.891 210.07C420.109 207.593 422.533 209.165 420.263 212.326C412.208 223.431 392.941 223.602 386.132 220.133C385.944 228.83 389.698 230.624 394.221 234.211C380.295 250.254 389.494 264.52 379.646 278.563C398.197 278.563 409.802 268.432 413.045 258.95C413.42 262.315 415.194 265.254 420.126 266.262C419.751 262.725 420.843 259.137 422.652 255.516C426.407 258.54 433.25 259.24 442.209 259.616C432.055 242.361 460.794 224.661 449.394 201.136C447.705 197.599 452.653 195.344 453.131 198.949C455.793 219.125 467.637 223.67 477.62 217.383C474.617 214.103 473.371 214.171 471.46 211.181C478.184 212.975 481.597 208.089 483.32 201.972C465.163 195.583 474.975 179.899 463.438 164.916ZM464.975 204.963C465.334 205.543 466.272 212.172 468.814 215.367C455.555 214.512 461.698 186.562 448.438 193.294C444.701 195.173 443.592 199.581 445.315 203.186C453.984 221.159 434.223 236.997 435.332 252.748C430.451 252.715 425.382 252.577 422.226 245.999C420.604 249.28 417.993 253.893 416.577 258.335L412.618 251.587C410.16 262.759 399.749 273.079 385.722 274.018C392.395 263.392 384.373 248.869 400.688 233.442C398.641 231.802 393.947 228.625 392.259 226.472C412.276 228.83 433.13 212.993 423.659 205.475C417.465 200.572 414.733 210.754 405.194 209.045L408.931 205.817C407.617 204.519 406.098 202.827 404.545 201.546C408.624 201.05 413.061 198.453 413.061 198.453L410.638 194.438C434.069 194.404 434.632 176.465 425.161 175.748C420.706 175.423 414.904 183.675 400.484 181.95C402.31 179.728 403.061 176.363 403.948 173.886C400.467 173.561 396.354 173.595 393.078 171.989C400.125 171.084 401.9 168.709 407.754 164.267L400.962 161.773C410.842 156.835 410.212 148.242 410.518 139.29C405.365 142.263 399.255 146.875 392.821 144.74C391.285 144.227 390.279 143.509 390.245 141.903C399.511 138.247 405.416 123.982 383.265 111.988C369.152 104.352 334.576 87.5399 357.991 69.4133C361.199 66.9536 364.68 64.7322 367.615 61.9819C371.284 64.8006 366.268 71.8053 365.021 74.3682C365.021 74.3682 372.804 75.1535 374.646 75.1535C386.712 75.1025 399.357 67.9614 392.958 54.2592C397.754 55.2503 398.317 59.8805 399.784 63.8269C402.856 61.7421 408.181 57.2835 412.327 57.9156C408.966 68.628 394.92 78.2805 383.981 80.4666C395.022 86.4811 415.501 90.9573 426.27 78.0069C433.813 92.6485 423.301 98.7649 412.976 106.436C452.296 124.375 446.476 144.535 472.279 160.389C468.951 161.96 454.002 158.8 452.671 158.612C458.302 165.873 460.931 168.948 462.534 172.485C464.105 175.799 464.788 179.524 466.34 187.604C467.569 193.977 469.804 200.332 477.518 204.553C474.498 210.003 467.774 205.697 464.975 204.963Z" fill="black"/>
<path fill-rule="evenodd" clip-rule="evenodd" d="M277.746 249.06L283.361 244.293L282.507 242.585C281.893 241.355 282.217 241.286 282.866 240.808L285.836 238.604C286.517 238.04 287.235 238.108 288.071 238.314L296.961 240.398H287.576C285.408 240.534 284.778 241.372 283.992 242.978L283.344 244.293L280.938 249.248C280.118 250.956 279.691 253.228 281.842 255.79L283.548 257.824L280.101 264.812H283.002L285.391 259.96C285.579 259.789 289.112 256.56 289.862 253.228C288.838 252.391 288.122 251.81 288.686 250.648L289.76 248.325C290.119 247.556 290.238 247.249 291.262 247.436L300.58 249.453C301.741 249.777 303.447 250.29 304.692 248.41C305.973 246.463 306.143 246.668 309.112 246.958L313.874 247.471C320.376 248.086 326.878 246.463 329.404 244.447C330.291 246.463 332.049 248.018 332.868 249.59C333.175 250.17 332.663 250.99 332.271 252.015L326.929 264.794H335.172L339.831 253.143C340.258 252.033 340.888 251.144 341.366 250.7L338.687 264.812H346.691L348.807 250.854C349.268 247.744 348.995 246.754 347.511 245.471C344.183 242.653 344.25 236.742 343.176 233.153C343.739 232.83 344.404 232.658 345.19 232.761C346.93 232.915 348.244 237.374 350.292 240.244C354.387 246.001 359.968 252.357 366.368 243.404C365.753 242.38 365.088 241.457 364.303 240.568L362.512 238.467C361.47 237.306 356.521 231.633 354.456 229.601C349.763 224.868 342.561 225.586 339.694 227.892C333.192 224.475 326.332 228.063 324.711 227.926L313.516 227.242C313.004 227.208 312.236 227.038 311.69 226.167L313.772 225.483C311.827 217.368 306.929 210.585 298.379 209.407C298.379 209.407 297.884 206.844 296.569 206.348L294.01 209.355C293.293 209.458 292.508 209.68 291.859 209.953L280.938 205.887L289.129 214.173C289.129 214.173 284.879 220.204 283.668 221.434C282.866 222.562 282.935 223.433 283.839 224.509L285.426 226.594C286.245 227.67 287.149 227.636 288.463 226.969L290.255 226.03C291.041 225.38 293.668 226.662 294.795 225.637C294.077 227.995 293.72 230.267 293.549 232.061L286.194 231.172C284.589 230.95 283.856 231.172 282.883 231.941L276.603 236.776C274.555 238.348 273.923 241.064 275.187 243.713L277.746 249.06ZM338.499 250.443L333.517 262.745H330.41L335.394 250.836C335.906 249.299 334.933 248.581 333.687 246.907C335.531 247.949 336.862 248.633 339.097 249.487C338.909 249.828 338.67 250.016 338.499 250.443ZM290.443 223.808L289.027 224.561C288.037 225.125 287.542 225.38 286.688 224.321L286.074 223.535C285.767 223.16 285.665 222.254 286.296 221.536L292.405 214.413L286.774 209.782L293.941 212.43L296.569 209.15C297.337 209.8 297.064 211.695 297.064 211.695C299.965 211.695 308.413 215.899 308.737 226.423C308.737 226.423 310.648 229.241 313.089 229.395L325.53 230.147C327.595 230.147 332.749 226.218 339.37 229.925C341.043 228.917 342.834 228.114 344.678 227.909C350.513 227.482 354.815 231.548 358.006 235.648C360.343 238.621 363.552 243.165 363.552 243.165C362.17 244.806 360.821 245.352 359.679 244.942C357.955 244.054 357.391 242.67 356.845 240.74C355.975 237.681 352.613 235.067 352.613 235.067C353.757 237.117 353.995 239.442 354.541 241.577C349.678 236.759 348.756 230.882 345.36 230.062C343.858 229.685 342.101 230.335 340.479 232.214C342.186 236.195 342.101 240.808 343.858 243.9C345.19 246.206 345.479 246.411 346.077 246.924C347.511 247.949 346.708 249.811 346.487 251.161L344.644 262.727H341.537L343.585 251.417C344.217 247.966 334.541 247.966 329.591 241.389C325.376 246.326 313.55 245.096 308.43 244.327C306.365 244.02 304.351 244.156 303.225 246.19C302.56 247.334 301.45 246.992 300.768 246.822L291.433 244.806C289.794 244.429 289.078 244.755 288.361 246.258L286.501 250.119C286.091 251.025 286.109 251.691 286.859 252.425L287.747 253.365C287.218 255.21 285.528 256.628 285.528 256.628L283.497 254.339C282.507 253.177 282.457 251.503 283.241 249.862L286.262 243.541C286.62 242.841 287.269 242.089 288.531 242.089L300.068 241.918L296.535 236.16C293.907 231.838 298.276 224.133 297.61 220.494C297.252 225.363 291.364 223.142 290.443 223.808ZM277.917 238.33L283.378 234.161C284.351 233.427 284.999 232.949 286.109 233.085L293.822 234.11C294.248 235.956 295.478 237.766 295.478 237.766L287.269 236.041C286.109 235.905 285.767 235.956 284.675 236.742L280.784 239.68C280.016 240.278 279.982 241.235 280.426 242.175L281.057 243.524L278.344 245.574L277.302 243.627C276.244 241.559 276.177 239.663 277.917 238.33Z" fill="black"/>
<path fill-rule="evenodd" clip-rule="evenodd" d="M301.708 90.0198C304.695 92.0872 309.985 94.2907 309.985 94.2907V90.7708L298.329 86.3121C298.329 86.3121 298.329 87.7478 301.708 90.0198Z" fill="black"/>
<path fill-rule="evenodd" clip-rule="evenodd" d="M309.966 85.781V82.2624L296.741 77.5294C296.741 77.5294 298.311 79.2039 301.69 81.51C304.676 83.5607 309.966 85.781 309.966 85.781Z" fill="black"/>
<path fill-rule="evenodd" clip-rule="evenodd" d="M309.969 77.7862V74.2502L295.48 68.9197C295.48 68.9197 298.313 71.2091 301.692 73.5152C304.679 75.5827 309.969 77.7862 309.969 77.7862Z" fill="black"/>
<path fill-rule="evenodd" clip-rule="evenodd" d="M350.667 125.845H365.481C364.866 123.691 362.562 121.522 358.244 121.522C354.149 121.522 351.692 123.88 350.667 125.845Z" fill="black"/>
<path fill-rule="evenodd" clip-rule="evenodd" d="M335.177 68.9197L320.722 74.2502V77.7862C320.722 77.7862 326.012 75.5827 328.999 73.5152C332.361 71.2091 335.177 68.9197 335.177 68.9197Z" fill="black"/>
<path fill-rule="evenodd" clip-rule="evenodd" d="M332.361 86.3121L320.722 90.7883V94.3075C320.722 94.3075 326.012 92.0872 328.999 90.0365C332.361 87.7478 332.361 86.3121 332.361 86.3121Z" fill="black"/>
<path fill-rule="evenodd" clip-rule="evenodd" d="M333.925 77.5294L320.699 82.2624V85.781C320.699 85.781 326.006 83.5774 328.976 81.5274C332.355 79.2038 333.925 77.5294 333.925 77.5294Z" fill="black"/>
<path fill-rule="evenodd" clip-rule="evenodd" d="M272.407 121.522C268.089 121.522 265.785 123.691 265.171 125.845H280.001C278.943 123.88 276.52 121.522 272.407 121.522Z" fill="black"/>
<path fill-rule="evenodd" clip-rule="evenodd" d="M344.765 59.4197C344.765 51.0829 330.771 43.6167 315.326 43.6167C299.882 43.6167 285.889 51.0829 285.889 59.4197L286.212 61.4702L292.356 96.8866L263.174 113.92C260.068 115.748 256.177 120.77 255.682 125.828H261.006C261.894 120.77 265.87 115.167 273.328 115.509C280.069 115.867 284.062 119.968 288.021 125.828L289.045 127.365L290.513 129.672H247.593C250.75 136.01 253.737 142.741 253.737 150.037V239.372C253.737 262.351 271.366 273.302 290.462 273.302C305.207 273.302 307.203 272.636 315.344 280.785C323.449 272.636 325.447 273.302 340.225 273.302C359.304 273.302 376.951 262.351 376.951 239.372V150.054C376.951 142.759 379.937 136.027 383.094 129.688H340.14L341.624 127.382L342.648 125.845C346.591 119.985 350.601 115.884 357.342 115.526C364.765 115.184 368.776 120.788 369.646 125.845H374.953C374.476 120.788 370.567 115.748 367.479 113.937L338.297 96.9034L344.457 61.487L344.765 59.4197ZM291.861 63.4859L313.637 70.9006V105.018L297.595 96.5795L291.861 63.4859ZM297.22 135.874C300.087 139.803 304.729 142.707 310.223 143.834C310.685 145.902 311.811 148.174 313.995 150.003C313.091 156.102 315.702 161.791 322.255 163.294C322.937 166.403 324.866 168.744 328.091 169.855L323.535 175.117C321.794 177.133 319.525 177.782 317.647 177.543L297.305 175.236C298.192 172.981 295.837 170.367 289.403 171.477L297.408 149.097L292.526 138.727L283.277 146.62L282.594 170.094L278.67 168.163C273.498 165.942 271.997 175.287 276.911 175.321L278.857 175.339C278.738 176.296 279.028 177.354 279.778 177.679C278.857 178.073 278.584 179.815 279.744 180.43C278.567 180.977 278.413 182.753 279.352 183.522C278.328 185.248 278.175 188.989 281.741 189.929C284.66 190.698 286.485 187.554 287.082 185.726L318.722 195.533C323.21 196.814 326.385 196.097 330.105 192.834L338.365 185.607C337.324 190.339 339.031 194.593 342.632 196.011C342.632 196.011 342.12 200.265 342.273 202.162H259.897V150.054C259.897 145.202 258.498 140.349 256.826 135.874H297.22ZM331.249 155.64C329.507 158.972 329.678 162.799 331.727 166.267L330.361 167.599C324.423 166.864 322.085 157.998 322.085 157.998C321.965 158.801 321.897 159.57 321.914 160.356C318.449 159.074 316.265 156 316.436 151.779C317.75 152.514 319.218 153.027 320.787 153.3L321.198 150.703C317.05 149.985 314.627 147.389 313.705 144.313C313.5 144.296 313.33 144.245 313.142 144.228C313.876 144.279 314.609 144.347 315.361 144.347C317.818 144.347 320.156 143.971 322.34 143.322C324.064 145.783 327.119 147.542 330.19 147.884C329.696 149.934 329.934 152.48 331.249 155.64ZM340.038 179.08C339.44 179.883 338.962 180.806 338.655 181.814L335.344 184.855C336.01 180.003 332.751 174.279 329.781 171.939L333.297 168.488L333.996 169.205C332.818 172.298 335.123 178.363 340.038 179.08ZM324.047 177.56L326.778 174.877C329.542 177.304 333.194 182.719 332.051 187.879L329.081 190.613C328.467 191.21 327.836 191.637 327.187 192.03C329.047 187.434 326.675 180.362 324.047 177.56ZM318.176 179.832H318.262C319.252 179.986 320.309 179.815 321.265 179.422C323.347 182.395 324.969 189.16 322.477 193.38C321.061 193.414 319.678 193.158 318.381 192.783L317.357 192.474C319.456 189.212 319.166 183.437 318.176 179.832ZM311.299 178.978L315.139 179.456C315.753 182.651 315.344 188.169 313.312 191.313L308.841 190.015C310.804 187.35 311.725 181.866 311.299 178.978ZM303.295 178.004L307.954 178.551C308.415 181.113 307.545 186.563 305.787 189.16L301.042 187.794C302.936 185.282 303.619 180.857 303.295 178.004ZM284.438 176.756C282.27 177.457 281.315 175.885 281.4 174.553C285.649 172.998 287.543 174.006 288.789 174.792C289.933 175.51 290.889 177.56 292.424 178.841C292.169 180.583 291.64 183.112 291.008 184.804C286.656 183.693 286.434 179.849 288.056 177.509C287.151 176.449 286.196 176.176 284.438 176.756ZM281.4 185.248C281.4 185.248 282.696 185.795 284.335 185.915C284.148 186.82 283.448 187.674 282.339 187.434C281.417 187.23 281.008 186.102 281.4 185.248ZM277.116 172.776C276.041 172.059 276.519 170.487 277.714 170.487C279.028 170.521 280.768 172.007 282.492 172.742C282.492 172.742 277.969 173.357 277.116 172.776ZM281.537 181.831C282.475 182.737 285.291 182.395 285.291 182.395L285.393 182.959C284.164 184.598 280.752 183.864 281.537 181.831ZM285.325 179.969C283.311 180.772 281.246 179.678 281.878 178.38C282.816 179.234 285.428 178.807 285.428 178.807L285.325 179.969ZM288.295 156.512L284.438 170.572L285.752 147.884L291.724 142.776L294.762 149.456L287.082 171.495L289.114 156.665C289.301 155.606 288.465 155.487 288.295 156.512ZM288.568 173.562C288.568 173.562 292.868 173.357 294.08 173.818C294.967 174.194 294.37 175.697 293.209 175.527C291.998 175.373 288.568 173.562 288.568 173.562ZM295.309 176.979L299.984 177.56C300.343 180.122 299.677 184.462 298.004 186.888L293.482 185.573C294.677 182.719 294.967 180.038 295.309 176.979ZM370.79 239.389C370.79 250.254 365.772 258.507 357.428 263.085L360.414 257.003H357.512L353.673 264.794C349.697 266.297 345.191 267.134 340.208 267.134C324.986 267.134 320.958 267.749 315.326 273.37C309.677 267.749 305.651 267.134 290.445 267.134C285.495 267.134 280.991 266.331 277.031 264.828H277.134L280.973 257.003H278.089L274.728 263.854C273.925 263.478 273.14 263.068 272.389 262.624L275.154 257.003H272.287L270.239 261.189C263.719 256.388 259.88 248.871 259.88 239.389V205.219H370.756V239.389H370.79ZM373.878 135.874C372.155 140.349 370.772 145.202 370.772 150.054V202.162H364.714C361.967 199.497 359.646 190.613 359.646 190.613C358.144 193.807 359.867 200.282 361.472 202.162H353.673C351.745 199.548 350.072 190.288 350.072 190.288C347.735 192.953 349.219 200.146 350.669 202.162H345.481C345.157 198.455 346.215 194.422 346.215 194.422C343.502 193.927 340.618 192.492 340.634 189.485C342 190.766 342.563 190.749 344.457 190.715L346.659 188.972C339.355 189.212 339.014 181.182 344.816 177.423C339.031 177.611 334.713 174.16 336.812 168.009C332.7 165.873 331.249 158.904 334.286 155.845C332.085 153.453 331.727 148.755 333.126 145.561C330.208 145.561 326.931 144.398 325.105 142.399C324.969 142.468 324.798 142.519 324.644 142.57C328.296 141.084 331.385 138.761 333.467 135.891H373.878V135.874ZM351.795 110.793C345.789 111.836 340.618 119.198 336.385 125.845L335.907 126.613H331.385L331.369 127.4C330.907 132.524 326.044 139.478 315.326 139.478C310.378 139.478 306.641 137.957 304.08 135.891C301.862 134.079 300.462 131.842 299.78 129.706C299.524 128.937 299.37 128.151 299.302 127.4L299.268 126.613H294.779L294.301 125.845C290.052 119.216 284.881 111.852 278.891 110.793L295.257 101.277L315.361 112.212L335.429 101.277L351.795 110.793ZM333.058 96.5795L317.033 105.018V70.9006L338.809 63.4859L333.058 96.5795ZM315.344 67.1762L291.537 57.7629C293.551 52.9787 302.885 48.8957 315.344 48.8957C327.784 48.8957 337.102 52.9787 339.116 57.7629L315.344 67.1762Z" fill="black"/>
<path fill-rule="evenodd" clip-rule="evenodd" d="M368.246 169.547L368.297 166.932C360.293 166.744 358.451 157.297 358.451 157.297C356.112 164.25 362.222 169.444 368.246 169.547Z" fill="black"/>
<path fill-rule="evenodd" clip-rule="evenodd" d="M358.142 185.554L357.341 183.078C350.515 184.82 346.983 173.989 346.983 173.989C344.798 181.865 352.409 187.435 358.142 185.554Z" fill="black"/>
<path fill-rule="evenodd" clip-rule="evenodd" d="M362.888 175.509C354.731 176.807 351.386 167.309 351.386 167.309C350.482 172.485 353.827 177.73 359.237 178.277C358.008 185.026 364.271 188.493 369.697 186.084L368.913 183.727C364.202 185.316 359.783 180.651 362.888 175.509Z" fill="black"/>
<path fill-rule="evenodd" clip-rule="evenodd" d="M358.006 148.396L358.074 145.783C347.306 143.562 348.21 136.147 348.21 136.147C345.889 143.134 351.998 148.295 358.006 148.396Z" fill="black"/>
<path fill-rule="evenodd" clip-rule="evenodd" d="M289.778 257.003L285.921 264.828H288.822L292.662 257.003H289.778Z" fill="black"/>
<path fill-rule="evenodd" clip-rule="evenodd" d="M295.598 257.003L291.758 264.828H294.676L298.482 257.003H295.598Z" fill="black"/>
<path fill-rule="evenodd" clip-rule="evenodd" d="M318.91 257.003L315.07 264.828H317.954L321.811 257.003H318.91Z" fill="black"/>
<path fill-rule="evenodd" clip-rule="evenodd" d="M324.745 257.003L320.871 264.828H323.789L327.611 257.003H324.745Z" fill="black"/>
<path fill-rule="evenodd" clip-rule="evenodd" d="M313.089 257.003L309.233 264.828H312.133L315.973 257.003H313.089Z" fill="black"/>
<path fill-rule="evenodd" clip-rule="evenodd" d="M347.135 264.828H350.035L353.876 257.003H350.974L347.135 264.828Z" fill="black"/>
<path fill-rule="evenodd" clip-rule="evenodd" d="M301.435 257.003L297.595 264.828H300.496L304.336 257.003H301.435Z" fill="black"/>
<path fill-rule="evenodd" clip-rule="evenodd" d="M307.236 257.003L303.396 264.828H306.315L310.154 257.003H307.236Z" fill="black"/>
<path fill-rule="evenodd" clip-rule="evenodd" d="M294.062 214.942C293.533 214.942 293.072 215.454 293.072 216.121C293.072 216.77 293.533 217.299 294.062 217.299C294.608 217.299 295.086 216.77 295.086 216.121C295.069 215.454 294.608 214.942 294.062 214.942Z" fill="black"/>
<path fill-rule="evenodd" clip-rule="evenodd" d="M315.344 38.3379C327.29 38.3379 336.863 42.301 342.136 46.5555C342.136 46.5555 343.724 37.0562 349.066 28.7194L339.44 29.7956L334.406 19.0661L324.73 24.106L315.344 14.7782L305.958 24.106L296.247 19.0661L291.213 29.7956L281.587 28.7194C286.946 37.0562 288.516 46.5555 288.516 46.5555C293.807 42.301 303.397 38.3379 315.344 38.3379ZM292.868 34.0668L297.459 24.3283L305.958 28.856L315.344 19.579L324.73 28.856L333.229 24.3283L337.768 34.0668L343.417 33.1955C341.966 35.9117 340.874 38.2864 339.867 41.618C333.69 38.0132 324.508 35.2287 315.344 35.2287C306.145 35.2287 296.982 38.0132 290.803 41.618C289.779 38.2864 288.704 35.9117 287.237 33.1955L292.868 34.0668Z" fill="black"/>
<path fill-rule="evenodd" clip-rule="evenodd" d="M325.173 19.1517C326.571 19.2716 327.817 18.2121 327.937 16.8279C328.073 15.427 326.025 11.7029 326.025 11.7029C326.025 11.7029 322.97 15.0004 322.868 16.4013C322.732 17.7681 323.789 19.0151 325.173 19.1517Z" fill="black"/>
<path fill-rule="evenodd" clip-rule="evenodd" d="M340.939 24.8758C342.186 25.5414 343.704 25.0465 344.37 23.7989C345.052 22.5688 344.609 18.3492 344.609 18.3492C344.609 18.3492 340.547 20.1774 339.882 21.4243C339.233 22.6545 339.711 24.1921 340.939 24.8758Z" fill="black"/>
<path fill-rule="evenodd" clip-rule="evenodd" d="M305.498 19.1517C306.914 19.0151 307.955 17.7849 307.835 16.4013C307.699 15.0004 304.679 11.7029 304.679 11.7029C304.679 11.7029 302.647 15.4443 302.767 16.8279C302.87 18.2121 304.115 19.2716 305.498 19.1517Z" fill="black"/>
<path fill-rule="evenodd" clip-rule="evenodd" d="M289.745 24.8758C290.991 24.1921 291.452 22.6545 290.803 21.4243C290.154 20.1774 286.076 18.3492 286.076 18.3492C286.076 18.3492 285.65 22.5688 286.332 23.7989C286.963 25.0465 288.499 25.5414 289.745 24.8758Z" fill="black"/>
<path fill-rule="evenodd" clip-rule="evenodd" d="M478.918 111.665C482.28 110.469 484.873 107.257 486.17 104.285C477.621 103.055 454.906 93.5041 436.236 101.278C443.234 94.6321 449.514 93.7777 450.11 84.2105C453.012 86.2947 457.909 87.4735 460.675 82.5025C458.747 76.8125 453.882 81.4255 453.2 79.8537C452.244 77.6669 459.326 80.5202 460.845 73.123C455.333 71.2259 453.694 75.7362 452.705 74.6941C451.8 73.703 456.203 71.8066 452.961 65.8447C447.226 69.2101 450.213 72.9862 449.002 73.4126C447.534 73.994 448.694 69.3636 442.346 69.5863C441.714 76.4028 448.302 76.6248 447.226 77.7011C445.913 79.0168 444.206 73.7889 439.411 76.437C439.495 81.9385 443.95 84.9615 448.541 83.6633C447.79 94.1197 438.199 92.1717 431.065 103.96C446.186 111.717 453.029 125.247 462.33 134.61C465.402 132.423 470.658 122.719 470.658 122.719C480.726 130.527 487.808 122.753 487.808 122.753C484.345 119.2 484.208 116.5 478.918 111.665ZM464.241 113.561C465.282 115.868 467.347 123.915 462.415 130.049C456.801 118.824 449.087 109.205 442.84 105.054C441.475 104.165 443.592 102.611 447.449 102.098C459.07 99.8942 472.706 104.814 479.191 106.54C476.169 108.795 473.713 109.82 470.623 110.196C475.334 114.16 478.781 117.508 481.204 121.233C476.648 122.377 474.071 119.49 464.241 113.561Z" fill="black"/>
<path fill-rule="evenodd" clip-rule="evenodd" d="M367.155 288.063V275.284C357.291 279.811 344.747 283.484 328.604 284.937L327.87 289.498C329.235 289.686 330.976 289.857 333.297 290.011C327.324 290.831 319.593 291.224 315.361 291.224C311.111 291.224 303.398 290.831 297.408 290.011C299.711 289.857 301.452 289.686 302.817 289.498L302.084 284.937C285.94 283.484 273.379 279.811 263.532 275.284V288.063L250.153 293.564C260.069 298.724 271.468 302.927 284.643 306.327L283.072 311.674C290.616 313.896 302.681 316.15 315.326 316.15C327.973 316.15 340.02 313.878 347.58 311.674L346.028 306.327C359.185 302.927 370.62 298.724 380.534 293.564L367.155 288.063ZM257.303 293.854L266.332 290.216V279.811C272.134 282.049 279.745 284.373 290.667 286.645L285.547 303.337C274.403 300.774 264.932 297.323 257.303 293.854ZM315.344 313.092C305.155 313.092 295.207 311.571 286.708 309.47L292.118 291.958C295.701 292.796 304.677 293.889 315.344 293.889C326.027 293.889 334.952 292.779 338.553 291.958L343.98 309.47C335.447 311.571 325.515 313.092 315.344 313.092ZM345.157 303.337L340.038 286.645C350.96 284.39 358.571 282.049 364.374 279.811V290.216L373.384 293.854C365.756 297.323 356.318 300.774 345.157 303.337Z" fill="black"/>
<path fill-rule="evenodd" clip-rule="evenodd" d="M160.027 122.719C160.027 122.719 165.283 132.423 168.338 134.61C177.656 125.265 184.516 111.733 199.619 103.96C192.468 92.1717 182.878 94.1539 182.161 83.6633C186.751 84.9615 191.189 81.9211 191.291 76.437C186.478 73.7889 184.772 79.051 183.475 77.7011C182.4 76.5912 188.97 76.4028 188.356 69.5863C182.008 69.3811 183.168 73.994 181.683 73.4126C180.488 72.9862 183.475 69.1933 177.724 65.8447C174.499 71.824 178.919 73.703 177.997 74.6941C177.024 75.7362 175.351 71.2426 169.857 73.123C171.341 80.5202 178.458 77.6669 177.502 79.8537C176.819 81.4255 171.973 76.8125 170.061 82.5025C172.792 87.4903 177.707 86.3121 180.591 84.2272C181.205 93.8113 187.468 94.6146 194.482 101.278C175.795 93.5041 153.081 103.055 144.497 104.302C145.812 107.257 148.405 110.469 151.767 111.631C146.476 116.517 146.34 119.217 142.876 122.753C142.876 122.753 149.941 130.527 160.027 122.719ZM149.446 121.25C151.886 117.525 155.316 114.16 160.061 110.213C156.955 109.82 154.515 108.795 151.477 106.54C157.979 104.814 171.631 99.8767 183.27 102.098C187.093 102.611 189.243 104.165 187.844 105.054C181.598 109.205 173.867 118.824 168.252 130.049C163.338 123.915 165.419 115.885 166.427 113.579C156.613 119.49 154.054 122.377 149.446 121.25Z" fill="black"/>
<path fill-rule="evenodd" clip-rule="evenodd" d="M307.167 115.594V121.216C309.095 118.874 312.85 119.336 312.85 119.336V127.451C312.85 127.451 312.714 131.449 311.314 133.157H315.359H319.403C317.987 131.449 317.867 127.451 317.867 127.451V119.353C317.867 119.353 321.605 118.891 323.534 121.232V115.611H315.359H307.167V115.594Z" fill="black"/>
<path d="M43.264 453.446V411.009H68.2994V395.566H0V411.009H25.0345V453.446H43.264ZM93.2159 429.249V395.566H75.5946V453.446H91.1503L121.532 419.764V453.446H139.154V395.566H123.599L93.2159 429.249ZM198.438 431.924V453.446H216.059V395.566H198.438V416.724H170.121V395.566H152.5V453.446H170.121V431.924H198.438ZM265.134 453.446C269.145 453.446 272.791 453.082 276.193 452.109C285.308 449.555 291.263 442.138 291.263 432.045C291.263 422.439 286.159 415.751 278.016 412.711C274.128 411.252 269.51 411.13 265.134 411.13H247.027V395.566H229.405V453.446H265.134ZM262.096 424.75C264.527 424.75 266.835 424.75 268.901 425.479C271.818 426.452 273.52 428.883 273.52 431.802C273.52 434.842 271.818 437.395 269.023 438.612C267.078 439.463 265.134 439.463 262.096 439.463H247.027V424.75H262.096ZM322.858 431.558L343.883 453.446H367.338L338.05 423.29L366.244 395.566H344.126L322.858 417.333H317.997V395.566H300.375V453.446H317.997V431.558H322.858ZM403.597 393.985C379.9 393.985 365.681 407.361 365.681 424.628C365.681 441.894 379.9 455.27 403.597 455.27C427.174 455.27 441.393 441.894 441.393 424.628C441.393 407.361 427.174 393.985 403.597 393.985ZM403.597 441.165C391.81 441.165 384.275 434.112 384.275 424.628C384.275 415.143 391.81 408.212 403.597 408.212C415.264 408.212 422.92 415.143 422.92 424.628C422.92 434.112 415.264 441.165 403.597 441.165ZM500.079 392.283H482.458V398.12C460.34 398.606 447.093 407.969 447.093 424.507C447.093 441.043 460.34 449.677 482.458 450.163V456H500.079V450.163C522.319 449.677 535.566 441.043 535.566 424.507C535.566 407.969 522.319 398.606 500.079 398.12V392.283ZM482.458 437.761C470.305 437.274 464.957 432.288 464.957 424.507C464.957 416.724 470.305 411.13 482.458 410.644V437.761ZM500.079 410.644C512.354 411.13 517.579 416.724 517.579 424.507C517.579 432.288 512.354 437.274 500.079 437.761V410.644ZM594.193 392.283H576.571V398.12C554.453 398.606 541.207 407.969 541.207 424.507C541.207 441.043 554.453 449.677 576.571 450.163V456H594.193V450.163C616.43 449.677 629.68 441.043 629.68 424.507C629.68 407.969 616.43 398.606 594.193 398.12V392.283ZM576.571 437.761C564.418 437.274 559.071 432.288 559.071 424.507C559.071 416.724 564.418 411.13 576.571 410.644V437.761ZM594.193 410.644C606.469 411.13 611.693 416.724 611.693 424.507C611.693 432.288 606.469 437.274 594.193 437.761V410.644Z" fill="black"/>
</svg>
