<svg width="357" height="317" viewBox="0 0 357 317" fill="none" xmlns="http://www.w3.org/2000/svg">
<rect x="14.7484" y="156.049" width="268" height="15" rx="7.5" transform="rotate(-24.9219 14.7484 156.049)" fill="#D9D9D9"/>
<rect x="26.1257" y="180.534" width="295" height="15" rx="7.5" transform="rotate(-24.9219 26.1257 180.534)" fill="#D9D9D9"/>
<rect x="37.503" y="205.02" width="204" height="15" rx="7.5" transform="rotate(-24.9219 37.503 205.02)" fill="#D9D9D9"/>
<rect x="48.8803" y="229.506" width="268" height="15" rx="7.5" transform="rotate(-24.9219 48.8803 229.506)" fill="#D9D9D9"/>
<rect x="60.2576" y="253.992" width="154" height="15" rx="7.5" transform="rotate(-24.9219 60.2576 253.992)" fill="#D9D9D9"/>
<rect x="71.6349" y="278.478" width="244" height="15" rx="7.5" transform="rotate(-24.9219 71.6349 278.478)" fill="#D9D9D9"/>
<rect x="83.0122" y="302.964" width="295" height="15" rx="7.5" transform="rotate(-24.9219 83.0122 302.964)" fill="#D9D9D9"/>
<rect y="124.308" width="92" height="15" rx="7.5" transform="rotate(-24.9219 0 124.308)" fill="black"/>
<rect x="97.0365" y="79.2197" width="66" height="15" rx="7.5" transform="rotate(-24.9219 97.0365 79.2197)" fill="#FFE52B"/>
</svg>
