<svg width="129" height="128" viewBox="0 0 129 128" fill="none" xmlns="http://www.w3.org/2000/svg">
<mask id="mask0_38_63" style="mask-type:alpha" maskUnits="userSpaceOnUse" x="0" y="0" width="129" height="128">
<rect width="129" height="128" fill="#D9D9D9"/>
</mask>
<g mask="url(#mask0_38_63)">
<path d="M107.231 112C95.675 112 84.4108 109.444 73.4386 104.331C62.4629 99.2213 52.7431 92.4658 44.2792 84.064C35.8118 75.6658 29.0035 66.0213 23.8543 55.1307C18.7014 44.2436 16.125 33.0667 16.125 21.6C16.125 20 16.6625 18.6667 17.7375 17.6C18.8125 16.5333 20.1563 16 21.7688 16H43.5375C44.7917 16 45.9115 16.4 46.8969 17.2C47.8823 18 48.4646 19.0222 48.6437 20.2667L52.1375 38.9333C52.3167 40.1778 52.2952 41.3102 52.073 42.3307C51.8472 43.3547 51.3312 44.2667 50.525 45.0667L37.4906 58.1333C41.2531 64.5333 45.9795 70.5333 51.6699 76.1333C57.3566 81.7333 63.6042 86.5778 70.4125 90.6667L83.0437 78.1333C83.85 77.3333 84.9035 76.7324 86.2043 76.3307C87.5014 75.9324 88.7771 75.8222 90.0312 76L108.575 79.7333C109.829 80 110.859 80.5991 111.666 81.5307C112.472 82.4658 112.875 83.5556 112.875 84.8V106.4C112.875 108 112.338 109.333 111.263 110.4C110.188 111.467 108.844 112 107.231 112ZM32.3844 48L41.2531 39.2L38.9688 26.6667H27.0094C27.4573 30.3111 28.0844 33.9111 28.8906 37.4667C29.6969 41.0222 30.8615 44.5333 32.3844 48ZM102.125 101.067V89.3333L89.4938 86.8L80.4906 95.7333C83.9844 97.2445 87.5462 98.4445 91.1761 99.3333C94.8025 100.222 98.4521 100.8 102.125 101.067Z" fill="#FFE52B"/>
</g>
</svg>
