<svg width="129" height="128" viewBox="0 0 129 128" fill="none" xmlns="http://www.w3.org/2000/svg">
<mask id="mask0_38_58" style="mask-type:alpha" maskUnits="userSpaceOnUse" x="0" y="0" width="129" height="128">
<rect width="129" height="128" fill="#D9D9D9"/>
</mask>
<g mask="url(#mask0_38_58)">
<path d="M43 48V37.3334H86V48H43ZM37.625 122.667C34.6687 122.667 32.1389 121.623 30.0355 119.536C27.9285 117.445 26.875 114.933 26.875 112V16C26.875 13.0667 27.9285 10.5547 30.0355 8.46404C32.1389 6.37693 34.6687 5.33337 37.625 5.33337H91.375C94.3313 5.33337 96.8629 6.37693 98.9699 8.46404C101.073 10.5547 102.125 13.0667 102.125 16V112C102.125 114.933 101.073 117.445 98.9699 119.536C96.8629 121.623 94.3313 122.667 91.375 122.667H37.625ZM37.625 96H91.375V32H37.625V96ZM37.625 106.667V112H91.375V106.667H37.625ZM37.625 21.3334H91.375V16H37.625V21.3334Z" fill="#FFE52B"/>
</g>
</svg>
