<svg width="129" height="128" viewBox="0 0 129 128" fill="none" xmlns="http://www.w3.org/2000/svg">
<mask id="mask0_38_70" style="mask-type:alpha" maskUnits="userSpaceOnUse" x="0" y="0" width="129" height="128">
<rect width="129" height="128" fill="#D9D9D9"/>
</mask>
<g mask="url(#mask0_38_70)">
<path d="M82.2375 89.0666L89.7625 81.6L69.875 61.8666V37.3333H59.125V66.1333L82.2375 89.0666ZM64.5 117.333C57.0646 117.333 50.0771 115.932 43.5375 113.131C36.9979 110.332 31.3094 106.533 26.4719 101.733C21.6344 96.9333 17.8056 91.2888 14.9855 84.7999C12.1618 78.3111 10.75 71.3777 10.75 64C10.75 56.6222 12.1618 49.6888 14.9855 43.2C17.8056 36.7111 21.6344 31.0666 26.4719 26.2666C31.3094 21.4666 36.9979 17.6657 43.5375 14.864C50.0771 12.0657 57.0646 10.6666 64.5 10.6666C71.9354 10.6666 78.9229 12.0657 85.4625 14.864C92.0021 17.6657 97.6906 21.4666 102.528 26.2666C107.366 31.0666 111.194 36.7111 114.014 43.2C116.838 49.6888 118.25 56.6222 118.25 64C118.25 71.3777 116.838 78.3111 114.014 84.7999C111.194 91.2888 107.366 96.9333 102.528 101.733C97.6906 106.533 92.0021 110.332 85.4625 113.131C78.9229 115.932 71.9354 117.333 64.5 117.333ZM64.5 106.667C76.4146 106.667 86.5608 102.512 94.9386 94.2026C103.313 85.8897 107.5 75.8222 107.5 64C107.5 52.1777 103.313 42.1102 94.9386 33.7973C86.5608 25.488 76.4146 21.3333 64.5 21.3333C52.5854 21.3333 42.441 25.488 34.0667 33.7973C25.6889 42.1102 21.5 52.1777 21.5 64C21.5 75.8222 25.6889 85.8897 34.0667 94.2026C42.441 102.512 52.5854 106.667 64.5 106.667Z" fill="#FFE52B"/>
</g>
</svg>
