<svg width="36" height="36" viewBox="0 0 36 36" fill="none" xmlns="http://www.w3.org/2000/svg">
<mask id="mask0_38_1231" style="mask-type:alpha" maskUnits="userSpaceOnUse" x="0" y="0" width="36" height="36">
<rect x="36" width="36" height="36" transform="rotate(90 36 0)" fill="#D9D9D9"/>
</mask>
<g mask="url(#mask0_38_1231)">
<path d="M13.05 19.05L16.95 22.95C17.25 23.25 17.6 23.4 18 23.4C18.4 23.4 18.75 23.25 19.05 22.95L22.9875 19.0125C23.2625 18.7375 23.394 18.394 23.382 17.982C23.369 17.569 23.225 17.225 22.95 16.95C22.675 16.675 22.325 16.5375 21.9 16.5375C21.475 16.5375 21.125 16.675 20.85 16.95L19.5 18.3V13.4625C19.5 13.0375 19.3565 12.6875 19.0695 12.4125C18.7815 12.1375 18.425 12 18 12C17.575 12 17.219 12.144 16.932 12.432C16.644 12.719 16.5 13.075 16.5 13.5V18.3L15.1125 16.9125C14.8375 16.6375 14.4935 16.506 14.0805 16.518C13.6685 16.531 13.325 16.675 13.05 16.95C12.775 17.225 12.6375 17.575 12.6375 18C12.6375 18.425 12.775 18.775 13.05 19.05ZM3 18C3 15.925 3.394 13.975 4.182 12.15C4.969 10.325 6.0375 8.7375 7.3875 7.3875C8.7375 6.0375 10.325 4.969 12.15 4.182C13.975 3.394 15.925 3 18 3C20.075 3 22.025 3.394 23.85 4.182C25.675 4.969 27.2625 6.0375 28.6125 7.3875C29.9625 8.7375 31.0315 10.325 31.8195 12.15C32.6065 13.975 33 15.925 33 18C33 20.075 32.6065 22.025 31.8195 23.85C31.0315 25.675 29.9625 27.2625 28.6125 28.6125C27.2625 29.9625 25.675 31.031 23.85 31.818C22.025 32.606 20.075 33 18 33C15.925 33 13.975 32.606 12.15 31.818C10.325 31.031 8.7375 29.9625 7.3875 28.6125C6.0375 27.2625 4.969 25.675 4.182 23.85C3.394 22.025 3 20.075 3 18ZM6 18C6 21.325 7.1685 24.1565 9.5055 26.4945C11.8435 28.8315 14.675 30 18 30C21.325 30 24.1565 28.8315 26.4945 26.4945C28.8315 24.1565 30 21.325 30 18C30 14.675 28.8315 11.844 26.4945 9.507C24.1565 7.169 21.325 6 18 6C14.675 6 11.8435 7.169 9.5055 9.507C7.1685 11.844 6 14.675 6 18Z" fill="#0E58D2"/>
</g>
</svg>
