<svg width="36" height="36" viewBox="0 0 36 36" fill="none" xmlns="http://www.w3.org/2000/svg">
<mask id="mask0_38_1238" style="mask-type:alpha" maskUnits="userSpaceOnUse" x="0" y="0" width="36" height="36">
<rect width="36" height="36" fill="#D9D9D9"/>
</mask>
<g mask="url(#mask0_38_1238)">
<path d="M12 25.5H19.5C19.925 25.5 20.2815 25.356 20.5695 25.068C20.8565 24.781 21 24.425 21 24C21 23.575 20.8565 23.2185 20.5695 22.9305C20.2815 22.6435 19.925 22.5 19.5 22.5H12C11.575 22.5 11.2185 22.6435 10.9305 22.9305C10.6435 23.2185 10.5 23.575 10.5 24C10.5 24.425 10.6435 24.781 10.9305 25.068C11.2185 25.356 11.575 25.5 12 25.5ZM12 19.5H24C24.425 19.5 24.781 19.356 25.068 19.068C25.356 18.781 25.5 18.425 25.5 18C25.5 17.575 25.356 17.2185 25.068 16.9305C24.781 16.6435 24.425 16.5 24 16.5H12C11.575 16.5 11.2185 16.6435 10.9305 16.9305C10.6435 17.2185 10.5 17.575 10.5 18C10.5 18.425 10.6435 18.781 10.9305 19.068C11.2185 19.356 11.575 19.5 12 19.5ZM12 13.5H24C24.425 13.5 24.781 13.356 25.068 13.068C25.356 12.781 25.5 12.425 25.5 12C25.5 11.575 25.356 11.2185 25.068 10.9305C24.781 10.6435 24.425 10.5 24 10.5H12C11.575 10.5 11.2185 10.6435 10.9305 10.9305C10.6435 11.2185 10.5 11.575 10.5 12C10.5 12.425 10.6435 12.781 10.9305 13.068C11.2185 13.356 11.575 13.5 12 13.5ZM7.5 31.5C6.675 31.5 5.9685 31.2065 5.3805 30.6195C4.7935 30.0315 4.5 29.325 4.5 28.5V7.5C4.5 6.675 4.7935 5.9685 5.3805 5.3805C5.9685 4.7935 6.675 4.5 7.5 4.5H28.5C29.325 4.5 30.0315 4.7935 30.6195 5.3805C31.2065 5.9685 31.5 6.675 31.5 7.5V28.5C31.5 29.325 31.2065 30.0315 30.6195 30.6195C30.0315 31.2065 29.325 31.5 28.5 31.5H7.5ZM7.5 28.5H28.5V7.5H7.5V28.5Z" fill="#0E58D2"/>
</g>
</svg>
