<svg width="36" height="36" viewBox="0 0 36 36" fill="none" xmlns="http://www.w3.org/2000/svg">
<mask id="mask0_38_1225" style="mask-type:alpha" maskUnits="userSpaceOnUse" x="0" y="0" width="36" height="36">
<rect width="36" height="36" fill="#D9D9D9"/>
</mask>
<g mask="url(#mask0_38_1225)">
<path d="M19.05 22.95L22.95 19.05C23.25 18.75 23.4 18.4 23.4 18C23.4 17.6 23.25 17.25 22.95 16.95L19.0125 13.0125C18.7375 12.7375 18.394 12.606 17.982 12.618C17.569 12.631 17.225 12.775 16.95 13.05C16.675 13.325 16.5375 13.675 16.5375 14.1C16.5375 14.525 16.675 14.875 16.95 15.15L18.3 16.5H13.4625C13.0375 16.5 12.6875 16.6435 12.4125 16.9305C12.1375 17.2185 12 17.575 12 18C12 18.425 12.144 18.781 12.432 19.068C12.719 19.356 13.075 19.5 13.5 19.5H18.3L16.9125 20.8875C16.6375 21.1625 16.506 21.5065 16.518 21.9195C16.531 22.3315 16.675 22.675 16.95 22.95C17.225 23.225 17.575 23.3625 18 23.3625C18.425 23.3625 18.775 23.225 19.05 22.95ZM18 33C15.925 33 13.975 32.606 12.15 31.818C10.325 31.031 8.7375 29.9625 7.3875 28.6125C6.0375 27.2625 4.969 25.675 4.182 23.85C3.394 22.025 3 20.075 3 18C3 15.925 3.394 13.975 4.182 12.15C4.969 10.325 6.0375 8.7375 7.3875 7.3875C8.7375 6.0375 10.325 4.9685 12.15 4.1805C13.975 3.3935 15.925 3 18 3C20.075 3 22.025 3.3935 23.85 4.1805C25.675 4.9685 27.2625 6.0375 28.6125 7.3875C29.9625 8.7375 31.031 10.325 31.818 12.15C32.606 13.975 33 15.925 33 18C33 20.075 32.606 22.025 31.818 23.85C31.031 25.675 29.9625 27.2625 28.6125 28.6125C27.2625 29.9625 25.675 31.031 23.85 31.818C22.025 32.606 20.075 33 18 33ZM18 30C21.325 30 24.1565 28.8315 26.4945 26.4945C28.8315 24.1565 30 21.325 30 18C30 14.675 28.8315 11.8435 26.4945 9.5055C24.1565 7.1685 21.325 6 18 6C14.675 6 11.844 7.1685 9.507 9.5055C7.169 11.8435 6 14.675 6 18C6 21.325 7.169 24.1565 9.507 26.4945C11.844 28.8315 14.675 30 18 30Z" fill="#0E58D2"/>
</g>
</svg>
