<svg width="129" height="128" viewBox="0 0 129 128" fill="none" xmlns="http://www.w3.org/2000/svg">
<g clip-path="url(#clip0_22_221)">
<path fill-rule="evenodd" clip-rule="evenodd" d="M98.1369 0C116.636 0 128.636 12 128.636 30.5V97.4997C128.636 116 116.636 128 98.1369 128H31.1366C12.6366 128 0.636597 116 0.636597 97.4997V30.5C0.636597 12 12.6366 0 31.1366 0H98.1369Z" fill="url(#paint0_linear_22_221)"/>
<mask id="mask0_22_221" style="mask-type:alpha" maskUnits="userSpaceOnUse" x="0" y="0" width="129" height="128">
<path fill-rule="evenodd" clip-rule="evenodd" d="M98.1369 0C116.636 0 128.636 12 128.636 30.5V97.4997C128.636 116 116.636 128 98.1369 128H31.1366C12.6366 128 0.636597 116 0.636597 97.4997V30.5C0.636597 12 12.6366 0 31.1366 0H98.1369Z" fill="white"/>
</mask>
<g mask="url(#mask0_22_221)">
<path d="M128.812 0H0.811646V128H128.812V0Z" fill="url(#paint1_linear_22_221)"/>
<mask id="mask1_22_221" style="mask-type:alpha" maskUnits="userSpaceOnUse" x="0" y="0" width="129" height="128">
<path d="M128.812 0H0.811646V128H128.812V0Z" fill="white"/>
</mask>
<g mask="url(#mask1_22_221)">
<path opacity="0.5" fill-rule="evenodd" clip-rule="evenodd" d="M50.8866 97.3831H51.4199V128.316H50.8866V97.3831Z" fill="#CCCCCC"/>
<path opacity="0.5" d="M51.3866 0H50.8866V97.9996H51.3866V0Z" fill="white"/>
<path opacity="0.5" fill-rule="evenodd" clip-rule="evenodd" d="M25.3866 109.5H25.8866V128.25H25.3866V109.5Z" fill="#CCCCCC"/>
<path opacity="0.5" d="M25.8866 0H25.3866V110.25H25.8866V0Z" fill="white"/>
<path opacity="0.5" d="M77.3867 106.25H76.8867V128H77.3867V106.25Z" fill="#CCCCCC"/>
<path opacity="0.5" fill-rule="evenodd" clip-rule="evenodd" d="M76.8867 0H77.3866V105.25H76.8867V0Z" fill="white"/>
<path opacity="0.5" fill-rule="evenodd" clip-rule="evenodd" d="M103.137 93.75H103.637V128H103.137V93.75Z" fill="#CCCCCC"/>
<path opacity="0.5" fill-rule="evenodd" clip-rule="evenodd" d="M103.137 0H103.637V90.25H103.137V0Z" fill="white"/>
<path d="M104.607 47.1337L105.637 43.6146L102.03 43.718C101.722 43.718 99.5577 43.6146 97.3937 42.062C97.6 42.062 97.7031 42.062 97.9093 42.062C100.073 42.062 102.236 40.7165 103.061 38.8535L104.607 35.4379C102.649 35.4379 100.897 35.2309 100.897 35.2309C100.897 35.2309 99.4545 35.0239 97.9093 33.3678C96.7758 32.2293 95.3337 31.6083 93.7877 31.6083C93.0666 31.6083 92.5518 31.7118 92.0362 31.9188C92.1393 31.6083 92.2425 31.4013 92.2425 31.0908C92.7573 27.8822 90.6972 25.3982 90.6972 25.3982L88.0177 22.0861L86.3694 26.0192C86.3694 26.0192 85.9576 26.9508 85.2359 27.3648C85.0304 26.2262 84.4117 24.8807 83.2789 23.6387C81.0119 21.2581 78.3331 20.9476 76.8903 20.9476C76.2723 20.9476 75.7575 21.0511 75.6544 21.0511L72.3569 21.6721C72.5632 20.9476 72.9756 19.7056 73.6967 18.567L75.4481 15.7725L70.8117 16.29L69.3693 13.1849L66.5874 14.634L64.0116 12.1499L61.5388 14.7375L58.7569 13.2885L57.3145 16.3935L52.7811 15.876L54.5327 18.6706C55.2539 19.8091 55.666 21.0511 55.872 21.7756L52.7811 21.1546H52.6781C52.472 21.1546 52.0598 21.0511 51.3386 21.0511C49.8962 21.0511 47.2173 21.3616 44.9506 23.7422C43.7142 24.9842 43.1991 26.3297 42.993 27.4682C42.2718 27.0542 41.8597 26.1227 41.8597 26.1227L40.2112 22.1897L37.4293 25.6052C37.1202 26.0192 35.4717 28.2962 35.8838 31.1943C35.8838 31.5049 35.9868 31.7118 36.0898 32.0223C35.5747 31.8153 34.9566 31.7118 34.3383 31.7118C32.7929 31.7118 31.3504 32.3328 30.2171 33.4714C28.5685 35.1274 27.2291 35.3344 27.2291 35.3344C27.2291 35.3344 25.7866 35.6449 23.52 35.5414L25.0654 38.9569C25.8897 40.82 28.0534 42.1655 30.2171 42.1655C30.4231 42.1655 30.5261 42.1655 30.7322 42.1655C28.5685 43.718 26.4049 43.8216 26.0958 43.8216L22.3866 43.6146L23.52 47.1337C24.0351 48.8932 25.8897 51.8948 29.4958 52.2052C29.0837 53.8613 28.2595 55.6208 26.4049 56.4489L23.726 57.5873L25.1685 60.1749C25.9927 61.5204 27.9503 63.1765 30.7322 63.1765C31.3504 63.1765 31.9686 63.0729 32.4837 62.9695C32.5868 63.5905 32.7929 64.2115 32.9989 64.8325C33.8232 67.3166 33.102 69.0761 33.102 69.0761L31.7625 71.8705L34.7505 72.699C34.7505 72.699 35.6778 73.009 36.8111 73.009C37.3263 73.009 37.8414 72.9059 38.2535 72.8021C38.5627 72.699 38.9748 72.5951 39.2839 72.4913C39.696 73.2159 40.1081 73.8374 40.7263 74.3544C42.6839 76.3214 45.3627 77.356 48.7628 77.356H51.2356L46.1871 79.4261L49.9992 81.2892C51.4417 82.0138 53.0902 82.7384 54.7387 83.3592L54.2235 84.7046L55.563 85.3261C55.666 85.4293 58.2418 86.5678 62.4661 86.7747C62.4661 86.7747 63.4964 86.7747 64.0116 86.7747C64.5268 86.7747 65.5571 86.7747 65.5571 86.7747C69.7814 86.5678 72.3569 85.4293 72.4601 85.3261L73.7998 84.7046L73.2842 83.3592C75.0357 82.7384 76.7879 81.9107 78.1269 81.1861L81.9392 79.323L76.8903 77.2529H79.3635C82.7633 77.2529 85.5452 76.2175 87.3998 74.2513C87.9153 73.7336 88.4302 73.009 88.8426 72.3882C89.1512 72.4913 89.4606 72.5951 89.8723 72.699C90.2848 72.8021 90.7996 72.9059 91.3152 72.9059C92.4487 72.9059 93.376 72.699 93.376 72.699L96.364 71.8705L95.0243 69.0761C95.0243 68.9726 94.3032 67.3166 95.1274 64.8325C95.3336 64.2115 95.5392 63.5905 95.6423 62.9695C96.1578 63.0729 96.7758 63.1765 97.3937 63.1765C101 63.1765 102.649 60.6924 102.957 60.0714L104.4 57.4838L101.722 56.3453C99.867 55.5173 98.9397 53.7578 98.6304 52.1018C102.133 51.8948 104.091 48.8932 104.607 47.1337Z" fill="white"/>
<path d="M64.2278 22.9966C61.3148 22.9966 59.13 23.949 58.7139 25.113L64.2278 27.3353L69.7418 25.113C69.3256 23.949 67.1409 22.9966 64.2278 22.9966Z" fill="white"/>
<path d="M64.0066 80.342H63.9035C62.1504 80.342 59.7785 80.0313 58.6441 79.616L57.2003 83.4545C58.1285 83.766 61.2222 84.3889 63.9035 84.3889C66.5849 84.3889 69.7818 83.766 70.6068 83.4545L69.2661 79.616C68.1317 80.0313 65.7598 80.342 64.0066 80.342Z" fill="white"/>
<path d="M74.8829 76.7957C73.8361 77.4193 71.5342 78.2513 70.1743 78.6673L71.3252 81.7855C73.418 81.1619 75.1965 80.5382 76.6614 79.8101L74.1504 79.0826L74.8829 76.7957Z" fill="white"/>
<path d="M53.6846 76.7957L54.4171 79.0364L52.0106 79.8506C53.4754 80.5631 55.1495 81.1747 57.3467 81.7855L58.4976 78.7306C57.0328 78.2214 54.731 77.4072 53.6846 76.7957Z" fill="white"/>
<path d="M64.0116 19.372C66.1756 19.372 68.3397 19.8918 69.9885 20.8273C70.0915 20.3076 70.2976 19.6839 70.6068 19.0602L69.9885 19.1642L69.3701 19.2681L69.061 18.6444L68.2366 16.8773L66.6909 17.7089L66.0726 18.0208L65.6604 17.501L64.0116 15.8379L62.4659 17.501L61.9506 17.9168L61.3324 17.605L59.7866 16.7734L58.9623 18.5405L58.6531 19.1642L58.0348 19.0602L57.4165 18.9563C57.7256 19.58 57.9317 20.2036 58.0348 20.7234C59.7866 19.8918 61.8476 19.372 64.0116 19.372Z" fill="white"/>
<path d="M30.1761 39.2667C30.489 39.2667 30.8019 39.2667 31.0105 39.1666C32.6793 38.666 33.3052 36.1629 36.2256 34.661C36.2256 34.661 35.3911 34.0603 34.3481 34.0603C33.618 34.0603 32.7836 34.2605 32.0535 35.0615C29.6546 37.4645 27.36 37.5646 27.36 37.5646C27.7772 38.4657 28.9245 39.2667 30.1761 39.2667Z" fill="white"/>
<path fill-rule="evenodd" clip-rule="evenodd" d="M98.0494 49.5552H97.9463C96.502 49.5552 95.7795 49.1423 95.7795 49.1423C95.7795 49.1423 95.2633 56.6772 100.836 58.948C100.836 58.948 99.8037 60.7027 97.5338 60.7027C94.7477 60.5996 93.6128 58.948 93.6128 58.948C93.6128 58.948 93.819 61.1156 92.7872 64.109C91.5491 67.7216 92.7872 70.302 92.7872 70.302C92.7872 70.302 92.0647 70.5085 91.3422 70.5085C91.136 70.5085 90.8267 70.5085 90.5173 70.4053C88.2467 69.8892 87.6281 67.7216 87.6281 67.7216C87.6281 67.7216 87.8343 74.8438 79.4759 74.8438H79.3728C79.3728 74.8438 80.0953 73.8112 80.3015 70.9213C80.7147 65.6572 84.3257 64.9347 84.3257 64.9347C84.3257 64.9347 82.3651 64.625 81.5395 63.9025C80.1984 62.6639 80.3015 61.3221 80.3015 61.3221C83.1907 61.3221 85.1513 60.2899 86.5963 58.6384C88.1436 56.7805 88.453 54.8193 88.453 54.8193C88.453 54.8193 86.9056 56.2643 83.8101 56.2643H82.9845C81.5395 56.1612 80.5077 55.2322 80.5077 55.2322C83.707 53.1678 85.8738 49.6584 83.9132 44.2911C82.3651 39.9559 78.5472 36.7562 74.7299 34.3821C73.4912 33.5564 72.7694 32.6274 72.7694 31.9049C72.7694 30.7724 73.7273 30.3303 74.7093 29.8771C75.3387 29.5868 75.9779 29.292 76.3804 28.8083C77.5154 27.3633 76.7936 25.0925 75.7618 23.7506C75.7618 23.7506 76.1742 23.6475 76.6905 23.6475C77.7223 23.6475 79.6828 23.8539 81.2302 25.5054C83.2939 27.6729 82.4683 30.047 82.4683 30.047L82.9845 30.1501C83.2939 30.2534 83.707 30.2534 84.0163 30.2534H84.2226C87.2149 30.2534 88.5568 27.0536 88.5568 27.0536C88.5568 27.0536 91.7554 30.9759 87.0087 34.0725C86.2862 34.5885 85.8738 35.1047 85.9769 35.6207L86.08 35.9304L86.3893 36.0336C89.6107 36.8866 91.2661 38.9578 93.1932 41.3683C93.3646 41.5832 93.5381 41.8007 93.7159 42.0203C96.9145 46.149 101.558 46.2522 102.074 46.2522H102.177C102.177 46.2522 101.145 49.5552 98.0494 49.5552ZM92.2709 52.1356C92.581 53.2711 94.0252 56.1612 96.2951 57.2965C96.2951 57.2965 93.4058 55.645 92.1678 48.8327V48.9359C91.3422 42.2267 86.3893 37.2722 80.9209 34.2789C80.5682 34.0673 80.2154 33.9039 79.8962 33.7558C79.7475 33.6871 79.6067 33.6217 79.4759 33.5564C81.1271 33.7628 83.8101 33.7628 85.8738 32.0081C85.8738 32.0081 82.6752 34.3821 76.1742 32.2145C76.6741 32.5383 77.317 32.9039 78.0544 33.3235C79.904 34.3756 82.3488 35.7666 84.6357 37.6851C92.581 44.8071 86.9056 51.6196 86.9056 51.6196C89.7948 48.6262 89.8979 45.3233 89.0723 42.7428C90.6204 45.3233 91.5491 48.3165 91.4453 52.1356C91.2391 57.503 88.2467 62.2511 85.1513 65.9669C83.6039 67.7216 83.2939 69.9924 83.2939 69.9924C83.2939 69.9924 83.9132 68.0312 85.6675 65.9669C89.0723 62.0446 91.8585 58.0191 92.2709 52.1356Z" fill="white"/>
<path fill-rule="evenodd" clip-rule="evenodd" d="M46.6996 63.775C45.8742 64.6026 43.9136 64.8095 43.9136 64.8095C43.9136 64.8095 47.5252 65.637 47.9379 70.9128C48.1443 73.8092 48.8665 74.8439 48.8665 74.8439H48.7633C40.4054 74.8439 40.6117 67.706 40.6117 67.706C40.6117 67.706 40.0958 69.8784 37.7226 70.3956C37.5162 70.499 37.2066 70.499 36.897 70.499C36.0716 70.499 35.4525 70.2922 35.4525 70.2922C35.4525 70.2922 36.6907 67.706 35.4525 64.0854C34.4206 61.0854 34.627 58.913 34.627 58.913C34.627 58.913 33.492 60.6716 30.706 60.6716C28.4359 60.6716 27.404 58.913 27.404 58.913C32.976 56.5337 32.4601 49.0856 32.4601 49.0856C32.4601 49.0856 31.7378 49.7062 30.2932 49.7062H30.1901C27.0944 49.7062 26.0626 46.3959 26.0626 46.3959C26.6817 46.3959 31.2219 46.2925 34.4206 42.1546C34.5398 42.0066 34.6578 41.8596 34.7748 41.7137C36.7855 39.2076 38.529 37.0344 41.7467 36.1546L42.0563 36.0512L42.1595 35.6375C42.2627 35.1202 41.9531 34.6029 41.1277 34.0857C36.3811 30.9823 39.5798 27.0514 39.5798 27.0514C39.5798 27.0514 40.9213 30.2582 43.9136 30.2582H44.12C44.5327 30.2582 44.8424 30.2582 45.1519 30.1547L45.771 29.8444C45.771 29.8444 44.9455 27.4651 47.0092 25.2927C48.557 23.741 50.4143 23.4307 51.5493 23.4307C52.1685 23.4307 52.4781 23.5341 52.4781 23.5341C51.4462 24.8789 50.6207 27.1548 51.859 28.603C52.2654 29.092 52.912 29.4044 53.5465 29.711C54.5228 30.1827 55.4704 30.6405 55.4704 31.7064C55.4704 32.534 54.7481 33.3616 53.5099 34.1891C49.6921 36.5684 45.8742 39.7753 44.3264 44.1201C42.3659 49.4993 44.5328 53.0165 47.7315 55.0855C47.7315 55.0855 46.6996 56.0165 45.2551 56.1199H44.4296C41.334 56.1199 39.7863 54.6717 39.7863 54.6717C39.7863 54.6717 40.0958 56.6371 41.6436 58.4992C43.0882 60.1544 45.0487 61.1888 47.9379 61.1888C47.9379 61.1888 48.0411 62.6371 46.6996 63.775ZM35.9684 52.2923C36.3811 58.1888 39.2704 62.2233 42.5723 66.1542C44.3264 68.2232 44.9455 70.1887 44.9455 70.1887C44.9455 70.1887 44.636 68.0163 43.0882 66.1542C39.9926 62.3267 37.0003 57.6716 36.7939 52.3958C36.6907 48.5682 37.6194 45.4649 39.1672 42.9821C38.3417 45.6717 38.4448 48.8786 41.334 51.8786C41.334 51.8786 35.5557 44.9476 43.6041 37.9132C45.8909 35.9904 48.3358 34.5964 50.1849 33.542C50.9224 33.1215 51.5652 32.755 52.0653 32.4306C45.5646 34.6029 42.3659 32.2236 42.3659 32.2236C44.4296 34.0857 47.1124 34.0857 48.7634 33.7753C48.2474 33.9822 47.8347 34.1891 47.3188 34.4995C41.85 37.4994 36.8971 42.3614 36.0716 49.189V49.0855C34.8334 55.7061 31.9442 57.4647 31.9442 57.4647C34.2143 56.3268 35.6589 53.3268 35.9684 52.2923Z" fill="white"/>
<path fill-rule="evenodd" clip-rule="evenodd" d="M63.6872 27.7992V35.7957L60.0333 33.7187L58.7139 26.0337L63.6872 27.7992ZM62.5708 31.0184V29.7723L60.3378 28.7338C60.3378 28.7338 60.3378 29.4607 61.3528 30.2915C61.9618 30.8108 62.3678 30.9146 62.3678 30.9146L62.5708 31.0184Z" fill="white"/>
<path fill-rule="evenodd" clip-rule="evenodd" d="M69.3094 26.2507L67.9899 33.9357L64.3359 36.0127V28.0162L69.3094 26.2507ZM67.6853 28.9509L65.4525 29.8855V31.2355L65.6554 31.1317C65.757 31.1317 66.0615 31.0279 66.6704 30.5087C67.6853 29.6778 67.6853 28.9509 67.6853 28.9509Z" fill="white"/>
<path d="M56.3718 54.2424C56.8642 54.4519 57.3566 54.4519 57.652 54.4519V54.3471C57.652 54.2424 57.7505 54.1376 57.7505 54.033C57.849 53.614 57.849 53.0904 57.849 52.7762C57.652 52.6715 57.3566 52.462 57.2581 52.0431C57.0611 51.6242 56.8642 51.4148 56.4703 51.4148C55.9778 51.4148 55.4855 51.729 55.2885 51.8337C55.0915 53.0904 55.7809 54.033 56.3718 54.2424Z" fill="white"/>
<path d="M67.5557 49.8962C66.641 50.9035 64.8116 52.6157 64.71 52.7164L64.6084 52.8171L58.9171 52.7164C58.9171 53.3207 58.8155 53.7236 58.7139 54.1265C58.7139 54.2272 58.7139 54.2272 58.7139 54.3279L65.523 55.5366C66.2345 55.0329 68.1655 53.6229 68.8769 53.1193C68.3687 52.3135 68.2671 51.4071 68.3687 50.702C68.0638 50.3998 67.7589 50.0977 67.5557 49.8962Z" fill="white"/>
<path d="M68.2573 42.8398C66.9216 44.1693 65.6886 44.6807 64.5584 44.7829C64.3529 44.7829 64.1473 44.7829 63.9418 44.7829C63.7363 44.7829 63.5308 44.7829 63.3254 44.7829C63.1199 44.7829 62.9143 44.7829 62.7088 44.6807C62.6061 44.9874 62.5033 45.6011 62.8116 46.2147C63.0171 46.726 63.5308 47.1351 64.2501 47.4419L64.4556 47.5442V47.851C64.4556 47.9533 64.5584 49.5895 66.3051 50.1009C66.6133 49.794 66.9216 49.4873 67.0243 49.2828C66.6133 48.3623 66.8188 47.5442 67.4353 47.0328C67.4353 47.1351 67.127 49.2828 68.9766 50.1009L69.2848 50.2031L69.1821 50.5099C69.1821 50.6123 68.5655 52.7599 70.7233 53.4758L71.1346 53.578L70.9288 53.9871C70.9288 54.0894 70.1068 56.0325 72.059 57.0551H76.3748V53.6803C74.8331 53.4758 74.2165 52.2485 74.011 51.4304C73.2921 51.3281 72.778 51.0213 72.3669 50.5099C71.4425 49.385 72.2645 48.26 72.2645 48.1578C72.2645 48.1578 72.2645 49.2828 72.9835 49.9986C73.2921 50.3054 73.7031 50.6122 74.422 50.6122H74.7307V50.919C74.7307 51.0213 74.9362 52.5554 76.3748 52.7599V45.9079C76.3748 44.8852 76.6827 43.7603 77.0937 42.7375H68.2573V42.8398Z" fill="white"/>
<path d="M56.8695 46.1281L56.7678 50.4467L57.2765 50.5471L58.4977 46.4294L57.8871 45.1238L56.8695 46.1281Z" fill="white"/>
<path fill-rule="evenodd" clip-rule="evenodd" d="M70.6627 66.7188H70.5595C70.4625 66.7188 70.3857 66.7392 70.3164 66.7575C70.1651 66.7977 70.0499 66.8282 69.8375 66.6154C69.9732 67.0233 70.0098 67.3319 70.0428 67.6108C70.0851 67.9681 70.1216 68.2767 70.3533 68.6831C70.6099 69.1974 71.0082 69.5695 71.2547 69.7996C71.3052 69.8469 71.3493 69.8883 71.3848 69.9237C71.3848 69.9237 71.3848 70.3372 71.2817 70.6473L70.7658 73.4385C70.4564 73.5423 70.147 73.5423 69.7344 73.5423L70.2501 70.8541C70.3495 70.5056 69.8987 70.253 69.2894 69.9116C68.6334 69.544 67.7937 69.0735 67.259 68.2695C66.7433 68.7865 65.7118 68.9932 64.7835 68.9932C63.9584 68.9932 63.0301 68.8898 62.5144 68.7865H62.1018C61.7924 68.7865 61.483 68.8898 61.2767 69.2L61.1735 69.5101L58.2855 68.7865L57.5635 70.027C57.4604 70.2338 57.4604 70.3372 57.6667 70.544L57.8729 70.7507C57.7698 71.1643 57.1509 71.7844 57.1509 71.7844L56.7384 71.2674C56.4289 70.8541 56.5321 70.1304 56.8415 69.5101L57.9761 67.5458L60.4515 67.856L60.0389 67.0289C59.6652 66.13 59.9414 65.1225 60.1612 64.321C60.2351 64.0511 60.3027 63.8045 60.3369 63.5934C60.2897 63.7472 60.0995 63.8241 59.8326 63.8241H59.1106H58.9043L58.2855 64.2376L57.7698 63.7207C57.7698 63.7207 57.7698 63.5139 57.8729 63.3072L59.1106 61.9632L57.6667 60.3091L59.7295 61.3429L60.3484 60.6193C60.5546 60.826 60.4515 61.2395 60.4515 61.2395C61.0704 61.2395 62.8238 62.2734 62.927 64.5477V64.7545V64.8579C62.94 64.871 62.958 64.8907 62.9804 64.9152C63.1345 65.0839 63.4949 65.4782 63.8552 65.4782L66.6401 65.7883C66.7576 65.7883 66.9049 65.7436 67.0876 65.6881C67.3859 65.5975 67.7787 65.4782 68.2904 65.4782C68.8061 65.4782 69.2187 65.5816 69.7344 65.8917C69.7344 65.8917 69.9407 65.6849 70.3533 65.6849H70.4564C71.4616 65.6849 71.9907 66.4354 72.5411 67.2157C72.6684 67.3961 72.7964 67.578 72.9315 67.7526C73.3447 68.4763 74.0664 69.5101 74.0664 69.5101C73.8602 69.7169 73.654 69.9237 73.2416 69.9237H72.9315C72.1493 69.8029 71.7532 68.8015 71.4154 67.9476C71.1744 67.3388 70.9632 66.8049 70.6627 66.7188ZM59.42 62.4801C59.42 62.6869 59.5232 62.7903 59.6263 62.7903C59.7294 62.7903 59.8326 62.6869 59.9357 62.5835C59.9357 62.3767 59.8326 62.2734 59.7294 62.2734C59.5232 62.2734 59.42 62.3767 59.42 62.4801Z" fill="white"/>
<path d="M55.5766 68.7695C55.5766 68.7695 56.4975 68.3776 56.5998 68.0837L56.4975 67.7898C56.3952 67.5938 56.3952 67.3979 56.5998 67.2999L57.6231 66.6141L59.3627 66.908C59.3627 66.908 59.0557 66.5161 59.0557 66.0263L57.4184 65.7324L55.8835 66.6141C55.1672 67.104 55.1672 67.8877 55.3719 68.3776L55.5766 68.7695Z" fill="white"/>
<path d="M68.012 73.7594C68.3192 73.7594 68.6265 73.7594 69.0362 73.7594C69.0362 73.7594 69.9581 71.0474 69.9581 70.9389C69.4459 70.722 68.4217 70.0712 68.012 69.8542C68.3192 70.2881 68.9338 70.722 68.8314 71.156L68.012 73.7594Z" fill="white"/>
<path d="M76.4111 58.1396H51.5444V67.3627C51.5444 71.1544 54.3419 73.511 58.3828 73.511C61.802 73.511 62.7346 73.6141 63.9779 74.8436C64.8067 74.0237 65.5321 73.6141 67.0862 73.511V73.4086L67.9151 71.0519C67.9151 70.9494 66.5681 69.5147 66.5681 69.5147C66.0501 69.7197 65.6357 69.7197 64.9103 69.7197C64.1851 69.7197 63.3562 69.6172 62.4237 69.5147C62.32 69.5147 62.2164 69.5147 62.1128 69.5147C62.0092 69.5147 62.0092 69.5147 62.0092 69.6172L61.9056 69.8221L61.5948 70.3345L61.0767 70.232L58.6937 69.7197L58.3828 70.1295V70.232L58.6937 70.5395L58.59 70.9494C58.3828 71.4616 57.8647 72.0767 57.6575 72.2815L57.0358 72.8966L56.5178 72.1791L56.1034 71.6664C55.6889 71.1544 55.5853 70.437 55.7925 69.7197L55.1708 70.0271L54.86 69.4123L54.6528 69.0023C54.2383 68.1825 54.4456 67.0552 55.378 66.3379L57.3467 65.3131L59.2117 65.6205C59.2117 65.4156 59.3153 64.8007 59.4189 64.6982H59.3153L58.2792 65.1082L57.2431 64.3908C57.2431 64.3908 56.8286 63.9809 57.2431 63.6734L58.1756 62.2388L55.6889 59.1644L59.5225 60.7016L59.7298 60.3942L60.2478 59.7793L60.8695 60.2917C61.0767 60.4966 61.1803 60.5992 61.1803 60.8041C62.2164 61.214 64.0815 62.4437 64.2887 64.3908H63.5634C63.667 64.5958 63.7706 64.5958 63.8742 64.5958L66.5681 64.9032C66.6718 64.9032 66.6718 64.9032 66.7754 64.8007C67.0862 64.6982 67.6043 64.4933 68.226 64.4933C68.744 64.4933 69.1584 64.5958 69.6765 64.8007C69.8838 64.6982 70.091 64.6982 70.2982 64.6982H70.4018C71.8521 64.6982 72.5775 65.8255 73.199 66.6453C73.3028 66.7478 73.4066 66.9527 73.5104 67.0552C74.0281 67.7726 74.6496 68.7974 74.7535 68.8998L75.0642 69.4123L74.6496 69.8221C74.3389 70.1295 73.9243 70.5395 73.199 70.5395C73.0959 70.5395 72.8882 70.5395 72.6813 70.5395C72.5775 70.5395 72.3705 70.437 72.2667 70.437C72.2667 70.5395 72.2667 70.7444 72.1629 70.8469L71.6452 73.3062C74.5465 72.5887 76.308 70.437 76.308 67.3627L76.4111 58.1396Z" fill="#FFE710"/>
<path d="M51.5479 57.2722H70.8229C69.8953 56.2347 69.8953 54.9896 70.1014 54.1596C69.7922 54.0559 69.586 53.8484 69.3799 53.6409C68.6584 54.1596 66.2877 55.9234 65.7723 56.3384L65.6692 56.4422L58.1447 55.0934H58.0416C57.8355 55.0934 57.6293 55.0934 57.3201 55.0934C57.217 55.4046 56.9078 55.7159 56.5986 55.7159H56.4955C56.2894 55.7159 56.0832 55.6122 55.9801 55.4046C55.8771 55.1971 55.774 55.0934 55.8771 54.8859V54.6784C55.0525 54.1596 54.3309 52.9146 54.7432 51.5659V51.4621L54.8463 51.3584C54.8463 51.3584 54.9494 51.2546 55.1555 51.1509L54.6402 51.0471C54.434 51.0471 54.3309 50.8396 54.3309 50.6321C54.3309 50.4246 54.5371 50.3208 54.7432 50.3208L56.0832 50.5283L56.1863 45.8596L58.1447 43.7846L59.3816 46.3784L58.1447 50.8396L59.2785 51.0471C59.4847 51.0471 59.5877 51.2546 59.5877 51.4621C59.5877 51.6696 59.3816 51.7734 59.1754 51.7734C59.1754 51.7734 59.1754 51.7734 59.0724 51.7734L58.1447 51.6696C58.1447 51.6696 58.1447 51.6696 58.1447 51.7734C58.2478 51.9809 58.4539 52.0846 58.557 52.1884L64.3292 52.2921C64.5353 52.0846 65.1538 51.4621 65.7723 50.8396C64.3292 50.3208 63.8139 49.0758 63.7107 48.2458C62.8861 47.9346 62.3708 47.4159 62.0615 46.6896C61.6492 45.8596 61.8554 45.0296 61.9585 44.6146C61.2369 44.3034 60.4123 43.7846 59.5877 42.9546H50.9294C51.3417 43.9921 51.6509 45.0296 51.6509 46.1709V57.2722H51.5479Z" fill="#FFE710"/>
<path d="M59.6032 62.0447C59.523 62.0447 59.3625 62.1315 59.3625 62.2183C59.3625 62.305 59.4428 62.4786 59.523 62.4786C59.6032 62.4786 59.7636 62.3918 59.7636 62.305C59.8438 62.1315 59.7636 62.0447 59.6032 62.0447Z" fill="black"/>
<path fill-rule="evenodd" clip-rule="evenodd" d="M74.9725 78.3283L76.4189 78.9384L78.1746 79.5485C77.8752 79.6872 77.5509 79.8408 77.2089 80.0036C75.5456 80.7923 73.4478 81.7878 71.5627 82.2941L72.0797 83.7178C72.0797 83.7178 69.0835 85.0397 64.2279 85.0397C59.2689 85.0397 56.3762 83.7178 56.3762 83.7178L56.8927 82.2941C54.6199 81.684 52.1404 80.4637 50.2808 79.5485L51.8305 78.9384L53.2768 78.4299L52.8636 77.0063L52.4504 75.3793C52.4504 75.3793 54.9298 76.7012 58.5457 77.7181C59.5788 78.0232 60.302 78.1249 60.302 78.1249V79.2435C60.302 79.2435 62.1617 79.5485 64.1245 79.5485C66.0875 79.5485 67.9471 79.2435 67.9471 79.2435V78.0232C67.9471 78.0232 68.6702 77.9215 69.7034 77.6164C73.3191 76.5995 75.7988 75.2776 75.7988 75.2776L75.3856 76.9046L74.9725 78.3283ZM54.2067 78.735L51.8305 79.5485C53.2769 80.2603 54.9299 80.9722 56.9961 81.3789L58.1325 78.3283C56.7895 77.9215 54.5166 77.108 53.4835 76.4979L54.2067 78.735ZM64.0212 84.2262C61.3351 84.2262 58.1325 83.6161 57.306 83.311L58.649 79.5485C59.7855 79.8536 62.1616 80.2603 63.9179 80.2603H64.0212C65.7775 80.2603 68.1537 79.9553 69.2901 79.5485L70.8398 83.311C69.91 83.6161 66.8106 84.2262 64.0212 84.2262ZM70.0133 78.4299L71.1495 81.4806C73.1399 80.9907 74.7463 80.3123 76.155 79.7178C76.2084 79.695 76.2624 79.6723 76.315 79.6502L73.9392 78.8367L74.7655 76.5995C73.6292 77.108 71.3565 78.0232 70.0133 78.4299Z" fill="black"/>
<path fill-rule="evenodd" clip-rule="evenodd" d="M70.2619 22.129C69.0301 21.103 66.6694 20.1795 63.7954 20.1795C60.9214 20.1795 58.6633 21.103 57.3289 22.129C57.3289 22.129 57.021 19.8717 55.6866 17.8196L58.0474 18.1275L59.2791 15.5624L61.4346 16.7936L63.6928 14.5364L65.9509 16.7936L68.3117 15.5624L69.5434 18.1275L71.904 17.8196C70.6725 19.8717 70.2619 22.129 70.2619 22.129ZM58.5606 19.1535L57.9447 19.0509L57.4315 18.8456C57.7395 19.4612 57.9447 20.0769 58.0474 20.5899C59.587 19.6665 61.7425 19.1535 63.898 19.1535C66.1561 19.1535 68.209 19.6665 69.8513 20.5899C69.9539 20.0769 70.1592 19.4612 70.4671 18.8456L69.8513 18.9483L69.2354 19.0509L68.9275 18.4353L68.1063 16.691L66.5667 17.5118L65.9508 17.8196L65.4376 17.4092L63.898 15.7675L62.2557 17.4092L61.8452 17.9222L61.2293 17.6144L59.6896 16.7936L58.8685 18.5378L58.5606 19.1535Z" fill="black"/>
<path fill-rule="evenodd" clip-rule="evenodd" d="M103.061 46.6656C103.061 46.8724 101.72 50.6984 98.0061 50.6984H97.7999C97.3874 50.6984 97.0781 50.6984 96.7681 50.595C96.8712 52.663 97.6968 56.4889 101.102 57.9365L102.133 58.3501L101.514 59.3841C101.505 59.3937 101.486 59.4211 101.456 59.4628C101.167 59.8715 99.9048 61.6589 97.2843 61.6589C96.0463 61.6589 95.0145 61.3487 94.292 60.9352C94.1889 61.8658 93.8795 63.1066 93.4671 64.4508C92.554 67.1946 93.2559 69.2104 93.4301 69.7109C93.4529 69.7763 93.4671 69.8158 93.4671 69.8277L93.9826 70.9651L92.8477 71.2755C92.8207 71.2755 92.7517 71.2897 92.6493 71.3103C92.3606 71.3694 91.8066 71.4824 91.1972 71.4824C90.7841 71.4824 90.3716 71.4824 90.0623 71.3786C89.2367 71.1717 88.5149 70.7583 87.9986 70.3447C87.5862 71.3786 87.0699 72.5164 86.1419 73.4465C84.5938 75.1013 82.2216 75.9283 79.2292 75.9283H77.3725L78.4036 74.3774C78.5074 74.3774 79.023 73.4465 79.2292 70.9651C79.4354 67.9665 80.4673 66.312 81.6022 65.2781C81.2929 65.1746 80.9835 64.9678 80.7766 64.761C79.1979 63.3761 79.2235 61.8018 79.2292 61.487C79.2292 61.4728 79.2292 61.4611 79.2292 61.4521L79.3323 60.5215H80.261C82.7371 60.5215 84.3876 59.7977 85.8319 58.1433C85.9279 58.0153 86.0239 57.8971 86.1163 57.7827C86.3233 57.5277 86.5153 57.2914 86.6575 57.0058C85.9357 57.2126 85.007 57.4195 83.8721 57.4195H82.9433C81.2929 57.2126 80.0548 56.1787 79.9517 56.0752L79.023 55.1447L80.1579 54.4208C82.5309 52.8698 85.1101 49.8711 83.1496 44.7011C81.9115 41.2888 79.023 38.1867 74.3801 35.2914C72.7297 34.2574 71.9041 33.12 71.9041 31.9826C71.9041 30.3159 73.2025 29.6717 74.2166 29.1687C74.2721 29.1412 74.3268 29.1141 74.3801 29.0873C74.5487 28.9863 74.7165 28.8962 74.8772 28.8099C75.21 28.6314 75.5129 28.4692 75.7213 28.2601C76.5469 27.2261 75.8244 25.4683 75.1026 24.4343L74.1739 23.1934L75.7213 22.8832C75.7512 22.8832 75.8073 22.8745 75.887 22.8622C76.0811 22.832 76.4168 22.7798 76.8562 22.7798C77.9912 22.7798 80.261 22.9866 82.1177 24.9512C83.6658 26.5023 83.8721 28.1567 83.7689 29.2941H84.1814H84.3876C86.6575 29.2941 87.7924 26.8125 87.7924 26.7091L88.4118 25.158L89.4429 26.5023C89.546 26.6057 91.0941 28.5703 90.6809 30.9485C90.3716 32.603 89.4429 33.9472 87.6893 35.0846C87.4831 35.188 87.38 35.2914 87.2769 35.3948C90.5231 36.4116 92.2724 38.6279 94.1938 41.0609C94.2265 41.1023 94.2593 41.1438 94.292 41.1853L94.4982 41.4956C97.3874 45.218 101.514 45.3214 102.03 45.3214H103.475L103.061 46.6656ZM97.4905 60.625C99.7604 60.625 100.792 58.8671 100.792 58.8671C95.2207 56.5923 95.84 48.9406 95.84 48.9406C95.84 48.9406 96.5618 49.5609 98.0061 49.5609H98.1092C101.205 49.5609 102.236 46.2521 102.236 46.2521H102.133C101.514 46.2521 96.9743 46.1487 93.7764 42.0126C93.6569 41.8647 93.5389 41.7177 93.4223 41.572C91.412 39.0669 89.6683 36.8947 86.4513 36.0153L86.1419 35.9119L86.0388 35.6017C85.9357 35.0847 86.245 34.5677 87.0699 34.0507C91.8159 30.9486 88.618 27.0194 88.618 27.0194C88.618 27.0194 87.2769 30.2248 84.2845 30.2248H84.0783C83.6658 30.2248 83.3558 30.2248 83.0465 30.1214L82.5309 30.018C82.5309 30.018 83.3558 27.6397 81.2929 25.4683C79.7455 23.9173 77.8881 23.6071 76.7531 23.6071C76.1345 23.6071 75.8244 23.7105 75.8244 23.7105C76.8562 25.0547 77.6818 27.3295 76.4438 28.7772C76.037 29.266 75.3906 29.5782 74.7563 29.8846C73.78 30.3562 72.8328 30.8138 72.8328 31.8792C72.8328 32.6031 73.5553 33.5336 74.6895 34.2575C78.5074 36.6357 82.3247 39.8412 83.8721 44.1841C85.8319 49.5609 83.6658 53.0766 80.4673 55.1447C80.4673 55.1447 81.4991 56.0753 82.9433 56.1787H83.7689C86.8637 56.1787 88.4118 54.7311 88.4118 54.7311C88.4118 54.7311 88.1017 56.6957 86.5544 58.5569C85.1101 60.2114 83.1496 61.2454 80.261 61.2454C80.261 61.2454 80.1579 62.693 81.4991 63.8305C82.3247 64.6576 84.2845 64.8645 84.2845 64.8645C84.2845 64.8645 80.6735 65.5882 80.261 70.8618C80.0548 73.7573 79.3323 74.7912 79.3323 74.7912H79.4354C87.7924 74.7912 87.5862 67.6563 87.5862 67.6563C87.5862 67.6563 88.1017 69.8278 90.4747 70.3447C90.6809 70.4481 90.991 70.4481 91.3003 70.4481C92.1259 70.4481 92.7446 70.2413 92.7446 70.2413C92.7446 70.2413 91.5065 67.6563 92.7446 64.0372C93.7764 61.0386 93.5702 58.8671 93.5702 58.8671C93.5702 58.8671 94.7051 60.625 97.4905 60.625Z" fill="black"/>
<path fill-rule="evenodd" clip-rule="evenodd" d="M94.2129 38.2836C93.5452 37.4077 92.8312 36.4703 91.5043 35.7988L90.0679 34.9677L91.2995 34.1366C91.3216 34.1366 91.387 34.1023 91.4901 34.0486C91.862 33.8551 92.7175 33.4094 93.7621 33.4094C94.8906 33.4094 95.9168 33.9289 96.7381 34.76C98.7904 36.8376 100.638 37.0454 100.74 37.0454L102.177 37.1492L101.561 38.4998C100.946 39.8502 99.4062 40.7852 97.8666 40.7852C97.5267 40.7852 97.2572 40.7139 96.9415 40.6303C96.8761 40.6131 96.8085 40.5952 96.7381 40.5774C95.8336 40.2111 95.2476 39.5219 94.6296 38.7945C94.5464 38.6967 94.4625 38.5982 94.3779 38.4998C94.3232 38.4282 94.2677 38.3561 94.2129 38.2836ZM96.1223 35.2794C95.404 34.4483 94.5827 34.2406 93.8645 34.2406C92.9806 34.2406 92.2851 34.6231 92.0746 34.7388C92.0533 34.7504 92.0377 34.7593 92.0263 34.7648C92.0234 34.7632 92.0206 34.7616 92.0177 34.76C92.0035 34.7743 92.0071 34.7748 92.0263 34.7648C93.5616 35.5999 94.4512 36.7314 95.1985 37.682C95.8464 38.5059 96.3868 39.1938 97.1484 39.4347C97.3539 39.5386 97.6618 39.5386 97.9697 39.5386C99.2007 39.5386 100.33 38.8114 100.74 37.8765C100.74 37.8765 98.4824 37.7726 96.1223 35.2794Z" fill="black"/>
<path d="M91.9972 49.0263C91.1723 42.3209 86.2222 37.3691 80.7566 34.3775C80.2411 34.0679 79.8286 33.8617 79.3124 33.6554C80.9629 33.9648 83.6438 33.9648 85.7067 32.1079C85.7067 32.1079 82.5095 34.4806 76.0128 32.3143C77.7657 33.449 81.2722 35.0996 84.4694 37.7818C92.5127 44.7968 86.7378 51.7085 86.7378 51.7085C89.6256 48.7168 89.7287 45.5189 88.9031 42.8367C90.4505 45.3125 91.3785 48.4074 91.2754 52.2243C91.0692 57.5887 88.0782 62.3341 84.9849 66.048C83.4375 67.9048 83.1282 70.0712 83.1282 70.0712C83.1282 70.0712 83.7469 68.1112 85.5005 66.048C88.8 62.1278 91.6878 58.1045 92.1003 52.2243C92.4096 53.2559 93.8539 56.2476 96.1223 57.3824C96.1223 57.3824 93.2345 55.7318 91.9972 49.0263Z" fill="black"/>
<path fill-rule="evenodd" clip-rule="evenodd" d="M48.8972 71.0679C49.0003 73.5546 49.6193 74.4876 49.6193 74.4876L50.5479 76.1452H48.6908C45.6989 76.1452 43.4291 75.3167 41.7784 73.6584C40.7467 72.6223 40.2309 71.4824 39.9213 70.5497C39.4055 70.9642 38.7865 71.3786 37.8579 71.5863C37.4452 71.6894 37.1358 71.6894 36.723 71.6894C36.1133 71.6894 35.5598 71.5763 35.2707 71.5173C35.1685 71.4967 35.0993 71.4824 35.0723 71.4824L33.9375 71.1717L34.4533 70.0316C34.5565 70.0316 35.485 67.7519 34.4533 64.6433C33.9375 63.2962 33.7311 62.0527 33.6279 61.1201C32.9057 61.5346 31.874 61.8455 30.636 61.8455C27.7472 61.8455 26.5092 59.6694 26.5092 59.6694L25.8902 58.6332L26.9219 58.2187C30.3265 56.768 31.0486 52.934 31.255 50.8615C31.1114 50.8615 30.9677 50.8838 30.8138 50.9077C30.636 50.9354 30.4445 50.9651 30.2233 50.9651H30.017C26.3028 50.9651 24.9616 47.1311 24.9616 46.9239L24.549 45.5767H25.9934C26.5092 45.5767 30.636 45.4731 33.5247 41.5355L33.8343 41.2246C33.976 41.0523 34.1167 40.8799 34.257 40.7081C36.0563 38.5037 37.7871 36.3831 40.8499 35.4218C40.7467 35.3181 40.6435 35.2145 40.4372 35.1109C38.6833 33.971 37.6516 32.6239 37.4452 30.966C37.0326 28.4791 38.5801 26.6138 38.6833 26.5102L39.715 25.1631L40.334 26.7175C40.334 26.8211 41.4689 29.308 43.7386 29.308H43.9449H44.3577C44.2545 28.2718 44.4608 26.5102 46.0084 24.9559C47.8654 23.0907 50.1352 22.7798 51.2701 22.7798C51.9923 22.7798 52.405 22.8835 52.405 22.8835L53.9525 23.1943L52.9208 24.4377C52.1986 25.474 51.4764 27.3392 52.3018 28.2718C52.6113 28.5827 53.1272 28.8936 53.643 29.1008C53.6965 29.1276 53.751 29.1548 53.8064 29.1823C54.8204 29.6864 56.1191 30.3319 56.1191 32.0022C56.1191 33.142 55.1905 34.2819 53.643 35.3181C49.0003 38.2196 46.1115 41.3282 44.8735 44.7478C42.9133 49.9289 45.3893 52.934 47.8654 54.4883L49.0003 55.2136L48.0718 56.1463C47.9686 56.3535 46.8337 57.3897 45.0799 57.4933H44.1513C43.1196 57.4933 42.0879 57.2861 41.3657 57.0788C41.5082 57.365 41.6998 57.6018 41.9067 57.8574C41.9994 57.972 42.0953 58.0904 42.191 58.2187C43.5323 59.773 45.2862 60.602 47.7622 60.602H48.6908L48.794 61.5346C48.794 61.5383 48.7941 61.5442 48.7943 61.5522C48.7991 61.765 48.8376 63.4521 47.2464 64.8505C47.0401 65.0578 46.7306 65.265 46.4211 65.3687C47.556 66.4049 48.6908 68.0628 48.8972 71.0679ZM40.5403 67.8556C40.5403 67.8556 40.334 75.0053 48.6908 75.0053C48.7159 75.0053 48.6922 74.9505 48.6388 74.8268C48.4731 74.4414 48.0216 73.3925 47.8654 71.2748C47.4528 65.9904 43.8418 65.265 43.8418 65.265C43.8418 65.265 45.8021 64.9542 46.6274 64.2288C47.9686 62.9854 47.8654 61.6382 47.8654 61.6382C44.9767 61.6382 43.0164 60.602 41.572 58.9441C40.0245 57.0789 39.715 55.11 39.715 55.11C39.715 55.11 41.2625 56.5608 44.3577 56.5608H45.183C46.6274 56.4572 47.6591 55.5245 47.6591 55.5245C44.4608 53.4521 42.2942 49.9289 44.2545 44.5406C45.8021 40.1884 49.6193 36.9761 53.4366 34.5928C54.6747 33.7638 55.3969 32.8312 55.3969 32.1059C55.3969 30.9689 54.4387 30.5251 53.4567 30.0701C52.8276 29.7787 52.1888 29.4827 51.7859 28.9972C50.6511 27.5464 51.3733 25.2668 52.405 23.9197C52.405 23.9197 51.9923 23.8161 51.4764 23.8161C50.4447 23.8161 48.4844 24.0233 46.9369 25.6813C44.8735 27.8573 45.6989 30.2406 45.6989 30.2406L45.183 30.3443C44.8735 30.4479 44.4608 30.4479 44.1513 30.4479H43.945C40.953 30.4479 39.6118 27.2356 39.6118 27.2356C39.6118 27.2356 36.4136 31.1732 41.1594 34.2819C41.8816 34.8001 42.2942 35.3182 42.191 35.8363L42.0879 36.1471L41.7784 36.2507C38.5576 37.107 36.9024 39.1864 34.976 41.6064C34.8044 41.8221 34.6306 42.0404 34.4533 42.2609C31.255 46.4057 26.6124 46.5094 26.0965 46.5094H25.9934C25.9934 46.5094 27.025 49.8253 30.1201 49.8253H30.2233C31.6677 49.7216 32.3899 49.2035 32.3899 49.2035C32.3899 49.2035 32.9057 56.768 27.3345 59.0477C27.3345 59.0477 28.3663 60.8093 30.636 60.8093C33.4216 60.7056 34.5565 59.0477 34.5565 59.0477C34.5565 59.0477 34.3501 61.2237 35.3818 64.2288C36.6198 67.8556 35.3818 70.4461 35.3818 70.4461C35.3818 70.4461 36.104 70.6534 36.8262 70.6534C37.0326 70.6534 37.3421 70.6534 37.6516 70.5498C39.9213 70.0317 40.5403 67.8556 40.5403 67.8556Z" fill="black"/>
<path fill-rule="evenodd" clip-rule="evenodd" d="M31.0689 40.3606C30.7611 40.4645 30.3506 40.5683 29.9401 40.5683C28.4008 40.5683 26.8616 39.5296 26.2458 38.2829L25.6301 36.9324L26.9642 36.8285C27.0668 36.8285 28.914 36.7246 30.9663 34.5431C31.7873 33.6081 32.8135 33.1926 33.9423 33.1926C35.2763 33.1926 36.3026 33.8159 36.4052 33.9198L37.7392 34.8548L36.3026 35.582C34.9685 36.413 34.1475 37.348 33.4292 38.2829C32.8135 39.2179 32.0951 40.0489 31.0689 40.3606ZM34.0448 34.2315C33.3266 34.2315 32.5056 34.4392 31.7873 35.2703C29.8917 37.1893 28.0623 37.7011 27.4154 37.882C27.2569 37.9264 27.1694 37.9508 27.1694 37.9713C27.5799 38.8024 28.7087 39.6334 29.9401 39.6334C30.2479 39.6334 30.4532 39.6334 30.7611 39.5296C31.5095 39.2454 32.0446 38.5728 32.6776 37.7774C33.4333 36.8276 34.3284 35.7028 35.892 34.8548C35.892 34.8548 35.071 34.2315 34.0448 34.2315Z" fill="black"/>
<path d="M36.7479 52.2791C36.5416 48.4518 37.5729 45.452 39.1198 42.8659C38.2948 45.452 38.3979 48.7621 41.2855 51.762C41.2855 51.762 35.6134 44.9348 43.5542 37.7972C46.7512 35.1077 50.2575 33.4527 52.0107 32.3148C45.5137 34.4871 42.3167 32.1079 42.3167 32.1079C44.3792 33.8664 47.0606 33.8664 48.7106 33.6596C48.2981 33.8664 47.7825 34.0733 47.2668 34.3837C41.8011 37.3835 36.851 42.3487 36.026 49.0725V48.969C34.7885 55.6928 31.9009 57.3478 31.9009 57.3478C34.1697 56.21 35.6134 53.3136 35.9229 52.1757C36.3354 58.0719 39.1198 62.1061 42.523 66.0369C44.2761 68.1059 44.8949 70.0712 44.8949 70.0712C44.8949 70.0712 44.5855 67.7955 43.0386 66.0369C39.9448 62.4165 36.9541 57.7616 36.7479 52.2791Z" fill="black"/>
<path d="M62.1736 38.3989V39.7746C62.7142 39.2455 63.5791 39.3513 63.5791 39.3513V41.3619C63.5791 41.3619 63.5791 42.3143 63.1466 42.7376H64.1197H65.0927C64.7684 42.3143 64.6603 41.3619 64.6603 41.3619V39.3513C64.6603 39.3513 65.6333 39.2455 66.0658 39.7746V38.3989H64.0115H62.1736Z" fill="black"/>
<path d="M61.3087 30.3032C61.9574 30.8174 62.3899 30.9203 62.3899 30.9203L62.6061 31.0231V29.7891L60.2275 28.8636C60.2275 28.7608 60.2275 29.4806 61.3087 30.3032Z" fill="black"/>
<path d="M66.9307 30.4033C68.0119 29.5769 68.0119 28.8538 68.0119 28.8538L65.6333 29.7835V31.0231L65.8495 30.9198C65.8495 30.9198 66.282 30.8165 66.9307 30.4033Z" fill="black"/>
<path fill-rule="evenodd" clip-rule="evenodd" d="M64.0064 21.6948C67.6103 21.6948 70.8024 23.352 70.8024 25.3199L70.6994 25.7342L69.2578 34.0201L70.6994 34.8487L74.3032 36.9201C74.3032 36.9201 75.1267 37.3344 75.5391 37.6452C76.9806 38.5773 77.2892 40.0273 76.4657 40.6488C76.2595 39.5095 75.3329 38.2666 73.5822 38.2666C72.347 38.2666 71.3173 38.9916 70.5964 39.9238C70.5242 40.1418 70.4012 40.3088 70.2632 40.4963C70.2045 40.5761 70.143 40.6596 70.0816 40.7524L69.4638 41.6845H79.0399C78.3189 43.1345 77.7009 44.5846 77.7009 46.2417V67.5779C77.7009 72.6527 73.6853 75.1387 69.4638 75.1387C69.1402 75.1387 68.8445 75.1366 68.5724 75.1352C66.074 75.1181 65.5749 75.1146 63.9035 76.7956C62.1521 75.1323 61.6879 75.133 58.8621 75.138H58.8595H58.8568H58.854H58.8511H58.8481H58.845H58.8417H58.8383H58.8349H58.8312C58.6759 75.1387 58.5134 75.1387 58.3432 75.1387C54.0185 75.1387 50.1057 72.7565 50.1057 67.5779V46.3454C50.1057 44.6882 49.4879 43.2382 48.7671 41.7881H58.3432L57.7254 40.8559C57.6224 40.5452 57.4165 40.2345 57.2105 40.0273C56.3868 38.9916 55.4601 38.3702 54.2244 38.3702C52.474 38.3702 51.5473 39.613 51.3413 40.7524C50.5176 40.131 50.8265 38.7845 52.268 37.7487C52.6799 37.438 53.5037 37.0238 53.5037 37.0238L57.3135 34.9523L58.755 34.1236L57.3135 25.8378L57.2105 25.3199C57.2105 23.4556 60.4025 21.6948 64.0064 21.6948ZM63.5945 28.0128L58.5491 26.2521L59.8877 33.9165L63.5945 35.9879V28.0128ZM59.5788 43.031C60.4025 43.8596 61.2263 44.3775 61.947 44.6882C61.8441 45.1025 61.7411 45.9311 62.05 46.7596C62.3589 47.3811 62.8738 47.899 63.6975 48.3133C63.8005 49.1419 64.3153 50.3847 65.7569 50.9026L64.3153 52.3526L58.5491 52.2491C58.5179 52.2177 58.4773 52.1863 58.4329 52.1521C58.3309 52.0733 58.209 51.9792 58.1372 51.8348V51.7312L59.0639 51.8348H59.1669C59.3728 51.8348 59.4758 51.7312 59.5788 51.524C59.5788 51.3169 59.4758 51.1097 59.2698 51.1097L58.1372 50.9026L59.3728 46.449L58.1372 43.8596L56.1809 45.9311L56.0779 50.5919L54.7393 50.3847C54.5334 50.3847 54.3274 50.4883 54.3274 50.6954C54.3274 50.9026 54.4304 51.1097 54.6363 51.1097L55.1512 51.2133C54.9452 51.3169 54.8423 51.4205 54.8423 51.4205L54.6363 51.524V51.6276C54.3274 52.974 55.0482 54.1134 55.769 54.7348V54.942C55.769 55.1491 55.769 55.3563 55.8719 55.4598C55.9749 55.667 56.1809 55.7706 56.3868 55.7706H56.4898C56.7987 55.7706 57.1076 55.5634 57.2105 55.1491H57.9313H58.0343L65.5509 56.4955L65.6539 56.392C66.2717 55.9777 68.537 54.3205 69.2578 53.6991C69.4086 53.8507 69.5593 53.9468 69.7505 54.0687C69.8205 54.1134 69.8958 54.1615 69.9786 54.2169C69.7727 55.0455 69.6697 56.2884 70.6994 57.3241H51.5473V46.2418C51.5473 45.2061 51.2383 44.0667 50.8265 43.031H59.5788ZM67.1471 54.5275C67.8163 54.0356 68.4856 53.5436 68.846 53.2847C68.3311 52.4561 68.3311 51.524 68.3311 50.799C68.224 50.6912 68.1169 50.5959 68.0142 50.5045C67.8204 50.3322 67.6419 50.1734 67.5074 49.9704C66.7186 50.852 65.2583 52.2589 64.7777 52.722C64.6936 52.803 64.6396 52.855 64.6242 52.8704L64.5213 52.974L58.7551 52.8704C58.7551 53.4919 58.6521 54.0098 58.5491 54.3205V54.5276L65.448 55.7705C65.8084 55.5116 66.4777 55.0196 67.1471 54.5275ZM57.4164 52.0418C57.6223 52.3526 57.8283 52.5597 58.0342 52.7669C58.0342 53.0776 58.0342 53.5955 57.9312 54.0098C57.9312 54.1133 57.9313 54.2169 57.8283 54.3205V54.4241C57.5194 54.4241 56.9016 54.4241 56.4897 54.2169C55.9748 54.0098 55.1512 52.974 55.3571 51.9383C55.563 51.8347 56.1808 51.524 56.5927 51.524C57.0045 51.524 57.2105 51.6276 57.4164 52.0418ZM56.7986 46.2418L56.6956 50.6954L57.2105 50.799L58.4461 46.5525L57.8283 45.2061L56.7986 46.2418ZM68.846 73.6888H67.8163L68.64 71.2027C68.7133 70.9816 68.4209 70.6552 68.135 70.3359L68.1349 70.3358L68.1348 70.3358C68.0194 70.2069 67.9051 70.0792 67.8163 69.9601C67.9607 70.0327 68.1811 70.1563 68.4287 70.2951L68.4289 70.2952L68.429 70.2954C68.8873 70.5523 69.4384 70.8613 69.7727 70.9958C69.6697 71.0993 68.846 73.6888 68.846 73.6888ZM70.9053 73.585L71.4204 70.7886C71.4204 70.4779 71.5228 70.0636 71.8321 70.2708C71.7475 70.1432 71.611 69.9982 71.4581 69.8357C71.2383 69.6024 70.9845 69.3332 70.8024 69.0279C70.5711 68.6207 70.5346 68.3116 70.4924 67.9537C70.4594 67.6742 70.423 67.3651 70.2875 66.9564C70.2875 66.9564 70.3905 66.7493 70.5964 66.7493H70.6994C70.9994 66.8354 71.2099 67.3703 71.451 67.9803C71.788 68.8358 72.1834 69.8391 72.9649 69.96H73.2735C73.5822 69.96 73.8915 69.8565 74.097 69.5457C74.097 69.5457 73.4798 68.51 72.9649 67.785C72.8291 67.61 72.7011 67.4277 72.5745 67.2471C72.0255 66.4652 71.4972 65.7135 70.4935 65.7135H70.3905C69.9786 65.7135 69.7727 65.9207 69.7727 65.9207C69.2578 65.6099 68.743 65.5064 68.3311 65.5064C67.8956 65.5064 67.4977 65.6198 67.1828 65.7095L67.1827 65.7096H67.1827H67.1826C66.9764 65.7684 66.8058 65.8171 66.6836 65.8171L63.9035 65.5064C63.4916 65.5064 63.0797 65.0921 62.9767 64.8849V64.7813V64.5742C62.8738 62.2956 61.1234 61.2598 60.5055 61.2598C60.5055 61.2598 60.6085 60.8455 60.4026 60.6384L59.7848 61.3634L57.7254 60.3277L59.1669 61.9849L57.9313 63.3313C57.7254 63.4349 57.7254 63.6421 57.8284 63.7456L58.3432 64.2635L58.961 63.8492H59.1669H59.8877C60.0937 63.8492 60.4026 63.7456 60.4026 63.5385C60.4026 63.8683 60.2995 64.2629 60.189 64.6856C59.9872 65.4577 59.7609 66.3237 60.0937 67.0599L60.5055 67.8885L58.0343 67.5779L56.9016 69.5457C56.4898 70.1671 56.4898 70.8922 56.7987 71.3066L57.2105 71.8242C57.2105 71.8242 57.8284 71.2027 57.9313 70.7886L57.7254 70.5814C57.5194 70.3743 57.5194 70.2708 57.6224 70.0636L58.3432 68.8207L61.3293 69.6493L61.4323 69.3386C61.6381 69.0279 61.947 68.9243 62.2559 68.9243H62.6678C63.1827 69.0279 64.0064 69.1314 64.9331 69.1314C65.9628 69.1314 66.8895 69.0279 67.4044 68.4064C67.9264 69.1941 68.7396 69.6356 69.3877 69.9875C70.0179 70.3298 70.492 70.5873 70.3905 70.9957L69.8756 73.6888C70.0301 73.6888 70.2102 73.6625 70.3903 73.6369H70.3905H70.3906C70.5708 73.6113 70.7509 73.585 70.9053 73.585ZM56.3868 68.1993L56.4897 68.51C56.3868 68.8207 55.4601 69.235 55.4601 69.235L55.2541 68.7172C55.0482 68.1993 55.0482 67.3707 55.769 66.8529L57.3134 65.9207L58.9609 66.2314C58.9609 66.7493 59.2698 67.1636 59.2698 67.1636L57.5194 66.8529L56.4897 67.5779C56.3868 67.6815 56.3868 67.9921 56.3868 68.1993ZM72.1407 70.9957L71.6259 73.4818C74.5095 72.7565 76.2595 70.5814 76.2595 67.2671V57.9455H51.5473V67.2671C51.5473 71.0993 54.3274 73.4818 58.3431 73.4818C61.7411 73.4818 62.6678 73.585 63.9035 74.828C64.8302 73.8957 65.5509 73.585 66.9925 73.4818V73.378L67.8163 70.9957C67.7133 70.8922 66.4777 69.4422 66.4777 69.4422C65.9628 69.6493 65.551 69.6493 64.8302 69.6493C64.1094 69.6493 63.2856 69.6493 62.3589 69.4422H62.05C61.9986 69.4422 61.9729 69.4422 61.96 69.455C61.947 69.4679 61.947 69.4939 61.947 69.5457L61.8441 69.7529L61.5352 70.2708L61.0203 70.1671L58.652 69.6493L58.3431 70.1671V70.2708L58.652 70.4779L58.5491 70.8922C58.3431 71.4104 57.8283 72.0312 57.6223 72.2388L57.0045 72.8603L56.4897 72.135L56.0778 71.6173C55.6659 71.2027 55.563 70.3743 55.7689 69.6493L55.1512 69.96L54.8423 69.3386L54.6363 68.9243C54.2244 68.1993 54.3274 66.9564 55.3571 66.2314L57.3134 65.1956L59.0639 65.4028C59.1669 65.2992 59.2698 64.6778 59.2698 64.4706H59.1669L58.1372 64.8849L57.1075 64.1599C57.1075 64.1599 56.7986 63.8492 57.1075 63.4349L58.0342 61.9849L55.563 58.8777L59.3728 60.4313L59.5788 60.2241L60.0936 59.6027L60.7114 60.1206C60.9174 60.2241 61.0203 60.4313 61.0203 60.6384C62.05 61.0527 63.9034 62.2956 64.1094 64.2635L63.4916 64.4706C63.6975 64.5742 63.8005 64.6778 63.8005 64.6778L66.4777 64.9885C66.5806 64.9885 66.6836 64.9885 66.7866 64.8849C66.8226 64.8729 66.8613 64.8594 66.9028 64.845C67.2168 64.7359 67.6823 64.5742 68.2281 64.5742C68.743 64.5742 69.2578 64.6778 69.6696 64.8849C69.7726 64.8849 69.8756 64.8591 69.9785 64.8332L69.9787 64.8331C70.0816 64.8072 70.1845 64.7813 70.2874 64.7813H70.3904C71.7247 64.7813 72.4415 65.7574 73.0311 66.5597V66.5604C73.0787 66.6247 73.1249 66.6878 73.1704 66.7493C73.2223 66.801 73.2735 66.8787 73.3247 66.9564C73.3767 67.0341 73.4279 67.1118 73.4798 67.1636C73.9946 67.8885 74.715 69.0279 74.715 69.0279L75.0243 69.5457L74.6119 69.96C74.3032 70.2708 73.8915 70.685 73.1704 70.685H72.6556C72.5525 70.685 72.347 70.6851 72.2439 70.5814C72.2439 70.6333 72.2183 70.7109 72.1927 70.7886C72.1663 70.8663 72.1407 70.944 72.1407 70.9957ZM76.9806 43.031C76.5688 44.0667 76.2595 45.1025 76.2595 46.2417V53.1812C74.8181 52.974 74.6119 51.3169 74.6119 51.3169V51.0061H74.3032C73.6853 50.9026 73.2735 50.6954 72.8618 50.3847C72.1407 49.6597 72.1407 48.5204 72.1407 48.5204C72.1407 48.5365 72.1208 48.5753 72.091 48.634C71.9267 48.9518 71.4616 49.8534 72.2439 50.9026C72.6556 51.4204 73.1704 51.7312 73.8915 51.8347C74.097 52.6633 74.715 53.9062 76.2595 54.1133V57.5313H71.9352C70.1821 56.5105 70.6611 54.9076 70.7796 54.5108C70.7934 54.4647 70.8023 54.4348 70.8023 54.4241L71.0082 54.0098L70.6993 53.699C68.721 52.941 69.0698 51.1425 69.1435 50.7626V50.7626C69.1503 50.7273 69.1548 50.7043 69.1548 50.6954L69.2578 50.3847L68.9488 50.2811C67.2879 49.4949 67.3884 47.4964 67.403 47.2056L67.404 47.1847C67.4042 47.18 67.4043 47.1764 67.4043 47.1739C66.8895 47.5882 66.6836 48.5204 66.9925 49.4526C66.7866 49.6597 66.4777 49.9704 66.2717 50.2811C64.5213 49.7632 64.5213 48.0025 64.5213 48.0025V47.6918L64.3153 47.5882C63.5945 47.2775 63.0797 46.9668 62.8738 46.3454C62.5648 45.7239 62.6678 45.1025 62.7708 44.7917C62.8738 44.7917 62.9767 44.8176 63.0797 44.8436C63.1827 44.8694 63.2856 44.8953 63.3886 44.8953H64.0064H64.6242C65.7569 44.7917 66.9925 44.2739 68.331 42.9274H76.9806V43.031ZM71.9352 37.0238L70.2875 35.988L68.2281 34.9523L63.5946 37.5416L58.961 34.9523L57.2105 35.988L55.563 37.0238L55.1512 37.2309C56.0779 37.438 56.7987 37.9559 57.4165 38.5773L57.5194 38.6809C57.5709 38.7845 57.6482 38.8621 57.7254 38.9398C57.8026 39.0175 57.8798 39.0952 57.9313 39.1988L58.0343 39.3024C58.0858 39.4059 58.1373 39.4836 58.1887 39.5613C58.2402 39.6389 58.2917 39.7167 58.3432 39.8202L58.4462 39.9238C58.4977 40.0273 58.5749 40.1309 58.6521 40.2345C58.7293 40.3381 58.8066 40.4416 58.858 40.5452C60.0937 42.6167 61.9471 43.8596 63.6975 43.8596C65.448 43.8596 67.3014 42.6167 68.537 40.5452C68.5885 40.4416 68.6658 40.3381 68.743 40.2345C68.8202 40.1309 68.8974 40.0273 68.9489 39.9238C69.0519 39.9238 69.0519 39.8202 69.0519 39.8202C69.2578 39.613 69.3608 39.5095 69.4638 39.3024C69.5667 39.3024 69.5667 39.1988 69.5667 39.1988C69.6697 38.9916 69.8756 38.7845 69.9786 38.6809L70.0816 38.5773C70.6994 37.9559 71.4204 37.5416 72.347 37.2309L71.9352 37.0238ZM68.0222 33.9166L64.3153 35.8845V27.9093L69.3608 26.1486L68.0222 33.9166ZM58.4461 24.9056L63.9035 27.0807L69.3608 24.9056C68.9489 23.7664 66.7866 22.8342 63.9035 22.8342C61.0203 22.8342 58.9609 23.7664 58.4461 24.9056Z" fill="black"/>
<path opacity="0.5" fill-rule="evenodd" clip-rule="evenodd" d="M-0.16333 108.125C-0.16333 108.125 5.04346 108.125 7.07009 108.125C8.70392 108.125 13.4079 110.598 15.17 111.557C15.6071 111.794 16.1163 111.861 16.598 111.735L24.4912 109.68C24.6769 109.632 24.8494 109.542 24.9959 109.419L33.49 102.225C34.0296 101.768 34.7768 101.645 35.4347 101.904L40.6849 103.972C41.3081 104.218 42.0141 104.121 42.548 103.717L50.6049 97.6149C51.0864 97.2501 51.7117 97.1335 52.2925 97.2992L60.3473 99.6053C60.9119 99.7675 61.3715 100.178 61.5947 100.722L67.6578 115.478C67.8437 115.931 68.448 116.016 68.7516 115.632L76.7829 105.485C76.9266 105.303 77.1171 105.163 77.334 105.082L85.2338 102.096C86.2649 101.706 87.0784 100.892 87.4681 99.8621L94.4789 81.3241C94.6666 80.8284 95.3422 80.7623 95.6217 81.2132L102.027 91.5413C102.354 92.069 103.013 92.2859 103.59 92.0548L111.169 89.0233C111.573 88.8612 112.033 88.9166 112.388 89.1705L119.3 94.1063C119.968 94.5835 120.906 94.3175 121.224 93.5609L129.436 74.0125V128.27H0.00429544" fill="#4A5262"/>
<path d="M101.046 92.2376C101.712 93.3042 103.044 93.7416 104.213 93.2772L111.446 90.4022C111.634 90.3268 111.849 90.3524 112.015 90.4705L118.521 95.0884C119.691 95.919 121.315 95.6438 122.145 94.4726C122.255 94.319 122.347 94.154 122.421 93.9805L128.636 79.2982C128.636 79.2982 128.636 74.4897 128.636 74.0957L120.578 93.2018C120.561 93.2417 120.54 93.2793 120.515 93.3149C120.323 93.5851 119.948 93.6491 119.678 93.4571L113.173 88.8392C112.454 88.3293 111.526 88.2177 110.707 88.5433L103.474 91.4191C103.204 91.5265 102.896 91.4255 102.743 91.1787L96.6016 81.3369C96.3932 81.0034 96.0818 80.7474 95.7148 80.6073C94.7854 80.2539 93.7458 80.7204 93.3923 81.6498L86.6027 99.4909C86.2151 100.51 85.408 101.313 84.3875 101.696L76.9123 104.505C76.4757 104.669 76.0917 104.947 75.7995 105.311L67.5211 115.617L62.324 101.001C61.9779 100.029 61.2085 99.2655 60.2325 98.9277L52.6775 96.3122C51.5659 95.9275 50.3345 96.1451 49.4215 96.8868L41.7769 103.098C41.3854 103.416 40.8533 103.499 40.3836 103.315L35.648 101.46C34.4877 101.006 33.172 101.222 32.2187 102.025L23.9363 108.996C23.8677 109.054 23.787 109.095 23.7002 109.118L15.9982 111.11C15.6528 111.199 15.2863 111.154 14.9736 110.982C10.7523 108.664 8.00085 107.513 6.48974 107.513H-0.78833C-1.34061 107.513 -1.78833 107.961 -1.78833 108.513C-1.78833 109.065 -1.34061 109.513 -0.78833 109.513C3.91731 109.513 3.91731 109.513 6.48974 109.513C7.52789 109.513 10.1114 110.593 14.0107 112.735C14.7702 113.152 15.6603 113.264 16.4991 113.047L24.2011 111.054C24.5773 110.957 24.9269 110.776 25.2242 110.526L33.5065 103.555C33.8991 103.224 34.4409 103.135 34.9187 103.322L39.6543 105.177C40.7948 105.624 42.0874 105.422 43.0381 104.65L50.6827 98.4392C51.0586 98.1334 51.5656 98.0445 52.0234 98.2024L59.5784 100.817C59.9802 100.957 60.2971 101.271 60.4395 101.671L65.7566 116.624C66.0897 117.561 67.1191 118.05 68.0557 117.717C68.37 117.606 68.6471 117.409 68.8559 117.149L77.3589 106.563C77.4265 106.479 77.5154 106.415 77.6156 106.377L85.0908 103.568C86.6489 102.983 87.8805 101.757 88.4722 100.202L95.1182 82.7378L101.046 92.2376Z" fill="#C7C9CC"/>
<path fill-rule="evenodd" clip-rule="evenodd" d="M103.437 94.4249C105.314 94.4249 106.837 92.9031 106.837 91.0251C106.837 89.147 105.314 87.6252 103.437 87.6252C101.559 87.6252 100.037 89.147 100.037 91.0251C100.037 92.9031 101.559 94.4249 103.437 94.4249Z" fill="#2F3744"/>
<path fill-rule="evenodd" clip-rule="evenodd" d="M99.0364 91.0251C99.0364 88.5952 101.007 86.6248 103.437 86.6248C105.867 86.6248 107.836 88.5952 107.836 91.0251C107.836 93.455 105.867 95.4248 103.437 95.4248C101.007 95.4248 99.0364 93.455 99.0364 91.0251ZM103.437 88.6251C102.111 88.6251 101.037 89.6996 101.037 91.0251C101.037 92.3506 102.111 93.4251 103.437 93.4251C104.762 93.4251 105.837 92.3506 105.837 91.0251C105.837 89.6996 104.762 88.6251 103.437 88.6251Z" fill="#C7C9CC"/>
</g>
</g>
</g>
<defs>
<linearGradient id="paint0_linear_22_221" x1="-82.3061" y1="85.1072" x2="81.3134" y2="269.51" gradientUnits="userSpaceOnUse">
<stop stop-color="#0E58D2"/>
<stop offset="1" stop-color="#001657"/>
</linearGradient>
<linearGradient id="paint1_linear_22_221" x1="64.1985" y1="174.778" x2="176.838" y2="63.9505" gradientUnits="userSpaceOnUse">
<stop stop-color="#131D2C"/>
<stop offset="1" stop-color="#2F3744"/>
</linearGradient>
<clipPath id="clip0_22_221">
<rect width="128.711" height="128" fill="white"/>
</clipPath>
</defs>
</svg>
