<svg width="129" height="128" viewBox="0 0 129 128" fill="none" xmlns="http://www.w3.org/2000/svg">
<g clip-path="url(#clip0_22_157)">
<path fill-rule="evenodd" clip-rule="evenodd" d="M0.449219 32.3578C0.449219 21.0315 0.449219 15.3684 2.65346 11.0423C4.59237 7.23698 7.68617 4.14315 11.4915 2.20425C15.8176 0 21.4807 0 32.807 0H96.0917C107.418 0 113.081 0 117.407 2.20425C121.212 4.14315 124.306 7.23698 126.245 11.0423C128.449 15.3684 128.449 21.0315 128.449 32.3578V95.6423C128.449 106.968 128.449 112.631 126.245 116.958C124.306 120.763 121.212 123.857 117.407 125.796C113.081 128 107.418 128 96.0917 128H32.807C21.4807 128 15.8176 128 11.4915 125.796C7.68617 123.857 4.59237 120.763 2.65346 116.958C0.449219 112.631 0.449219 106.968 0.449219 95.6423V32.3578Z" fill="#3E4757"/>
<mask id="mask0_22_157" style="mask-type:alpha" maskUnits="userSpaceOnUse" x="0" y="0" width="129" height="128">
<path fill-rule="evenodd" clip-rule="evenodd" d="M0.449219 32.3578C0.449219 21.0315 0.449219 15.3684 2.65346 11.0423C4.59237 7.23698 7.68617 4.14315 11.4915 2.20425C15.8176 0 21.4807 0 32.807 0H96.0917C107.418 0 113.081 0 117.407 2.20425C121.212 4.14315 124.306 7.23698 126.245 11.0423C128.449 15.3684 128.449 21.0315 128.449 32.3578V95.6423C128.449 106.968 128.449 112.631 126.245 116.958C124.306 120.763 121.212 123.857 117.407 125.796C113.081 128 107.418 128 96.0917 128H32.807C21.4807 128 15.8176 128 11.4915 125.796C7.68617 123.857 4.59237 120.763 2.65346 116.958C0.449219 112.631 0.449219 106.968 0.449219 95.6423V32.3578Z" fill="white"/>
</mask>
<g mask="url(#mask0_22_157)">
<path fill-rule="evenodd" clip-rule="evenodd" d="M113.547 56.6503L109.296 56.7854C108.935 56.7854 106.324 56.7105 103.789 54.8722C103.979 54.8895 104.167 54.9176 104.361 54.9176C106.968 54.9176 109.495 53.3481 110.506 51.0993L112.335 47.0403C110.039 47.071 107.943 46.781 107.943 46.781C107.925 46.7796 106.271 46.5657 104.36 44.6124C102.99 43.2126 101.291 42.4706 99.4546 42.4706C98.6496 42.4706 97.9314 42.6163 97.3113 42.8128C97.4087 42.4839 97.4983 42.1497 97.5517 41.8061C98.1376 38.0065 95.6949 35.1106 95.6935 35.1133L92.4928 31.1506L90.5102 35.8059C90.5038 35.8192 90.0011 36.9115 89.1065 37.4423C88.8377 36.0746 88.1721 34.5358 86.752 33.0677C84.0754 30.2976 80.8185 29.8831 79.114 29.8831C78.3253 29.8831 77.7607 29.9687 77.6235 29.9914L73.7621 30.7495C73.9854 29.8885 74.4612 28.3844 75.328 27.0314L77.4585 23.7131L72.096 24.3227L70.389 20.6956L67.0814 22.4002L64.0238 19.3813L60.9742 22.4002L57.6598 20.6956L55.9552 24.3227L50.594 23.7117L52.7291 27.0328C53.5968 28.3844 54.0701 29.8845 54.2907 30.7455L50.606 30.0195L50.479 29.9981C50.2959 29.9687 49.7357 29.8831 48.9415 29.8831C47.2383 29.8831 43.9801 30.2976 41.3102 33.0664C39.889 34.5344 39.2218 36.0746 38.9505 37.4423C38.0614 36.9155 37.5627 35.8419 37.5627 35.8419L35.576 31.1599L32.3272 35.1468C31.9287 35.6601 29.9728 38.3835 30.5035 41.8101C30.5584 42.1524 30.648 42.4839 30.7443 42.8128C30.1279 42.6136 29.4086 42.4706 28.6051 42.4706C26.7668 42.4706 25.0702 43.2126 23.6958 44.6124C21.7893 46.5577 20.492 46.6944 20.1609 46.7769C19.8297 46.8594 18.4215 47.0898 15.7302 47.0403L17.5512 51.0993C18.5619 53.3481 21.0901 54.9176 23.6931 54.9176C23.8896 54.9176 24.0768 54.8895 24.2694 54.8722C21.7398 56.7105 19.1288 56.7854 18.8132 56.7867L14.4828 56.6503L15.7944 60.7655C16.4548 62.8859 18.6621 66.3981 22.8856 66.7765C22.4257 68.7017 21.4069 70.8608 19.1689 71.791L15.9428 73.1201L17.7022 76.1843C18.6943 77.8369 21.0286 79.7704 24.3482 79.7704C25.0648 79.7676 25.7574 79.6957 26.4258 79.5535C26.597 80.3094 26.8095 81.066 27.0623 81.817C28.0503 84.7596 27.1986 86.8104 27.1893 86.8332L25.5956 90.1704L29.1519 91.1076C29.196 91.1211 30.2709 91.4163 31.6159 91.4163C32.2256 91.4163 32.8112 91.3537 33.3553 91.2228C33.7684 91.1261 34.1668 90.9981 34.5478 90.8431C35.0091 91.668 35.5679 92.4218 36.219 93.0973C38.4986 95.4355 41.7286 96.6202 45.8184 96.6202H45.8318L48.7517 96.5825L42.7194 99.092L47.2998 101.306C48.9656 102.116 50.9363 103.075 52.9471 103.809L52.3735 105.375L53.9538 106.094C54.0942 106.158 57.1304 107.515 62.1761 107.805C62.1761 107.805 63.3953 107.861 64.0666 107.861C64.7364 107.861 65.9396 107.801 65.9396 107.801C70.9545 107.504 73.9669 106.158 74.107 106.094L75.69 105.372L75.1125 103.805C77.1783 103.049 79.2249 102.052 80.8213 101.272L85.3148 99.0891L79.3024 96.5825L82.2343 96.6202C86.331 96.6202 89.5609 95.434 91.8364 93.0931C92.485 92.4232 93.0425 91.6723 93.5061 90.8431C93.8887 90.9981 94.2898 91.1261 94.7044 91.2257C95.2484 91.3537 95.8315 91.4163 96.4409 91.4163C97.7628 91.4163 98.8487 91.1254 98.8779 91.1155L102.449 90.1704L100.893 86.895C100.857 86.8104 100.005 84.7596 100.995 81.8148C101.244 81.0632 101.456 80.3066 101.628 79.5535C102.3 79.6957 103 79.7676 103.723 79.7704C107.952 79.7704 109.979 76.7972 110.371 76.1501L112.114 73.118L108.888 71.7939C106.645 70.8608 105.628 68.703 105.174 66.7791C109.343 66.4154 111.579 62.9006 112.262 60.7668L113.547 56.6503Z" fill="#FEFEFE"/>
<path fill-rule="evenodd" clip-rule="evenodd" d="M71.0697 29.4063C69.1245 28.3234 66.6016 27.707 64.0239 27.707C61.4597 27.707 58.9369 28.3234 56.9862 29.4063C56.8084 28.8114 56.561 28.0881 56.2241 27.3313L56.9568 27.4182L57.7269 27.4998L58.0584 26.7966L59.0291 24.723L60.8286 25.6548L61.5265 26.0091L62.0813 25.461L64.0239 23.5344L65.9705 25.461L66.528 26.0091L67.226 25.6548L69.0162 24.723L70.0002 26.7966L70.325 27.4998L71.0964 27.4182L71.8314 27.3313C71.4951 28.0881 71.2448 28.8114 71.0697 29.4063ZM64.0239 31.9829C60.6067 31.9869 58.0451 33.1059 57.4876 34.4228L64.0239 37.0045L70.5617 34.4228C70.0095 33.1059 67.4466 31.9869 64.0239 31.9829ZM64.0932 100.267H64.0865H64.0303H63.9662H63.9609C61.8926 100.28 59.0382 99.8551 57.6665 99.4555L56.014 103.926C57.1023 104.314 60.7949 105.058 64.0303 105.058C67.2591 105.058 70.9532 104.314 72.0398 103.926L70.3902 99.4555C69.0132 99.8551 66.1628 100.28 64.0932 100.267ZM71.026 98.0446C72.6222 97.5597 75.3699 96.5136 76.5994 95.8174L75.7788 98.5047L78.5621 99.4299C76.8789 100.275 74.8387 101.063 72.3669 101.739L71.026 98.0446ZM51.4549 95.8174L52.2785 98.5047L49.4922 99.4299C51.1741 100.275 53.2223 101.063 55.685 101.739L57.0287 98.0446C55.435 97.5597 52.6848 96.5136 51.4549 95.8174ZM103.349 51.6926C103.685 51.8089 104.025 51.8597 104.361 51.8597C105.82 51.8597 107.226 50.9172 107.712 49.8396C107.712 49.8396 105.04 49.6778 102.166 46.7619C101.253 45.8167 100.284 45.5346 99.4538 45.5346C98.1632 45.5346 97.1954 46.2137 97.1954 46.2137C99.0691 47.2112 100.137 48.5341 101.035 49.6453C101.8 50.5923 102.441 51.3856 103.349 51.6926ZM24.6961 51.6926C24.3698 51.8089 24.0289 51.8597 23.692 51.8597C22.2347 51.8597 20.8242 50.9172 20.3443 49.8409C20.3443 49.8409 23.0142 49.6778 25.8846 46.7619C26.8031 45.8153 27.7697 45.5346 28.6053 45.5346C29.8875 45.5346 30.8581 46.2151 30.8581 46.2151C28.9898 47.2104 27.9205 48.5307 27.0214 49.6408C26.2529 50.5897 25.6087 51.3851 24.6961 51.6926ZM102.303 72.9758C99.6174 71.6518 97.9235 68.1385 97.5132 66.8737C97.0667 73.8391 93.6668 78.6747 89.691 83.3303C87.6266 85.7438 86.907 88.0898 86.907 88.0898C86.907 88.0898 87.3059 85.431 89.0894 83.2678C92.7993 78.8112 96.325 73.2631 96.5866 66.847C96.7658 62.3695 95.616 58.7397 93.819 55.7463C94.8245 58.8627 94.6816 62.6783 91.2697 66.2413C91.2697 66.2413 98.0643 58.1006 88.5667 49.754C85.8681 47.4987 82.9874 45.8561 80.7779 44.5958C79.8748 44.0809 79.0841 43.6299 78.4633 43.2269C86.1987 45.7512 89.9769 42.9729 89.9769 42.9729C87.5072 45.1134 84.3079 45.0773 82.3253 44.7685C82.8643 45.0305 83.4233 45.3046 84.0249 45.6281C90.5479 49.171 96.4103 55.0015 97.4101 63.0754V63.0139C98.9276 70.9421 102.303 72.9758 102.303 72.9758ZM104.289 63.7386C104.351 63.7426 104.401 63.7426 104.463 63.7426C108.1 63.7426 109.33 59.848 109.33 59.848H109.26C108.592 59.848 103.186 59.6902 99.365 54.8344C99.2583 54.6986 99.1523 54.5635 99.0464 54.4291C96.6713 51.4034 94.614 48.7832 90.7164 47.7259L90.3154 47.6563L90.2293 47.2472C90.1162 46.6268 90.5436 46.0426 91.51 45.4142C97.1299 41.735 93.3127 37.0408 93.3127 37.0408C93.3127 37.0408 91.7084 40.7951 88.1187 40.7951C88.0754 40.7951 88.0313 40.7937 87.9872 40.7924C87.9424 40.791 87.8976 40.7897 87.8528 40.7897L87.7731 40.7856C87.3934 40.7659 87.0243 40.7469 86.6546 40.6694L85.9939 40.5397C85.9939 40.5397 87.0165 37.7548 84.5461 35.1999C82.6851 33.2707 80.4217 32.9431 79.1139 32.9431C78.4562 32.9431 78.038 33.0273 78.038 33.0273C79.2782 34.6491 80.1756 37.3417 78.7434 39.0035C78.2642 39.5556 77.5168 39.9045 76.7808 40.248C75.616 40.7921 74.4789 41.3228 74.4789 42.6267C74.4789 43.5291 75.3223 44.58 76.8334 45.5238C81.3802 48.3863 85.8937 52.1872 87.7724 57.2784C90.1162 63.6289 87.4738 67.8443 83.7042 70.2629C83.7042 70.2629 84.8867 71.351 86.6012 71.4903C86.9497 71.5238 87.291 71.5408 87.6089 71.5408C91.2298 71.5408 93.1029 69.8418 93.1029 69.8418C93.1029 69.8418 92.7936 72.1879 90.9099 74.3661C89.1705 76.3771 86.8899 77.5625 83.4083 77.6109C83.4083 77.6109 83.2988 79.2272 84.8391 80.626C85.8268 81.5078 88.1038 81.7943 88.1038 81.7943C88.1038 81.7943 83.8386 82.659 83.3685 88.9574C83.1132 92.3707 82.24 93.5582 82.24 93.5582H82.3161C92.2133 93.5582 91.9609 85.0697 91.9609 85.0697C91.9609 85.0697 92.6478 87.5821 95.4105 88.2384C95.7433 88.3238 96.0988 88.3586 96.4387 88.3586C97.3262 88.3586 98.0992 88.1502 98.0992 88.1502C98.0992 88.1502 96.6521 85.1003 98.0885 80.8343C99.2768 77.2937 99.0855 74.6718 99.0855 74.6718C99.0855 74.6718 100.419 76.6871 103.723 76.7056H103.758C106.511 76.7056 107.711 74.6185 107.711 74.6185C101.111 71.8793 101.764 63.0394 101.764 63.0394C101.764 63.0394 102.62 63.6784 104.289 63.7386ZM30.5368 66.8725C30.9861 73.8391 34.3859 78.6754 38.3607 83.3289C40.4237 85.7438 41.1523 88.0884 41.1523 88.0884C41.1523 88.0884 40.7485 85.4295 38.957 83.2692C35.2549 78.8112 31.7294 73.2617 31.4701 66.8471C31.2842 62.3683 32.4353 58.7385 34.2349 55.7463C33.2308 58.8641 33.3685 62.6785 36.7844 66.2428C36.7844 66.2428 29.9887 58.1008 39.4918 49.7542C42.1881 47.4999 45.0642 45.8583 47.2721 44.5982C48.1755 44.0826 48.9669 43.6308 49.5885 43.2271C41.8555 45.7513 38.0773 42.9717 38.0773 42.9717C40.5453 45.1135 43.7433 45.0775 45.7287 44.7686L45.683 44.7909C45.1593 45.0462 44.6101 45.3139 44.0294 45.6296C37.5037 49.1712 31.6451 55.003 30.6411 63.0755V63.0127C29.1263 70.9409 25.7519 72.9758 25.7519 72.9758C28.4351 71.6525 30.1264 68.1373 30.5368 66.8725ZM43.2178 80.6246C42.2298 81.5085 39.9503 81.7943 39.9503 81.7943C39.9503 81.7943 44.2192 82.6576 44.6885 88.9574C44.9438 92.3707 45.8089 93.5568 45.8089 93.5568H45.7394C35.8392 93.5568 36.0932 85.0683 36.0932 85.0683C36.0932 85.0683 35.402 87.5821 32.6439 88.2384C32.3137 88.3238 31.9607 88.3586 31.6158 88.3586C30.728 88.3586 29.9592 88.1502 29.9592 88.1502C29.9592 88.1502 31.3978 85.1017 29.9633 80.8343C28.7774 77.2944 28.9699 74.6711 28.9699 74.6711C28.9699 74.6711 27.6383 76.6871 24.3306 76.7071H24.2972C21.5458 76.7071 20.3439 74.6185 20.3439 74.6185C26.9391 71.8793 26.2933 63.0395 26.2933 63.0395C26.2933 63.0395 25.4364 63.6785 23.7638 63.7387C23.7023 63.7427 23.6475 63.7427 23.59 63.7427C19.9521 63.7427 18.7195 59.8482 18.7195 59.8482H18.793C19.4642 59.8482 24.8655 59.6904 28.6851 54.8345C28.7929 54.6978 28.8997 54.5618 29.0061 54.4265C31.3817 51.4032 33.4396 48.7843 37.3299 47.726L37.739 47.6551L37.8259 47.2473C37.9395 46.627 37.5131 46.0414 36.5478 45.4144C30.9285 41.735 34.7442 37.0423 34.7442 37.0423C34.7442 37.0423 36.3393 40.7952 39.9396 40.7952C39.9824 40.7952 40.0243 40.7942 40.0668 40.7932H40.0668C40.1106 40.7922 40.1549 40.7912 40.2017 40.7912L40.3062 40.7854C40.6754 40.7652 41.0391 40.7452 41.3996 40.6695L42.0627 40.5398C42.0627 40.5398 41.0346 37.7549 43.5107 35.2C45.3704 33.2708 47.6352 32.9419 48.94 32.9419C49.6018 32.9419 50.0149 33.0275 50.0149 33.0275C48.7769 34.6492 47.8798 37.3419 49.3117 39.0023C49.791 39.5551 50.5376 39.9043 51.2727 40.2482C52.4364 40.7924 53.5713 41.3232 53.5713 42.6268C53.5713 43.528 52.7289 44.5801 51.2182 45.524C46.6712 48.3864 42.159 52.1887 40.2819 57.2785C37.9395 63.6304 40.5814 67.8458 44.3556 70.263C44.3556 70.263 43.171 71.3517 41.4531 71.4903C41.1041 71.5238 40.7672 71.5401 40.4424 71.5401C36.8259 71.5401 34.9528 69.8419 34.9528 69.8419C34.9528 69.8419 35.2643 72.1879 37.1361 74.3675C38.8861 76.3771 41.1656 77.5625 44.6471 77.6109C44.6471 77.6109 44.7567 79.2272 43.2178 80.6246ZM61.7913 50.5136H64.1271H66.456V52.114C65.9092 51.4428 64.8397 51.5806 64.8397 51.5806V53.8868C64.8397 53.8868 64.881 55.0232 65.2781 55.5139H64.1271H62.9692C63.373 55.0232 63.4091 53.8868 63.4091 53.8868V51.5806C63.4091 51.5806 62.3435 51.4428 61.7913 52.114V50.5136ZM56.707 50.7543C56.8687 50.9281 57.0278 51.1166 57.1829 51.3078L57.2042 51.3336L57.2042 51.3337C57.2325 51.3679 57.2599 51.4011 57.2899 51.4428C57.4316 51.6313 57.5747 51.8319 57.7137 52.0378C57.7315 52.0609 57.7487 52.0867 57.7667 52.1135C57.7797 52.133 57.7931 52.153 57.8073 52.1728C57.973 52.4228 58.1295 52.6822 58.2846 52.9496C59.7124 55.4136 61.9959 56.8882 64.0241 56.8909C66.0536 56.8882 68.3358 55.4136 69.7677 52.9496C69.9255 52.6755 70.0859 52.4094 70.2516 52.1608C70.277 52.126 70.3025 52.0899 70.3252 52.0525C70.4655 51.8399 70.614 51.6341 70.7677 51.4334C70.788 51.4075 70.8074 51.383 70.826 51.3593L70.8281 51.3567L70.8614 51.3145C71.0204 51.1166 71.185 50.9268 71.3522 50.7477C71.3635 50.7363 71.3749 50.7251 71.3849 50.7143L71.3856 50.7142C71.4005 50.6982 71.4154 50.683 71.4325 50.6687C72.1593 49.9254 73.0261 49.3572 74.161 49.043L73.6554 48.7489H73.6291L71.6195 47.5831L69.5551 46.3998L64.0402 49.4027L64.0241 49.3893L64.0134 49.4027L58.4971 46.3998L56.4342 47.5831L54.4207 48.7489H54.3981L53.8886 49.043C55.025 49.3572 55.8888 49.9187 56.6187 50.6634C56.6313 50.6754 56.6425 50.6881 56.6537 50.7008C56.6701 50.7192 56.6864 50.7377 56.707 50.7543ZM62.2667 41.8443V40.3389L59.554 39.1971C59.554 39.1971 59.5781 40.0715 60.7987 41.0207C61.4596 41.542 61.8693 41.6759 61.9594 41.7053C61.9703 41.7089 61.9765 41.7109 61.9779 41.7119L62.2667 41.8443ZM63.5475 38.034V47.4087L59.1543 45.0945L57.5806 36.0125L63.5475 38.034ZM65.7866 40.3389L68.4993 39.1971C68.4993 39.1971 68.4766 40.0715 67.2519 41.0207C66.5903 41.5445 66.1801 41.6771 66.0916 41.7057C66.0815 41.7091 66.0756 41.711 66.074 41.7119L65.7866 41.8443V40.3389ZM68.8977 45.0945L70.466 36.0125L64.5031 38.034V47.4087L68.8977 45.0945ZM56.7562 69.3897C56.3966 69.3897 55.6907 69.347 55.1105 69.1357C54.4701 68.899 53.5155 67.7239 53.7347 66.4297C54.0115 66.2599 54.6532 65.8989 55.2535 65.8989C55.7161 65.8989 56.0316 66.1155 56.2536 66.5821C56.4461 66.9872 56.7937 67.256 57.037 67.4097C57.029 67.7881 56.9929 68.375 56.8913 68.8951C56.8685 69.0114 56.8392 69.1184 56.8084 69.224C56.7965 69.2697 56.7827 69.3106 56.7709 69.3455C56.7655 69.3615 56.7604 69.3763 56.7562 69.3897ZM65.0975 67.4045L65.0974 67.4046L64.9773 67.522C64.9504 67.5484 64.9327 67.5658 64.9254 67.5732L64.7929 67.7042L57.9397 67.5959C57.9357 68.2751 57.8248 68.8527 57.7178 69.2752C57.7004 69.3461 57.6817 69.4196 57.663 69.4931L65.8157 70.9584C66.6634 70.3661 68.9977 68.6615 69.9041 67.993C69.2451 67.0317 69.1822 65.8886 69.332 65.0838C68.8974 64.8084 68.5685 64.4956 68.3065 64.164C67.3636 65.1911 65.6498 66.8651 65.0978 67.4042L65.0975 67.4045ZM64.7894 58.2024C66.1424 58.0673 67.6558 57.4871 69.2361 55.9215H79.5427C79.0933 57.1087 78.7221 58.3935 78.7221 59.6717L78.7257 67.9221C77.0012 67.6319 76.7964 65.7762 76.79 65.696L76.7594 65.3163L76.389 65.2842C75.6373 65.2134 75.1431 64.8965 74.7228 64.4887C73.878 63.6424 73.8766 62.2734 73.878 62.2627C73.8766 62.2701 73.8652 62.2911 73.8467 62.3245V62.3246V62.3247C73.6931 62.6068 73.061 63.7688 74.0146 65.0248C74.4611 65.6158 75.1118 65.9794 75.953 66.1238C76.1507 67.1519 76.9159 68.6066 78.7257 68.8272V72.8678H73.6384C71.2938 71.56 72.2887 69.263 72.3328 69.1654L72.5319 68.7309L72.0825 68.5598C69.5423 67.6185 70.2415 65.085 70.275 64.9741L70.3779 64.6064L70.033 64.4433C67.9353 63.47 68.2187 60.8522 68.2467 60.7426C67.6023 61.2653 67.3697 62.3322 67.8136 63.3777C67.5865 63.639 67.2848 63.9509 66.9519 64.2951L66.8978 64.351C64.7252 63.7962 64.657 61.8001 64.657 61.7105L64.6517 61.403L64.3669 61.2921C63.5193 60.9779 62.9364 60.5073 62.6503 59.8749C62.3281 59.1757 62.4417 58.4403 62.53 58.0874C62.7786 58.1436 63.0246 58.181 63.2626 58.2024C63.5072 58.2278 63.7559 58.2425 64.0099 58.2425H64.0247H64.0434C64.2961 58.2425 64.5421 58.2278 64.7894 58.2024ZM55.5441 59.7025L55.4051 64.9554L56.004 65.0464L57.4639 60.006L56.7233 58.4552L55.5441 59.7025ZM58.4228 78.8318C58.4121 79.0025 58.5364 79.1469 58.7062 79.1511C58.8707 79.1661 59.0124 79.0388 59.0284 78.8717C59.0351 78.711 58.9135 78.5616 58.7423 78.5545C58.5752 78.5403 58.4375 78.6697 58.4228 78.8318ZM71.7874 83.8196C71.739 83.8061 71.6878 83.8025 71.6437 83.8025C71.35 83.8025 71.2213 84.0621 71.2213 84.0621C71.4183 84.5904 71.4674 84.9694 71.5129 85.3129C71.5626 85.6962 71.6067 86.0354 71.8428 86.4884C72.1244 87.0288 72.5916 87.4861 72.8775 87.7655L72.9273 87.8146C72.96 87.8466 72.9891 87.8758 73.014 87.9014C73.014 87.9014 72.9472 88.3842 72.8782 88.7462L72.2418 92.0528C71.8364 92.109 71.4112 92.1382 70.9701 92.1581L71.6373 88.978C71.734 88.5186 71.1815 88.2128 70.4444 87.8046C69.669 87.3758 68.6897 86.8347 68.0476 85.8825C67.4352 86.5716 66.2841 86.7771 65.1263 86.7771C64.0701 86.7771 63.0152 86.6071 62.3722 86.4806C62.2104 86.4564 62.0553 86.4365 61.9016 86.4365C61.5312 86.4365 61.1929 86.551 60.959 86.9428L60.7758 87.2542L57.3198 86.4386L56.4588 87.8651C56.3385 88.0955 56.3304 88.2889 56.5256 88.5044L56.7583 88.7597C56.5978 89.2624 55.8786 90.0247 55.8786 90.0247L55.3652 89.3826C54.9588 88.9282 55.0256 88.0955 55.4467 87.3254L56.8185 85.0121L59.7464 85.4338L59.2931 84.397C58.8658 83.4398 59.1913 82.3006 59.4606 81.3584C59.5771 80.951 59.6831 80.5798 59.713 80.2768C59.6796 80.5805 59.4001 80.6502 59.0752 80.6502C58.9174 80.6502 58.7491 80.6331 58.5933 80.6182C58.4586 80.6046 58.3332 80.5926 58.2316 80.5926C58.1447 80.5926 58.0712 80.6018 58.0324 80.6295L57.2382 81.1124L56.6139 80.5606C56.5376 80.4546 56.5136 80.2036 56.6968 80.0173L58.1447 78.3931L56.4347 76.3942L58.8306 77.5974L59.5632 76.7113C59.7638 76.9062 59.6755 77.4224 59.6755 77.4224C60.4215 77.4409 62.5206 78.5993 62.6315 81.3079C62.6356 81.3904 62.6356 81.4829 62.6356 81.5739L62.6539 81.6016C62.6636 81.6166 62.6768 81.6365 62.693 81.6621C62.8414 81.8654 63.2505 82.3867 63.7679 82.4358L67.0809 82.7636H67.093C67.2329 82.7636 67.4259 82.7003 67.6634 82.6228C68.043 82.4983 68.5362 82.3369 69.1077 82.3369C69.6118 82.3369 70.1733 82.4656 70.7736 82.8439C70.7736 82.8439 71.0757 82.6057 71.5641 82.5794C71.601 82.5766 71.6437 82.5766 71.6771 82.5766C72.9258 82.5766 73.5602 83.5245 74.2044 84.4873C74.3274 84.6701 74.4498 84.8535 74.577 85.0313C75.1751 85.8825 75.9786 87.1433 75.9786 87.1433C75.6814 87.4925 75.4076 87.6887 74.9461 87.6887C74.8202 87.6887 74.6759 87.6795 74.5187 87.6461C73.6028 87.4782 73.137 86.3234 72.7346 85.3236C72.4366 84.5847 72.1735 83.9298 71.7874 83.8196ZM53.9864 86.8098C53.9864 86.8098 55.1335 86.3376 55.2351 86.0034L55.0814 85.6201C54.9731 85.3712 54.9891 85.101 55.1976 84.9545L56.4343 84.0998L58.5 84.4973C58.5 84.4973 58.1269 84.0294 58.163 83.4036L56.1897 82.9862L54.3313 84.1175C53.5331 84.7149 53.4757 85.6898 53.7391 86.2687L53.9864 86.8098ZM69.8301 92.178C69.3822 92.178 68.9718 92.1837 68.6028 92.1993L69.5734 89.1764C69.6754 88.8962 69.3597 88.5598 69.0463 88.2256C68.8952 88.0642 68.7446 87.9035 68.6415 87.7499C69.1202 88.05 70.3568 88.7078 70.9532 88.9709C70.893 89.0683 69.8301 92.178 69.8301 92.178Z" fill="white"/>
<path fill-rule="evenodd" clip-rule="evenodd" d="M72.1941 72.867H49.3305V59.6713C49.3305 58.3932 48.9561 57.1083 48.5136 55.9211H58.8175C59.7975 56.8944 60.7561 57.5014 61.6693 57.8343C61.5516 58.3036 61.3939 59.2729 61.8337 60.2409C62.1934 61.0203 62.8431 61.6206 63.7856 62.0217C63.886 62.9843 64.4983 64.4336 66.1815 65.0739C65.4422 65.8187 64.7256 66.5205 64.4355 66.8026L57.5956 66.6943C57.4405 66.6168 57.1758 66.4417 57.0581 66.1956C57.0509 66.1769 57.0414 66.1629 57.0317 66.1485C57.0233 66.1361 57.0147 66.1235 57.0073 66.1075L58.1236 66.2879C58.1477 66.2906 58.1718 66.2906 58.1959 66.2906C58.4111 66.2906 58.5997 66.1422 58.6344 65.9216C58.6705 65.6729 58.506 65.4456 58.2654 65.4096L56.891 65.193L58.4151 59.9307L56.9712 56.8944L54.6596 59.3384L54.5192 64.8092L52.9657 64.5633C52.725 64.5164 52.4964 64.6903 52.4537 64.9335C52.4175 65.1743 52.5807 65.4029 52.8239 65.4456L53.4764 65.5445C53.2438 65.6769 53.09 65.7825 53.0713 65.7973L52.9389 65.8895L52.9029 66.0526C52.5245 67.5874 53.3788 69.0447 54.304 69.6958L54.2692 69.8897C54.2318 70.1249 54.2866 70.3549 54.4284 70.5488C54.5633 70.7453 54.7666 70.863 55.0005 70.9044C55.0473 70.9138 55.0981 70.9178 55.1449 70.9178C55.5434 70.9178 55.8936 70.6411 55.9899 70.2346C56.3348 70.2774 56.6504 70.2841 56.8656 70.2841H57.0461L66.0197 71.907L66.1735 71.8053C66.8861 71.3068 69.6135 69.3215 70.5066 68.661C70.7512 68.8736 71.0266 69.0635 71.3593 69.2225C71.0681 70.1931 71.0507 71.6865 72.1941 72.867ZM49.3309 73.7573H78.725L78.7306 84.8144C78.7306 88.4787 76.5795 91.038 73.1875 91.8722L73.7557 88.9132L73.7635 88.8713C73.792 88.7063 73.8247 88.5214 73.8482 88.3649C74.0082 88.4318 74.1781 88.488 74.3602 88.5214C74.5728 88.5619 74.7676 88.5818 74.9468 88.5818C75.8137 88.5818 76.3186 88.126 76.6542 87.737L77.0901 87.2286L76.7346 86.6725C76.7026 86.6177 75.9125 85.3719 75.3081 84.5185C75.1893 84.3514 75.0755 84.1829 74.9603 84.0037C74.2706 82.9719 73.4066 81.6805 71.6778 81.6805L71.5214 81.6826C71.2384 81.7018 70.9936 81.7566 70.7944 81.8327C70.2516 81.5802 69.6887 81.4465 69.1072 81.4465C68.3919 81.4465 67.7889 81.6428 67.3878 81.7808C67.3524 81.7907 67.3181 81.8014 67.2852 81.8121C67.2114 81.8348 67.1448 81.8554 67.0884 81.8647L63.8556 81.5468C63.8155 81.5397 63.6818 81.4622 63.5214 81.2709V81.2553L64.2206 80.9744C64.0241 78.6441 61.7874 77.2112 60.5386 76.7255C60.4838 76.4915 60.3715 76.259 60.1763 76.0691L59.4811 75.4099L58.8701 76.1409L58.5693 76.5157L54.0397 74.6547L56.9876 78.3539L55.8258 80.1146C55.3994 80.5676 55.8686 81.0199 55.8686 81.0199L57.0706 81.849L58.3153 81.3833C58.3458 81.3833 58.3731 81.3882 58.4007 81.3925C58.4131 81.3946 58.4255 81.3968 58.4382 81.3982C58.4038 81.5034 58.3644 81.7829 58.3274 82.0446C58.2983 82.2501 58.2708 82.4449 58.2484 82.536L56.0866 82.1107L53.8164 83.3929C52.6492 84.2512 52.4901 85.6684 52.9234 86.6391L53.1747 87.1902L53.5316 87.9681L54.3284 87.6389C54.3392 87.6375 54.3498 87.6325 54.3552 87.6268C54.0704 88.5392 54.1867 89.4067 54.6948 89.9749L55.1788 90.5808L55.8205 91.3907L56.5251 90.6355C56.731 90.4293 57.4048 89.6755 57.612 89.032L57.7631 88.5392L57.4208 88.1594L57.362 88.0926L57.7511 87.4533L60.5721 88.1175L61.2057 88.2647L61.5427 87.7072L61.7272 87.4035C61.762 87.3381 61.7699 87.3289 61.901 87.3289C61.9999 87.3289 62.1002 87.3381 62.2085 87.3637C63.274 87.5642 64.2553 87.6645 65.1257 87.6645C65.972 87.6645 66.4774 87.6325 67.0777 87.4334C67.0777 87.4334 68.5925 89.1536 68.6446 89.2169L67.7181 92.0819L67.6753 92.2533C65.9199 92.3962 65.0642 92.7809 64.0308 93.8135C62.5307 92.3251 61.4651 92.1673 57.4315 92.1673C52.6024 92.1673 49.3309 89.3356 49.3309 84.8144V73.7573Z" fill="#FFDD2D"/>
<path fill-rule="evenodd" clip-rule="evenodd" d="M57.7268 27.4998L56.9567 27.4182L56.2241 27.33C56.561 28.0894 56.8083 28.81 56.9861 29.4063C58.9367 28.3247 61.4596 27.7084 64.0239 27.7084C66.6015 27.7084 69.1257 28.3247 71.0696 29.4063C71.2462 28.81 71.4951 28.0894 71.8314 27.33L71.0964 27.4182L70.325 27.4998L70 26.7979L69.0174 24.723L67.2259 25.6548L66.528 26.0104L65.9705 25.4596L64.0239 23.5344L62.0813 25.4596L61.5264 26.0104L60.8286 25.6548L59.029 24.723L58.0584 26.7979L57.7268 27.4998ZM71.7525 31.1484C70.23 29.9317 67.4706 28.7886 64.0239 28.7886C60.5825 28.7886 57.8337 29.9317 56.3003 31.1484C56.3003 31.1484 55.8497 28.4237 54.3042 26.0211L57.0797 26.3366L58.5303 23.251L61.3258 24.6895L64.0239 22.0156L66.7312 24.6895L69.5201 23.251L70.9733 26.3366L73.7514 26.0211C72.2048 28.4237 71.7525 31.1484 71.7525 31.1484ZM58.7427 78.5543C58.5756 78.5379 58.4365 78.6695 58.4232 78.8323C58.4111 79.0023 58.5368 79.1466 58.7066 79.1502C58.8711 79.1637 59.0128 79.0378 59.0288 78.8707C59.0355 78.7107 58.9138 78.5607 58.7427 78.5543ZM72.3683 101.738L71.0258 98.0437C72.6222 97.5587 75.3699 96.5134 76.5994 95.8165L75.7802 98.5052L78.5621 99.429C76.8789 100.274 74.8387 101.062 72.3683 101.738ZM64.0308 105.057C60.7954 105.057 57.1028 104.314 56.0145 103.927L57.667 99.4546C59.0373 99.8556 61.8917 100.279 63.9614 100.266H63.9667H64.0308H64.087H64.0937C66.162 100.279 69.0124 99.8556 70.3907 99.4546L72.0405 103.927C70.9523 104.314 67.2596 105.057 64.0308 105.057ZM49.4928 99.429L52.279 98.5052L51.4541 95.8165C52.6828 96.5134 55.4342 97.5587 57.0279 98.0437L55.6842 101.738C53.2229 101.062 51.1734 100.274 49.4928 99.429ZM78.6866 98.6083L76.9927 97.9598L77.4606 96.2083L77.9754 94.3018C77.9754 94.3018 74.9753 95.9303 70.7464 97.152C69.5472 97.4961 68.6394 97.6526 68.6394 97.6526V98.9518C68.6394 98.9518 66.3772 99.345 64.0938 99.345H64.0657H64.0309H63.9868H63.9614C61.6739 99.345 59.4157 98.9518 59.4157 98.9518V97.6526C59.4157 97.6526 58.5066 97.4961 57.3087 97.152C53.0799 95.9303 50.0837 94.3018 50.0837 94.3018L50.5905 96.2083L51.0664 97.9598L49.3685 98.6083L47.4847 99.313C47.6862 99.4105 47.8951 99.5114 48.1103 99.6167L48.1161 99.6195L48.1263 99.6245H48.1267C50.2135 100.639 52.8983 101.945 55.3741 102.622L54.7284 104.387C54.7284 104.387 58.2018 105.97 63.9868 105.984V105.987H64.0042H64.0309H64.0523H64.0657V105.984C69.8587 105.97 73.3283 104.387 73.3283 104.387L72.6798 102.622C75.1758 101.939 77.888 100.618 79.9779 99.5989L79.9801 99.5982C80.1813 99.5001 80.3776 99.4048 80.5667 99.313L78.6866 98.6083ZM107.711 74.619C107.711 74.619 106.512 76.7075 103.758 76.7075H103.725C100.418 76.6876 99.0869 74.6709 99.0869 74.6709C99.0869 74.6709 99.2768 77.2942 98.0864 80.8334C96.6535 85.1022 98.0999 88.1493 98.0999 88.1493C98.0999 88.1493 97.3262 88.3577 96.438 88.3577C96.0988 88.3577 95.744 88.3242 95.409 88.2389C92.6478 87.5811 91.9609 85.0674 91.9609 85.0674C91.9609 85.0674 92.2133 93.5573 82.3161 93.5573H82.2386C82.2386 93.5573 83.1111 92.3698 83.3678 88.9578C83.8386 82.6595 88.1038 81.7934 88.1038 81.7934C88.1038 81.7934 85.8268 81.5068 84.8412 80.6236C83.2974 79.2263 83.4069 77.6099 83.4069 77.6099C86.8899 77.5616 89.1719 76.3762 90.9098 74.3666C92.7936 72.1884 93.1015 69.8422 93.1015 69.8422C93.1015 69.8422 91.2291 71.5385 87.6089 71.5385C87.291 71.5385 86.9511 71.5242 86.6012 71.4894C84.8882 71.3514 83.7034 70.262 83.7034 70.262C87.4723 67.8461 90.117 63.628 87.7717 57.2774C85.8937 52.189 81.3802 48.3867 76.8341 45.5229C75.3223 44.579 74.4803 43.5282 74.4803 42.6258C74.4803 41.3222 75.616 40.7919 76.7801 40.2481C77.5161 39.9045 78.2634 39.5555 78.7434 39.0026C80.1756 37.3407 79.2768 34.6494 78.038 33.0278C78.038 33.0278 78.4547 32.9421 79.1139 32.9421C80.4231 32.9421 82.6866 33.2697 84.5461 35.2003C87.0165 37.7552 85.9925 40.5401 85.9925 40.5401L86.6546 40.6684C87.0314 40.7487 87.4076 40.7671 87.7952 40.786L87.8521 40.7887C87.8962 40.7887 87.941 40.7901 87.9858 40.7914C88.0306 40.7927 88.0754 40.7941 88.1194 40.7941C91.7077 40.7941 93.3127 37.0413 93.3127 37.0413C93.3127 37.0413 97.1278 41.734 91.51 45.4133C90.5436 46.043 90.117 46.6273 90.2293 47.2463L90.3161 47.6554L90.7157 47.7262C94.6105 48.7823 96.6663 51.3989 99.0378 54.418C99.1459 54.5557 99.2554 54.6942 99.365 54.8335C103.187 59.6906 108.591 59.8471 109.259 59.8471H109.332C109.332 59.8471 108.098 63.7416 104.463 63.7416C104.401 63.7416 104.349 63.7416 104.29 63.7376C102.62 63.6774 101.764 63.0397 101.764 63.0397C101.764 63.0397 101.112 71.8784 107.711 74.619ZM104.463 64.9342C108.92 64.9342 110.412 60.3992 110.473 60.2053L110.971 58.6063L109.3 58.6585H109.294C108.705 58.6585 103.785 58.5288 100.299 54.0968L99.9708 53.6864L99.953 53.6645C97.6818 50.7753 95.5221 48.0292 91.6679 46.7757C91.7802 46.6754 91.9395 46.551 92.1586 46.4079C94.2094 45.0617 95.4019 43.4226 95.7013 41.5214C96.1401 38.6617 94.3139 36.3794 94.2336 36.2872L92.9927 34.7538L92.2176 36.5733L92.2162 36.5756C92.15 36.7218 90.8458 39.6029 88.1194 39.6029H87.9139L87.8464 39.5991L87.7703 39.5949C87.6345 39.5876 87.5008 39.5804 87.3714 39.5695C87.4674 38.2713 87.2306 36.2591 85.4044 34.37C83.2106 32.0985 80.5205 31.7563 79.1139 31.7563C78.4512 31.7563 77.9847 31.8291 77.8453 31.8509C77.8268 31.8538 77.814 31.8558 77.8076 31.8566L75.9331 32.2282L77.0908 33.7524C77.9961 34.9276 78.8195 37.0961 77.8439 38.2271C77.5495 38.5679 76.9614 38.8479 76.3804 39.1245L76.2766 39.1737C75.0165 39.7539 73.2899 40.5655 73.2899 42.6258C73.2899 43.9573 74.3253 45.3531 76.2005 46.539C81.7507 50.0284 85.1754 53.6717 86.6546 57.6919C88.9429 63.8767 85.9562 67.4049 83.0592 69.2633L81.7571 70.0988L82.8949 71.1445L82.8956 71.1452C83.0556 71.2853 84.4444 72.507 86.4981 72.6834C86.8885 72.7075 87.2597 72.7303 87.6089 72.7303C88.9258 72.7303 90.0501 72.5226 90.9632 72.2432C90.7122 72.6834 90.4021 73.1335 90.0153 73.5843C88.3577 75.5029 86.3189 76.3762 83.3884 76.4238L82.2983 76.4416L82.2158 77.5338C82.2051 77.7543 82.1219 79.7795 84.0405 81.5033C84.3335 81.7706 84.6876 81.9897 85.061 82.1674C83.7582 83.3386 82.4377 85.3788 82.1824 88.8711C81.9655 91.7881 81.2722 92.8661 81.2622 92.8782L80.0576 94.7164L82.2343 94.7456C85.8297 94.7456 88.581 93.755 90.4889 91.7881C91.6174 90.6254 92.2617 89.3106 92.6428 88.1493C93.2672 88.6826 94.0743 89.1506 95.1296 89.3994C95.5292 89.4926 95.9651 89.5424 96.438 89.5424C97.4258 89.5424 98.2592 89.3383 98.3893 89.3063L98.3986 89.3042L99.7874 88.9351L99.1737 87.6394L99.1708 87.6338C99.0962 87.4588 97.989 84.8782 99.2163 81.221C99.7539 79.6153 100.028 78.1781 100.161 77.0588C101.037 77.5139 102.209 77.8908 103.723 77.8958C107.111 77.8958 108.633 75.4019 108.741 75.2242L108.745 75.2178L109.423 74.0387L108.167 73.5218C104.068 71.8194 103.162 67.2498 102.98 64.7778C103.35 64.8486 103.774 64.9141 104.252 64.9275L104.463 64.9342ZM102.167 46.7624C101.252 45.8158 100.284 45.5337 99.4531 45.5337C98.1632 45.5337 97.1968 46.2156 97.1968 46.2156C99.0698 47.2125 100.138 48.5349 101.035 49.6456V49.6457C101.801 50.5921 102.441 51.3849 103.349 51.6918C103.685 51.808 104.023 51.8589 104.361 51.8589C105.818 51.8589 107.225 50.9163 107.712 49.8414C107.712 49.8414 105.04 49.6783 102.167 46.7624ZM100.109 50.3936C99.2611 49.3414 98.2912 48.1541 96.63 47.2691L94.9226 46.3506L96.5077 45.2343L96.5283 45.2212C96.7353 45.0889 97.9008 44.3439 99.4531 44.3439C100.776 44.3439 102.005 44.888 103.019 45.9215C105.487 48.4417 107.705 48.6448 107.785 48.6475L109.508 48.7491L108.796 50.3294C108.089 51.9057 106.221 53.0434 104.361 53.0434C103.883 53.0434 103.416 52.9712 102.977 52.8202C101.752 52.4148 100.965 51.4461 100.141 50.4318L100.109 50.3936ZM97.4101 63.0134V63.0735C96.4103 55.001 90.5486 49.1705 84.0242 45.6276C83.4226 45.3041 82.8643 45.0313 82.3253 44.7693C84.3093 45.0767 87.5086 45.1129 89.9769 42.9724C89.9769 42.9724 86.1994 45.7506 78.4626 43.2264C79.0834 43.6293 79.8748 44.0804 80.7772 44.5953C82.9874 45.8556 85.8674 47.4982 88.566 49.7534C98.0636 58.1 91.2697 66.2408 91.2697 66.2408C94.6816 62.6778 94.8231 58.8635 93.819 55.7457C95.6174 58.7391 96.7673 62.369 96.5866 66.8464C96.3242 73.2622 92.8 78.8096 89.0887 83.2668C87.3052 85.4314 86.9084 88.0896 86.9084 88.0896C86.9084 88.0896 87.6288 85.7429 89.6917 83.3301C93.6668 78.6745 97.0681 73.841 97.5118 66.8731C97.9235 68.1379 99.6174 71.6515 102.303 72.9749C102.303 72.9749 98.9276 70.9416 97.4101 63.0134ZM36.0926 85.0674C36.0926 85.0674 35.84 93.5573 45.7388 93.5573H45.8097C45.8097 93.5573 44.9433 92.3698 44.6893 88.9578C44.2187 82.6581 39.9511 81.7934 39.9511 81.7934C39.9511 81.7934 42.2293 81.5068 43.2173 80.6236C44.7575 79.2263 44.6479 77.6099 44.6479 77.6099C41.1651 77.5616 38.8856 76.3762 37.1355 74.3666C35.2638 72.1884 34.9536 69.8422 34.9536 69.8422C34.9536 69.8422 36.8253 71.5385 40.4418 71.5385C40.7666 71.5385 41.1036 71.5242 41.4538 71.4894C43.1705 71.3514 44.3564 70.262 44.3564 70.262C40.5822 67.8461 37.939 63.6293 40.2814 57.2774C42.1584 52.189 46.6706 48.3867 51.219 45.5229C52.7297 44.579 53.5707 43.5282 53.5707 42.6258C53.5707 41.3224 52.4367 40.792 51.2734 40.2479C50.5381 39.9041 49.7911 39.5547 49.3111 39.0012C47.8806 37.3407 48.7764 34.6481 50.0131 33.0278C50.0131 33.0278 49.6026 32.9421 48.9408 32.9421C47.6333 32.9421 45.3711 33.2697 43.5101 35.2003C41.0327 37.7552 42.0622 40.5401 42.0622 40.5401L41.4004 40.6684C41.0323 40.7468 40.6607 40.7661 40.2858 40.7857L40.2012 40.7901C40.1545 40.7901 40.1106 40.7911 40.0673 40.7921L40.0672 40.7922C40.0247 40.7931 39.9827 40.7941 39.9391 40.7941C36.34 40.7941 34.7437 37.0426 34.7437 37.0426C34.7437 37.0426 30.9293 41.734 36.5473 45.4133C37.5139 46.0417 37.939 46.6259 37.8253 47.2463L37.7398 47.6554L37.3307 47.7262C33.4378 48.7848 31.3799 51.4038 29.0033 54.4282L29.0023 54.4295C28.8971 54.5634 28.7912 54.6981 28.6846 54.8335C24.8663 59.6906 19.4649 59.8471 18.7938 59.8471H18.7189C18.7189 59.8471 19.9529 63.7416 23.5908 63.7416C23.6483 63.7416 23.7031 63.7416 23.7633 63.7376C25.4358 63.6774 26.2927 63.0397 26.2927 63.0397C26.2927 63.0397 26.9385 71.8784 20.3447 74.619C20.3447 74.619 21.5452 76.7061 24.298 76.7061H24.3301C27.6391 76.6876 28.9694 74.6709 28.9694 74.6709C28.9694 74.6709 28.7769 77.2942 29.9627 80.8334C31.3972 85.1022 29.9587 88.1493 29.9587 88.1493C29.9587 88.1493 30.7261 88.3577 31.6166 88.3577C31.9602 88.3577 32.3131 88.3242 32.6433 88.2375C35.4028 87.5811 36.0926 85.0674 36.0926 85.0674ZM46.7878 92.8711L46.791 92.8768L47.9956 94.7164L45.819 94.7456C42.224 94.7456 39.4752 93.7536 37.562 91.7881C36.4376 90.6254 35.7906 89.3106 35.4122 88.1493C34.7918 88.6826 33.9763 89.1506 32.9214 89.3994C32.5257 89.4926 32.0885 89.5424 31.6166 89.5424C30.6084 89.5424 29.7542 89.3283 29.6577 89.3042H29.6566L28.2648 88.9351L28.8811 87.6394L28.8853 87.6295C28.9721 87.4247 30.0593 84.854 28.837 81.221C28.2996 79.6138 28.0255 78.1781 27.8918 77.0588C27.0161 77.5139 25.8462 77.8908 24.3408 77.8944C20.9224 77.8944 19.398 75.3664 19.3103 75.2213L19.3085 75.2178L18.632 74.0373L19.8834 73.5218C23.9826 71.8194 24.8916 67.2498 25.0775 64.7778C24.7005 64.8486 24.2767 64.9141 23.8061 64.9275L23.5908 64.9342C19.1307 64.9342 17.6426 60.3992 17.5838 60.2053L17.0731 58.6063L18.7523 58.6585C19.3419 58.6585 24.27 58.5288 27.7527 54.0968L28.0816 53.6864L28.1051 53.6566C30.3746 50.7703 32.5309 48.0281 36.3868 46.7757C36.2745 46.6754 36.1207 46.551 35.8975 46.4079C33.8466 45.0617 32.6527 43.4226 32.3559 41.5214C31.9204 38.7157 33.6727 36.466 33.8059 36.2948L33.8118 36.2872L35.0659 34.7538L35.8386 36.5733C35.8881 36.6883 37.1877 39.6029 39.9391 39.6029H40.141C40.1869 39.6002 40.2322 39.5978 40.2772 39.5953L40.2782 39.5952H40.2784C40.4153 39.5877 40.5485 39.5805 40.6811 39.5695C40.5875 38.2699 40.8269 36.2605 42.6545 34.3687C44.8484 32.0985 47.533 31.7563 48.9408 31.7563C49.6085 31.7563 50.0718 31.8297 50.2072 31.8511L50.2201 31.8531C50.2308 31.8548 50.2384 31.856 50.243 31.8566L52.1268 32.2282L50.9637 33.7524C50.0559 34.9262 49.2323 37.0961 50.2096 38.2271C50.5005 38.5642 51.0794 38.8407 51.6546 39.1154L51.7765 39.1737C53.0386 39.7539 54.7592 40.5655 54.7592 42.6258C54.7592 43.9573 53.7325 45.3531 51.8568 46.539C46.299 50.0284 42.8791 53.6717 41.4004 57.6919C39.1156 63.8767 42.0903 67.4036 44.9982 69.2633L46.299 70.0988L45.1586 71.1445C45.0049 71.281 43.6117 72.507 41.5528 72.6834C41.1651 72.7075 40.7961 72.7303 40.4418 72.7303C39.1209 72.7303 38.0032 72.5226 37.0914 72.2432C37.3454 72.6834 37.6556 73.1321 38.0393 73.5843C39.6958 75.5015 41.74 76.3762 44.6612 76.4238L45.7588 76.4416L45.8324 77.5338C45.8457 77.7543 45.9287 79.7795 44.0115 81.5033C43.7173 81.7706 43.3684 81.9897 42.9901 82.1674C44.2949 83.3386 45.6158 85.3788 45.8752 88.8711C46.0888 91.6786 46.7359 92.7822 46.7878 92.8711ZM25.8843 46.7609C26.8028 45.8157 27.7694 45.5323 28.6036 45.5323C29.8871 45.5323 30.8591 46.2141 30.8591 46.2141C28.9911 47.2104 27.9219 48.5301 27.0231 49.6396C26.2539 50.5891 25.6094 51.3846 24.6957 51.6916C24.3695 51.808 24.0299 51.8588 23.6916 51.8588C22.2357 51.8588 20.8252 50.9162 20.3439 49.8413C20.3439 49.8413 23.0152 49.6782 25.8843 46.7609ZM23.6916 53.0433C24.1703 53.0433 24.6355 52.9724 25.0767 52.8214C26.3064 52.4141 27.0941 51.4432 27.9183 50.4274L27.9458 50.3934L27.9698 50.364C28.818 49.3204 29.7729 48.1458 31.4219 47.269L33.1332 46.3505L31.5436 45.2341L31.5222 45.2205C31.3134 45.0868 30.1529 44.3437 28.6036 44.3437C27.2787 44.3437 26.0487 44.8865 25.0339 45.9213C22.5659 48.4428 20.3533 48.646 20.273 48.6474L18.551 48.749L19.2583 50.3293C19.9682 51.9055 21.8359 53.0433 23.6916 53.0433ZM34.2345 55.746C32.4349 58.7394 31.2852 62.3679 31.471 66.8467C31.729 73.2629 35.2532 78.811 38.9566 83.2675C40.7481 85.4293 41.1506 88.0896 41.1506 88.0896C41.1506 88.0896 40.4232 85.7429 38.3617 83.3287C34.3869 78.6745 30.987 73.8389 30.5378 66.8734C30.126 68.1382 28.4348 71.6515 25.7528 72.9756C25.7528 72.9756 29.126 70.9418 30.6408 63.0123V63.0752C31.6448 55.0013 37.5047 49.1708 44.0303 45.6279C44.5668 45.3381 45.0754 45.088 45.5599 44.8497L45.7283 44.7668C43.7455 45.077 40.5463 45.1132 38.0769 42.9726C38.0769 42.9726 41.8551 45.7509 49.5894 43.2267C48.9694 43.6291 48.18 44.0795 47.2792 44.5935H47.2791L47.2791 44.5936C45.07 45.8541 42.1903 47.4973 39.4914 49.7537C29.9896 58.1003 36.7868 66.2424 36.7868 66.2424C33.3668 62.6781 33.2304 58.8624 34.2345 55.746ZM61.7913 50.5133V52.1137C62.3435 51.4425 63.4091 51.5803 63.4091 51.5803V53.8865C63.4091 53.8865 63.373 55.0229 62.9692 55.5136H64.1271H65.2781C64.8811 55.0229 64.8397 53.8865 64.8397 53.8865V51.5803C64.8397 51.5803 65.9092 51.4425 66.456 52.1137V50.5133H64.1271H61.7913ZM61.9607 41.7065C61.8725 41.6778 61.4622 41.5439 60.7991 41.0189C59.5772 40.0709 59.5531 39.1979 59.5531 39.1979L62.2671 40.3383V41.8451L61.9783 41.7127C61.9775 41.7122 61.9753 41.7113 61.9717 41.7101C61.9689 41.7092 61.9653 41.708 61.9607 41.7065ZM67.2515 41.0189C68.4775 40.0709 68.5015 39.1979 68.5015 39.1979L65.7862 40.3383V41.8451L66.0737 41.7127C66.0751 41.7118 66.081 41.7098 66.0911 41.7066L66.0912 41.7065C66.1794 41.6778 66.5896 41.544 67.2515 41.0189ZM57.4876 34.4225L64.024 37.0041L70.5617 34.4225C70.0095 33.1055 67.4466 31.9878 64.024 31.9838C60.6067 31.9878 58.0451 33.1055 57.4876 34.4225ZM64.5039 47.4083L68.8985 45.0954L70.4654 36.0107L64.5039 38.0349V47.4083ZM73.6284 48.7479L71.6195 47.5821L69.5549 46.3989L64.04 49.4017L64.0239 49.3896L64.0132 49.4017L58.4983 46.3989L56.434 47.5821L54.4206 48.7479H54.3992L53.8898 49.0434C55.0249 49.3562 55.8872 49.9178 56.6199 50.6638C56.6315 50.6749 56.6422 50.6871 56.6529 50.6994C56.6692 50.7182 56.6858 50.7372 56.7067 50.7533C56.8685 50.9271 57.029 51.117 57.1827 51.3069C57.1895 51.3151 57.1962 51.3232 57.2028 51.3313C57.2318 51.3664 57.2603 51.4008 57.2897 51.4433C57.4314 51.6304 57.5744 51.8323 57.7135 52.0368C57.7309 52.0595 57.7478 52.0852 57.7654 52.1117C57.7788 52.132 57.7925 52.1529 57.8071 52.1732C57.9729 52.4219 58.1293 52.6826 58.2844 52.95C59.7123 55.414 61.9958 56.8873 64.0239 56.89C66.0547 56.8873 68.337 55.414 69.7675 52.95C69.9252 52.6759 70.0857 52.4085 70.2515 52.1612C70.2565 52.1539 70.2616 52.1466 70.2667 52.1392C70.2865 52.1109 70.307 52.0815 70.325 52.0529C70.4654 51.8403 70.6138 51.633 70.7676 51.4339C70.7996 51.3911 70.833 51.3509 70.8611 51.3135C71.0202 51.117 71.1843 50.9258 71.3514 50.7466C71.365 50.7345 71.3778 50.722 71.3891 50.7099C71.4041 50.6954 71.4176 50.6815 71.4318 50.6691C72.1607 49.9245 73.0254 49.3562 74.161 49.0434L73.6554 48.7479H73.6284ZM78.7214 59.6709C78.7214 58.3927 79.0926 57.1079 79.542 55.9207H69.2354C67.6578 57.4863 66.143 58.0678 64.7887 58.2015C64.544 58.227 64.2953 58.243 64.044 58.243H64.0239H64.0092C63.7578 58.243 63.5065 58.227 63.2632 58.2015C63.0265 58.1815 62.7779 58.1441 62.5292 58.0866C62.4409 58.4395 62.3273 59.1735 62.6495 59.874C62.9383 60.5064 63.5186 60.9784 64.3675 61.2912L64.6536 61.4022L64.6576 61.7097C64.6576 61.8019 64.7245 63.7967 66.897 64.3502L66.9102 64.3367C67.2593 63.977 67.5765 63.6503 67.8129 63.3783C67.369 62.3314 67.6016 61.2645 68.2474 60.7417C68.2193 60.8527 67.9358 63.4691 70.0322 64.4411L70.3785 64.6069L70.2755 64.9759C70.2421 65.0856 69.5429 67.6177 72.0818 68.5603L72.5312 68.7287L72.3328 69.1659C72.288 69.2648 71.2931 71.5619 73.6377 72.8654H78.725V68.829C76.9173 68.6071 76.15 67.1538 75.9523 66.123C75.1125 65.9799 74.4618 65.615 74.0138 65.0241C73.061 63.7668 73.6931 62.6057 73.846 62.3238C73.8645 62.2903 73.8759 62.2693 73.8773 62.2619C73.8759 62.2739 73.8773 63.6443 74.7235 64.4892C75.141 64.8957 75.6394 65.2126 76.3882 65.2834L76.7587 65.3182L76.7922 65.6952C76.7986 65.7768 77.0005 67.6311 78.725 67.9212L78.7214 59.6709ZM73.7557 88.913L73.1875 91.8713C76.5795 91.0371 78.7306 88.4786 78.7306 84.8135L78.725 73.7571H49.3295V84.8135C49.3295 89.3369 52.6024 92.1671 57.4314 92.1671C61.4664 92.1671 62.5293 92.325 64.0306 93.8126C65.0642 92.7808 65.9184 92.3953 67.6752 92.2524L67.7167 92.0803L68.6445 89.2188C68.5923 89.152 67.0776 87.4325 67.0776 87.4325C66.4759 87.6316 65.9706 87.665 65.1256 87.665C64.2553 87.665 63.2726 87.5641 62.2084 87.3635C62.1015 87.3394 62.0012 87.3301 61.9009 87.3301C61.7699 87.3301 61.7632 87.3394 61.7271 87.4034L61.5439 87.707L61.207 88.2645L60.5706 88.1173L57.7509 87.4531L57.3646 88.0917L57.4221 88.16L57.763 88.5383L57.6106 89.0304C57.4047 89.6746 56.7309 90.4291 56.525 90.6346L55.8204 91.3927L55.1786 90.5799L54.696 89.974C54.1893 89.4058 54.0717 88.5383 54.3578 87.6252C54.3511 87.6316 54.339 87.6359 54.3284 87.6387L53.5329 87.9673L53.1759 87.1907L52.9232 86.6396C52.4901 85.6682 52.6492 84.251 53.8163 83.3927L56.0864 82.112L58.2483 82.5365C58.2716 82.4434 58.2998 82.2435 58.3292 82.0345C58.3657 81.7756 58.4042 81.5026 58.4382 81.398C58.4244 81.3959 58.4109 81.3938 58.3973 81.3909C58.3703 81.3866 58.3432 81.3817 58.3139 81.3817L57.0705 81.8467L55.8686 81.0204C55.8686 81.0204 55.4006 80.566 55.8244 80.1145L56.9862 78.3538L54.0409 74.6539L58.5692 76.5148L58.8714 76.1408L59.4824 75.4098L60.1762 76.069C60.3727 76.2588 60.485 76.4914 60.5399 76.7253C61.7859 77.2089 64.0239 78.6439 64.2218 80.9749L63.5213 81.2558V81.2707C63.683 81.462 63.8141 81.5395 63.8555 81.5474L67.0896 81.8659C67.1432 81.8553 67.2056 81.8361 67.2751 81.8147C67.3112 81.8034 67.3493 81.7913 67.3891 81.7799C67.7888 81.6448 68.3918 81.4457 69.1084 81.4457C69.69 81.4457 70.2515 81.5779 70.7943 81.8325C70.9935 81.7571 71.2384 81.701 71.5228 81.6839L71.6778 81.6796C73.4073 81.6796 74.2684 82.9682 74.9575 83.9993L74.9603 84.0035C75.0755 84.1842 75.1886 84.3498 75.3081 84.5184C75.9132 85.371 76.7011 86.6162 76.7346 86.6723L77.0901 87.2284L76.6542 87.7362C76.3186 88.1251 75.8122 88.581 74.9454 88.581C74.7676 88.581 74.5742 88.561 74.3602 88.5212C74.1767 88.4864 74.0082 88.4316 73.8482 88.3648C73.8247 88.5212 73.792 88.7054 73.7628 88.8704L73.7557 88.913ZM55.2348 86.0025L55.0824 85.6199C54.9728 85.371 54.9875 85.1008 55.1973 84.9543L56.434 84.101L58.4997 84.497C58.4997 84.497 58.1266 84.0291 58.1628 83.4034L56.1907 82.9859L54.331 84.1173C53.5328 84.7146 53.4754 85.6896 53.7401 86.2684L53.9861 86.8096C53.9861 86.8096 55.1346 86.3381 55.2348 86.0025ZM72.2425 92.0533L72.8775 88.7459C72.9479 88.3847 73.0147 87.9004 73.0147 87.9004C72.9799 87.8649 72.9372 87.8236 72.8889 87.7767C72.6037 87.4986 72.1287 87.035 71.8428 86.4903C71.606 86.0359 71.5619 85.696 71.5122 85.312C71.4674 84.9678 71.4176 84.5888 71.222 84.0611C71.222 84.0611 71.3493 83.8016 71.643 83.8016C71.6885 83.8016 71.7397 83.8073 71.7874 83.8201C72.1735 83.9296 72.4366 84.5838 72.7338 85.3219C73.137 86.3218 73.6021 87.4773 74.5187 87.6466C74.6766 87.6771 74.8195 87.6878 74.9454 87.6878C75.4083 87.6878 75.6821 87.493 75.9779 87.1424C75.9779 87.1424 75.1758 85.883 74.5778 85.0332C74.4512 84.8562 74.3296 84.6734 74.2073 84.4914C73.5623 83.5257 72.9266 82.5756 71.6778 82.5756C71.643 82.5756 71.6003 82.5756 71.5641 82.5806C71.075 82.6034 70.7742 82.843 70.7742 82.843C70.1739 82.4661 69.6124 82.3374 69.1084 82.3374C68.5364 82.3374 68.0424 82.4995 67.6626 82.6233C67.4255 82.7008 67.2329 82.7641 67.0936 82.7641H67.0802L63.7699 82.4355C63.2512 82.3872 62.8407 81.8659 62.6937 81.6597C62.6575 81.605 62.6375 81.5715 62.6375 81.5715C62.6375 81.4834 62.6375 81.3895 62.6322 81.3084C62.5199 78.5998 60.4222 77.4407 59.6749 77.4215C59.6749 77.4215 59.763 76.9081 59.5611 76.7104L58.8298 77.5964L56.434 76.3932L58.1453 78.3922L56.6974 80.0178C56.5143 80.2041 56.537 80.4522 56.6132 80.5582L57.2389 81.1114L58.033 80.6314C58.0718 80.6009 58.1453 80.593 58.2309 80.593C58.3324 80.593 58.4576 80.6051 58.5922 80.6179C58.7484 80.6329 58.9172 80.6492 59.0759 80.6492C59.3994 80.6492 59.6788 80.581 59.7123 80.2773C59.6824 80.5802 59.5767 80.9507 59.4603 81.3582C59.1914 82.3004 58.8663 83.4389 59.2938 84.3968L59.7484 85.4343L56.8191 85.0105L55.4487 87.3258C55.0249 88.096 54.9594 88.9287 55.3645 89.3831L55.8779 90.0252C55.8779 90.0252 56.5972 89.2629 56.7576 88.7602L56.525 88.5049C56.3284 88.2887 56.3391 88.096 56.4594 87.8649L57.3177 86.4405L60.7752 87.2533L60.9596 86.9433C61.1936 86.5529 61.5305 86.437 61.9009 86.437C62.0546 86.437 62.211 86.454 62.3728 86.481C63.0145 86.6076 64.0694 86.7762 65.1256 86.7762C66.2834 86.7762 67.4359 86.5692 68.0482 85.883C68.6893 86.8338 69.6678 87.3749 70.4429 87.8037C71.1808 88.2119 71.7347 88.5177 71.6366 88.9785L70.9694 92.1564C71.4105 92.1386 71.8371 92.1095 72.2425 92.0533ZM68.6031 92.1991C68.9707 92.1842 69.3838 92.1792 69.829 92.1792C69.829 92.1792 70.8933 89.0681 70.9534 88.9692C70.3572 88.7068 69.1205 88.0505 68.6418 87.7497C68.7449 87.904 68.8965 88.0661 69.0484 88.2275C69.3613 88.561 69.6758 88.8967 69.5723 89.1776L68.6031 92.1991ZM55.5437 59.7029L55.4059 64.9545L56.0035 65.0467L57.4635 60.0051L56.7228 58.4556L55.5437 59.7029ZM57.0357 67.4092C56.7937 67.2554 56.4461 66.9867 56.2522 66.5816C56.033 66.115 55.7161 65.8984 55.2549 65.8984C54.6532 65.8984 54.0115 66.2594 53.7347 66.4291C53.5155 67.7247 54.4701 68.8985 55.1105 69.1352C55.6907 69.3464 56.3953 69.3906 56.7562 69.3906C56.7611 69.3747 56.7668 69.3574 56.7732 69.3386C56.7844 69.305 56.7973 69.2668 56.8084 69.2247C56.8392 69.1191 56.8686 69.0108 56.8926 68.8958C56.9929 68.3745 57.029 67.7875 57.0357 67.4092ZM65.8154 70.9574C66.6631 70.3651 68.9987 68.6605 69.9039 67.9934C69.2448 67.0308 69.1819 65.8877 69.3303 65.0856C68.8985 64.8088 68.5696 64.4946 68.3062 64.163C67.3056 65.2542 65.4366 67.073 65.0096 67.4885C64.9642 67.5327 64.9351 67.561 64.9251 67.5709L64.7927 67.7047L57.9408 67.595C57.9355 68.2755 57.8258 68.8517 57.7189 69.2756C57.7085 69.3178 57.6972 69.361 57.6858 69.4046C57.6781 69.4341 57.6702 69.4637 57.6627 69.4935L65.8154 70.9574ZM61.6682 57.8325C60.7577 57.501 59.7978 56.894 58.8165 55.9207H48.5126C48.9551 57.1079 49.3295 58.3927 49.3295 59.6709V72.8654H72.1941C71.051 71.6864 71.0697 70.1927 71.3571 69.2247C71.0256 69.0643 70.7515 68.8731 70.5069 68.6619C69.6124 69.321 66.8877 71.3052 66.1724 71.8051L66.02 71.9054L57.0477 70.2863H56.8645C56.6493 70.2863 56.3351 70.277 55.9902 70.2355C55.8939 70.6405 55.5437 70.916 55.1439 70.916C55.0984 70.916 55.0476 70.9133 55.0008 70.9039C54.7668 70.8638 54.5637 70.7449 54.4273 70.5483C54.2869 70.3558 54.2321 70.1258 54.2708 69.8905L54.3029 69.6953C53.3791 69.0443 52.5248 67.5883 52.9032 66.0522L52.9392 65.889L53.0716 65.7968C53.089 65.7821 53.2441 65.6765 53.4754 65.5454L52.8242 65.4452C52.5796 65.4024 52.4151 65.1737 52.4539 64.9345C52.4953 64.6911 52.7253 64.5147 52.966 64.5615L54.5195 64.8088L54.6612 59.3393L56.9729 56.894L58.4154 59.9302L56.8926 65.1912L58.2644 65.4078C58.5064 65.4465 58.6708 65.6724 58.6346 65.9211C58.5986 66.1417 58.4114 66.2901 58.1948 66.2901C58.1708 66.2901 58.148 66.2901 58.1239 66.2875L57.0089 66.1083C57.0158 66.1239 57.0242 66.1364 57.0325 66.1487C57.0419 66.1628 57.0513 66.1767 57.0584 66.1952C57.1761 66.4425 57.4408 66.6164 57.5959 66.6939L64.4344 66.8022L64.4622 66.7749C64.7685 66.4757 65.4664 65.794 66.1818 65.0722C64.4973 64.4344 63.8863 62.9852 63.7833 62.0212C62.8434 61.6201 62.1937 61.0199 61.8327 60.2404C61.3942 59.2738 61.5493 58.3045 61.6682 57.8325ZM63.548 38.0349L57.5811 36.0107L59.1534 45.0954L63.548 47.4083V38.0349ZM64.0387 30.5346C68.2875 30.5346 72.1379 32.5921 72.1379 34.8797L72.0547 35.4425L70.3571 45.1836L72.0547 46.1729L76.4722 48.7479H76.4565C76.4565 48.7479 77.4499 49.2573 77.9029 49.5715C79.5918 50.736 79.9445 52.4392 78.9682 53.1425C78.725 51.7547 77.6298 50.3055 75.5776 50.3055C74.0978 50.3055 72.9721 51.0649 72.0547 52.2133C71.8265 52.5021 71.6046 52.8109 71.3948 53.1425C71.1381 53.5623 70.8839 53.9299 70.6299 54.2829H81.9925C81.1541 55.9622 80.3626 57.7389 80.3626 59.6709V84.8135C80.3626 90.9006 75.6892 93.8034 70.6232 93.8034C70.3282 93.8034 70.0524 93.8026 69.7938 93.8012C66.6184 93.7898 66.0173 93.7877 64.0306 95.7767C62.0353 93.7877 61.4335 93.7898 58.2602 93.8012C58.0018 93.8026 57.7262 93.8034 57.4314 93.8034C52.3697 93.8034 47.689 90.9006 47.689 84.8135V59.6709C47.689 57.7389 46.8962 55.9622 46.0606 54.2829H57.4221C57.1667 53.9299 56.91 53.5623 56.6546 53.1425C56.4488 52.8109 56.2255 52.5021 55.9902 52.2133C55.0824 51.0689 53.954 50.3055 52.4753 50.3055C50.4204 50.3055 49.3241 51.7547 49.0834 53.1425C48.1088 52.4392 48.4658 50.736 50.145 49.5715C50.6049 49.2573 51.5969 48.7479 51.5969 48.7479H51.5809L55.9902 46.1729L57.6961 45.1836L55.9982 35.4425L55.914 34.8797C55.914 32.5921 59.7644 30.5346 64.0133 30.5346H64.0239H64.0347H64.0387Z" fill="#231F20"/>
</g>
</g>
<defs>
<clipPath id="clip0_22_157">
<rect width="128.711" height="128" fill="white"/>
</clipPath>
</defs>
</svg>
