<svg width="126" height="126" viewBox="0 0 126 126" fill="none" xmlns="http://www.w3.org/2000/svg">
<path d="M98 0H28C12.536 0 0 12.536 0 28V98C0 113.464 12.536 126 28 126H98C113.464 126 126 113.464 126 98V28C126 12.536 113.464 0 98 0Z" fill="#FFDD2D"/>
<path fill-rule="evenodd" clip-rule="evenodd" d="M116.157 55.5548L111.594 55.699C111.206 55.699 108.404 55.6191 105.684 53.6557C105.888 53.6743 106.09 53.7042 106.298 53.7042C109.096 53.7042 111.808 52.0279 112.892 49.6261L114.855 45.2909C112.391 45.3237 110.142 45.0138 110.142 45.0138C110.123 45.0124 108.348 44.784 106.296 42.6978C104.826 41.2028 103.004 40.4102 101.032 40.4102C100.169 40.4102 99.3979 40.5659 98.7322 40.7758C98.8372 40.4245 98.9331 40.0675 98.9905 39.7006C99.6191 35.6424 96.9976 32.5495 96.9962 32.5524L93.5613 28.32L91.4333 33.2921C91.4263 33.3064 90.8873 34.473 89.9269 35.0398C89.6385 33.5791 88.9245 31.9355 87.4006 30.3677C84.5278 27.409 81.0327 26.9663 79.2036 26.9663C78.3573 26.9663 77.7518 27.0577 77.6041 27.082L73.4601 27.8916C73.6995 26.972 74.2105 25.3656 75.1401 23.9206L77.4277 20.3764L71.6723 21.0276L69.8403 17.1536L66.2906 18.9743L63.0093 15.75L59.7366 18.9743L56.1798 17.1536L54.3504 21.0276L48.597 20.375L50.8883 23.922C51.8195 25.3656 52.3274 26.9678 52.5642 27.8874L48.6099 27.112L48.4736 27.0892C48.277 27.0577 47.6759 26.9663 46.8236 26.9663C44.9957 26.9663 41.4991 27.409 38.6339 30.3662C37.1087 31.9341 36.3928 33.5791 36.1016 35.0398C35.1474 34.4772 34.6123 33.3306 34.6123 33.3306L32.4802 28.33L28.9937 32.5881C28.5662 33.1364 26.4671 36.0451 27.0367 39.7048C27.0955 40.0704 27.1916 40.4245 27.2949 40.7758C26.6335 40.563 25.8616 40.4102 24.9992 40.4102C23.0264 40.4102 21.2057 41.2028 19.7308 42.6978C17.6848 44.7754 16.2926 44.9214 15.9372 45.0096C15.5819 45.0977 14.0706 45.3437 11.1824 45.2909L13.1366 49.6261C14.2213 52.0279 16.9344 53.7042 19.7279 53.7042C19.9388 53.7042 20.1397 53.6743 20.3463 53.6557C17.6317 55.6191 14.8296 55.699 14.491 55.7005L9.84375 55.5548L11.2512 59.95C11.9601 62.2147 14.3289 65.9658 18.8613 66.3699C18.3677 68.4261 17.2745 70.7322 14.8726 71.7262L11.4105 73.1451L13.2987 76.4183C14.3633 78.183 16.8684 80.248 20.431 80.248C21.2 80.2452 21.9432 80.1682 22.6606 80.0163C22.8442 80.8234 23.0724 81.6319 23.3435 82.4341C24.4038 85.5771 23.4899 87.7674 23.4798 87.7919L21.7696 91.3556L25.5861 92.3566C25.6334 92.3713 26.787 92.6863 28.2304 92.6863C28.8847 92.6863 29.5131 92.6191 30.0971 92.4798C30.5404 92.3769 30.9679 92.2397 31.3769 92.0738C31.8718 92.9551 32.4716 93.7601 33.1703 94.4811C35.6166 96.9787 39.083 98.2443 43.472 98.2443H43.4864L46.6199 98.2037L40.1462 100.884L45.0617 103.249C46.8495 104.115 48.9643 105.138 51.1222 105.922L50.5067 107.594L52.2026 108.362C52.3533 108.431 55.6116 109.88 61.0265 110.19C61.0265 110.19 62.335 110.25 63.0552 110.25C63.7741 110.25 65.0653 110.186 65.0653 110.186C70.4473 109.868 73.6799 108.431 73.8304 108.362L75.5293 107.591L74.9091 105.918C77.126 105.111 79.3226 104.046 81.0355 103.213L85.8578 100.881L79.4059 98.2037L82.5524 98.2443C86.9484 98.2443 90.4148 96.9773 92.8571 94.4769C93.5529 93.7615 94.1514 92.9593 94.6491 92.0738C95.0593 92.2397 95.4898 92.3769 95.9343 92.4826C96.5188 92.6191 97.1439 92.6863 97.7984 92.6863C99.2173 92.6863 100.382 92.3755 100.414 92.365L104.246 91.3556L102.576 87.857C102.537 87.7674 101.623 85.5771 102.685 82.4313C102.953 81.6284 103.18 80.8206 103.365 80.0163C104.086 80.1682 104.838 80.2452 105.613 80.248C110.152 80.248 112.327 77.0721 112.747 76.3812L114.618 73.1423L111.156 71.729C108.749 70.7322 107.658 68.4275 107.17 66.3727C111.644 65.9844 114.044 62.2303 114.778 59.9514L116.157 55.5548Z" fill="#FEFEFE"/>
<path fill-rule="evenodd" clip-rule="evenodd" d="M70.5712 26.4567C68.4834 25.3001 65.7759 24.6419 63.0097 24.6419C60.2578 24.6419 57.5503 25.3001 55.457 26.4567C55.2662 25.8213 55.0007 25.0488 54.6392 24.2406L55.4255 24.3334L56.2519 24.4205L56.6077 23.6694L57.6494 21.4547L59.5805 22.4499L60.3295 22.8284L60.925 22.243L63.0097 20.1853L65.0987 22.243L65.697 22.8284L66.4459 22.4499L68.3672 21.4547L69.4231 23.6694L69.7718 24.4205L70.5999 24.3334L71.3888 24.2406C71.0269 25.0488 70.7588 25.8213 70.5712 26.4567ZM63.0096 29.2087C59.3423 29.2129 56.5933 30.4081 55.995 31.8146L63.0096 34.5719L70.0259 31.8146C69.4331 30.4081 66.6827 29.2129 63.0096 29.2087ZM63.084 102.139H63.0768H63.0165H62.9476H62.9419C60.7223 102.153 57.659 101.699 56.187 101.272L54.4136 106.047C55.5815 106.461 59.5444 107.257 63.0165 107.257C66.4815 107.257 70.4459 106.461 71.6121 106.047L69.8417 101.272C68.3639 101.699 65.305 102.153 63.084 102.139ZM70.5236 99.7654C72.2372 99.2467 75.1849 98.1302 76.5051 97.3868L75.6238 100.256L78.6107 101.244C76.8047 102.147 74.6158 102.989 71.9628 103.71L70.5236 99.7654ZM49.5207 97.3868L50.4045 100.256L47.4147 101.244C49.2194 102.147 51.4173 102.989 54.0599 103.71L55.5017 99.7654C53.7916 99.2467 50.8406 98.1302 49.5207 97.3868ZM105.212 50.2594C105.573 50.3836 105.937 50.4379 106.298 50.4379C107.864 50.4379 109.373 49.4312 109.894 48.2803C109.894 48.2803 107.027 48.1075 103.942 44.9932C102.962 43.9837 101.922 43.6823 101.032 43.6823C99.6471 43.6823 98.6083 44.4078 98.6083 44.4078C100.619 45.4732 101.765 46.886 102.728 48.0728C103.549 49.0843 104.236 49.9315 105.212 50.2594ZM20.8034 50.2594C20.4534 50.3836 20.0875 50.4379 19.7259 50.4379C18.162 50.4379 16.6483 49.4312 16.1332 48.2817C16.1332 48.2817 18.9985 48.1075 22.079 44.9932C23.0646 43.9822 24.102 43.6823 24.9987 43.6823C26.3747 43.6823 27.4163 44.4092 27.4163 44.4092C25.4113 45.4723 24.2638 46.8824 23.2989 48.068C22.474 49.0815 21.7827 49.931 20.8034 50.2594ZM104.09 72.9904C101.207 71.5771 99.3895 67.8243 98.9492 66.4735C98.4704 73.913 94.8213 79.0776 90.5541 84.0497C88.3393 86.6271 87.5672 89.1331 87.5672 89.1331C87.5672 89.1331 87.9949 86.2932 89.9087 83.9825C93.8903 79.2232 97.6738 73.2977 97.9552 66.4449C98.147 61.6628 96.9136 57.7859 94.9851 54.5888C96.0638 57.9173 95.9105 61.9927 92.2488 65.7981C92.2488 65.7981 99.5407 57.1034 89.348 48.1889C86.4521 45.7802 83.3609 44.0258 80.9893 42.6798V42.6797C80.0205 42.1298 79.1714 41.6481 78.505 41.2178C86.807 43.9137 90.8614 40.9465 90.8614 40.9465C88.2112 43.2326 84.7777 43.194 82.6504 42.8642C83.2286 43.144 83.8285 43.4368 84.4739 43.7823C91.4739 47.5663 97.7655 53.7935 98.8386 62.4167V62.3511C100.467 70.819 104.09 72.9904 104.09 72.9904ZM106.221 63.125C106.287 63.1293 106.341 63.1293 106.407 63.1293C110.309 63.1293 111.631 58.9697 111.631 58.9697H111.555C110.839 58.9697 105.037 58.8012 100.936 53.615C100.822 53.47 100.708 53.3256 100.595 53.1822V53.1821C98.0455 49.9505 95.8384 47.152 91.6552 46.0227L91.2247 45.9485L91.1323 45.5115C91.0105 44.849 91.4697 44.225 92.5071 43.5538C98.5376 39.6242 94.4412 34.6108 94.4412 34.6108C94.4412 34.6108 92.7192 38.6204 88.8671 38.6204C88.8209 38.6204 88.774 38.619 88.7264 38.6176C88.6788 38.6161 88.6298 38.6147 88.5815 38.6147L88.4961 38.6103C88.0887 38.5893 87.6932 38.5689 87.2963 38.4862L86.5872 38.3476C86.5872 38.3476 87.6848 35.3733 85.0332 32.6445C83.0361 30.584 80.6071 30.2342 79.2036 30.2342C78.498 30.2342 78.0486 30.3242 78.0486 30.3242C79.3807 32.0562 80.3432 34.9321 78.8067 36.707C78.2915 37.2966 77.49 37.6692 76.7004 38.0361C75.4495 38.6172 74.2294 39.1841 74.2294 40.5767C74.2294 41.5405 75.1352 42.6629 76.7564 43.6709C81.6361 46.7281 86.4794 50.7877 88.4954 56.2252C91.0105 63.0079 88.1755 67.5101 84.1295 70.0931C84.1295 70.0931 85.3993 71.2558 87.2389 71.4042C87.6134 71.4399 87.9788 71.4581 88.3204 71.4581C92.2061 71.4581 94.2158 69.6435 94.2158 69.6435C94.2158 69.6435 93.8847 72.1497 91.8631 74.4758C89.9962 76.6234 87.5483 77.8897 83.8124 77.9408C83.8124 77.9408 83.6948 79.6677 85.3475 81.1608C86.408 82.1037 88.8517 82.4089 88.8517 82.4089C88.8517 82.4089 84.2744 83.3329 83.7697 90.0599C83.4953 93.7055 82.5587 94.9732 82.5587 94.9732H82.6399C93.2617 94.9732 92.9908 85.9075 92.9908 85.9075C92.9908 85.9075 93.7279 88.5906 96.6924 89.292C97.0494 89.383 97.4316 89.4201 97.7956 89.4201C98.7483 89.4201 99.5778 89.1975 99.5778 89.1975C99.5778 89.1975 98.0252 85.9404 99.5666 81.3841C100.842 77.6027 100.637 74.8027 100.637 74.8027C100.637 74.8027 102.067 76.9545 105.614 76.9748H105.651C108.605 76.9748 109.892 74.7453 109.892 74.7453C102.81 71.8193 103.51 62.3782 103.51 62.3782C103.51 62.3782 104.43 63.0607 106.221 63.125ZM27.0723 66.4722C27.5544 73.913 31.203 79.0776 35.4686 84.0483C37.6825 86.6271 38.4644 89.1317 38.4644 89.1317C38.4644 89.1317 38.0311 86.2918 36.1086 83.9846C32.1357 79.2232 28.3522 73.2963 28.0738 66.445C27.8744 61.6615 29.1097 57.7847 31.0409 54.589C29.9634 57.9189 30.1112 61.9927 33.777 65.7996C33.777 65.7996 26.4841 57.1036 36.6824 48.189C39.5761 45.7814 42.6627 44.0281 45.032 42.6823C46.0015 42.1316 46.8509 41.6491 47.5179 41.2179C39.2192 43.9138 35.1645 40.9451 35.1645 40.9451C37.8131 43.2327 41.245 43.1942 43.3757 42.8643L43.3268 42.888C42.7647 43.1607 42.1753 43.4467 41.5521 43.7839C34.549 47.5664 28.2618 53.795 27.1843 62.4169V62.3497C25.5587 70.8176 21.9373 72.9904 21.9373 72.9904C24.8169 71.5771 26.6318 67.823 27.0723 66.4722ZM40.6813 81.1601C39.621 82.1037 37.1747 82.4089 37.1747 82.4089C37.1747 82.4089 41.7559 83.3315 42.2595 90.0599C42.5335 93.7055 43.4619 94.9718 43.4619 94.9718H43.3872C32.7627 94.9718 33.0354 85.9061 33.0354 85.9061C33.0354 85.9061 32.2936 88.5906 29.3336 89.292C28.9792 89.383 28.6004 89.4201 28.2303 89.4201C27.2776 89.4201 26.4526 89.1975 26.4526 89.1975C26.4526 89.1975 27.9964 85.9418 26.4569 81.3841C25.1842 77.6027 25.3909 74.8013 25.3909 74.8013C25.3909 74.8013 23.9618 76.9545 20.4122 76.9762H20.3764C17.4235 76.9762 16.1337 74.7453 16.1337 74.7453C23.2114 71.82 22.5184 62.3783 22.5184 62.3783C22.5184 62.3783 21.5988 63.0609 19.8038 63.1251C19.7379 63.1294 19.679 63.1294 19.6173 63.1294C15.7133 63.1294 14.3904 58.9699 14.3904 58.9699H14.4693C15.1896 58.9699 20.9861 58.8014 25.0853 53.6151C25.2008 53.4691 25.3155 53.3239 25.4294 53.1796L25.4297 53.1793C27.9791 49.9502 30.1876 47.1532 34.3625 46.0229L34.8015 45.9472L34.8948 45.5117C35.0168 44.8491 34.5591 44.2237 33.5232 43.554C27.4928 39.6243 31.5876 34.6123 31.5876 34.6123C31.5876 34.6123 33.2993 38.6205 37.1632 38.6205C37.2091 38.6205 37.2539 38.6195 37.2995 38.6184H37.2996C37.3465 38.6173 37.3942 38.6162 37.4444 38.6162L37.5565 38.6101C37.9527 38.5884 38.3431 38.5672 38.7299 38.4862L39.4416 38.3478C39.4416 38.3478 38.3383 35.3734 40.9955 32.6446C42.9913 30.5842 45.4217 30.2329 46.8221 30.2329C47.5323 30.2329 47.9757 30.3242 47.9757 30.3242C46.6471 32.0563 45.6843 34.9321 47.2209 36.7057C47.7353 37.296 48.5366 37.669 49.3254 38.0362C50.5743 38.6176 51.7921 39.1844 51.7921 40.5767C51.7921 41.5392 50.8882 42.6629 49.267 43.6711C44.3873 46.7283 39.5449 50.7892 37.5305 56.2254C35.0168 63.0094 37.8519 67.5117 41.9023 70.0931C41.9023 70.0931 40.6311 71.2558 38.7873 71.4042C38.4129 71.4399 38.0513 71.4574 37.7027 71.4574C33.8216 71.4574 31.8115 69.6436 31.8115 69.6436C31.8115 69.6436 32.1458 72.1497 34.1545 74.4772C36.0326 76.6234 38.4788 77.8897 42.215 77.9415C42.215 77.9415 42.3327 79.6677 40.6813 81.1601ZM60.6128 48.9998H63.119H65.6182V50.7088C65.0314 49.9921 63.8837 50.1391 63.8837 50.1391V52.602C63.8837 52.602 63.9282 53.8156 64.3543 54.3396H63.119H61.8767C62.3099 53.8156 62.3487 52.602 62.3487 52.602V50.1391C62.3487 50.1391 61.2052 49.9921 60.6128 50.7088V48.9998ZM55.1572 49.2573C55.3308 49.4429 55.5016 49.6442 55.668 49.8484L55.6909 49.8759V49.876C55.7212 49.9126 55.7506 49.948 55.7828 49.9926C55.9349 50.194 56.0885 50.4082 56.2376 50.6281C56.2567 50.6528 56.2753 50.6804 56.2945 50.7089L56.313 50.7364L56.3234 50.7514L56.3301 50.761L56.3381 50.7723C56.516 51.0393 56.6839 51.3163 56.8503 51.6019C58.3826 54.2336 60.8332 55.8086 63.0098 55.8115C65.1878 55.8086 67.6369 54.2336 69.1736 51.6019C69.3429 51.3092 69.5151 51.025 69.693 50.7594C69.7203 50.7223 69.7475 50.6837 69.7719 50.6438C69.9226 50.4168 70.0819 50.1968 70.2471 49.9826C70.2695 49.9534 70.2912 49.926 70.3122 49.8996L70.3472 49.8556C70.518 49.6442 70.6944 49.4415 70.8736 49.2501C70.8862 49.238 70.8981 49.2262 70.9093 49.2147V49.2146C70.9261 49.1975 70.9422 49.1812 70.9597 49.1659C71.7402 48.3719 72.6698 47.7651 73.8885 47.4295L73.346 47.1154H73.3173L71.1606 45.8702L68.9454 44.6065L63.027 47.8136L63.0098 47.7993L62.9983 47.8136L57.0784 44.6065L54.8646 45.8702L52.7038 47.1154H52.6794L52.1328 47.4295C53.3523 47.7651 54.2792 48.3648 55.0625 49.1601C55.076 49.173 55.0881 49.1865 55.1001 49.2001C55.1176 49.2198 55.1352 49.2395 55.1572 49.2573ZM61.1234 39.7403V38.1327L58.2125 36.9133C58.2125 36.9133 58.2383 37.8471 59.5481 38.8608C60.2572 39.4175 60.6968 39.5605 60.7935 39.592C60.8052 39.5957 60.8119 39.5979 60.8135 39.599L61.1234 39.7403ZM62.4983 35.6714V45.684L57.7836 43.2123L56.0949 33.5124L62.4983 35.6714ZM64.9005 38.1327L67.8113 36.9133C67.8113 36.9133 67.7869 37.8471 66.4728 38.8608C65.7628 39.4202 65.3227 39.5619 65.2278 39.5924C65.2169 39.5959 65.2105 39.5979 65.2089 39.599L64.9005 39.7403V38.1327ZM68.2399 43.2123L69.9229 33.5124L63.5239 35.6714V45.684L68.2399 43.2123ZM55.2098 69.1602C54.8239 69.1602 54.0664 69.1146 53.4438 68.889C52.7566 68.6363 51.7323 67.3813 51.9676 65.9992C52.2646 65.8179 52.9532 65.4324 53.5973 65.4324C54.0937 65.4324 54.4323 65.6637 54.6704 66.162C54.877 66.5946 55.25 66.8815 55.5111 67.0458C55.5025 67.4498 55.4638 68.0766 55.3547 68.632C55.3304 68.7562 55.2988 68.8704 55.2658 68.9832C55.253 69.0322 55.2382 69.0758 55.2255 69.113L55.2183 69.1343C55.2153 69.1434 55.2124 69.1521 55.2098 69.1602ZM64.1616 67.0404L64.1616 67.0404L64.0272 67.1711C64.0014 67.1963 63.9843 67.2131 63.9769 67.2206L63.8348 67.3605L56.4802 67.2448C56.4759 67.9702 56.3568 68.5871 56.242 69.0383C56.2234 69.114 56.2033 69.1925 56.1832 69.2711L64.9325 70.8358C65.8421 70.2037 68.3472 68.3829 69.32 67.6689C68.6127 66.6422 68.5452 65.4213 68.7059 64.5617C68.2396 64.2676 67.8866 63.9335 67.6054 63.5794C66.5941 64.6758 64.7561 66.4626 64.1628 67.0392L64.162 67.0401L64.1616 67.0404ZM63.831 57.2121C65.283 57.0679 66.9072 56.4482 68.6031 54.776H79.6635C79.1819 56.0441 78.7829 57.4163 78.7829 58.7813L78.7871 67.5931C76.9363 67.2832 76.7165 65.3013 76.7095 65.2156L76.6766 64.8101L76.279 64.7758C75.4726 64.7001 74.942 64.3617 74.4912 63.9262C73.5847 63.0223 73.5833 61.5601 73.5847 61.5487C73.5847 61.55 73.584 61.5517 73.5833 61.5538C73.5819 61.5569 73.5798 61.561 73.5777 61.5659C73.5721 61.5775 73.563 61.5939 73.5511 61.6149C73.3866 61.9162 72.7076 63.1573 73.731 64.4988C74.2105 65.1299 74.9091 65.5183 75.8114 65.6725C76.0235 66.7706 76.8446 68.3242 78.7871 68.5598V72.8749H73.3278C70.8113 71.4784 71.8788 69.0253 71.9264 68.9211L72.1399 68.457L71.6576 68.2742C68.9316 67.2689 69.682 64.5631 69.7179 64.4445L69.8284 64.0519L69.4582 63.8776C67.2071 62.8381 67.5113 60.0423 67.5414 59.9251C66.8498 60.4835 66.6002 61.6229 67.0765 62.7396C66.833 63.0184 66.5095 63.3513 66.1526 63.7186L66.1521 63.719L66.1517 63.7194L66.0937 63.7791C63.7621 63.1865 63.689 61.0546 63.689 60.959L63.6833 60.6305L63.3776 60.512C62.468 60.1764 61.8425 59.6738 61.5354 58.9984C61.1896 58.2516 61.3116 57.4663 61.4063 57.0893C61.6731 57.1492 61.9372 57.1893 62.1925 57.2121C62.4551 57.2392 62.7219 57.2549 62.9946 57.2549H63.0103H63.0304C63.3016 57.2549 63.5656 57.2392 63.831 57.2121ZM53.9094 58.8142L53.7602 64.4239L54.4029 64.521L55.9695 59.1383L55.1748 57.4821L53.9094 58.8142ZM56.998 79.2449C56.9866 79.4276 57.1199 79.5816 57.302 79.5858C57.4784 79.6019 57.6303 79.4661 57.6476 79.2876C57.6548 79.1161 57.5243 78.9565 57.3408 78.9495C57.1615 78.9334 57.0138 79.072 56.998 79.2449ZM71.3405 84.5726C71.2894 84.5586 71.2348 84.5537 71.1872 84.5537C70.8715 84.5537 70.7336 84.8309 70.7336 84.8309C70.945 85.3951 70.9982 85.8004 71.0458 86.1672C71.0997 86.576 71.1473 86.9386 71.4007 87.423C71.7024 88.0005 72.2036 88.4884 72.5109 88.7866C72.5669 88.8419 72.6173 88.8902 72.6579 88.9322C72.6579 88.9322 72.5858 89.4474 72.5116 89.8345L71.8284 93.366C71.3937 93.4255 70.9373 93.457 70.4641 93.4787L71.1802 90.0816C71.2845 89.5909 70.6909 89.264 69.8998 88.8286C69.0678 88.3708 68.0167 87.7926 67.3277 86.7755C66.6705 87.5112 65.4351 87.731 64.1926 87.731C63.0592 87.731 61.9272 87.5497 61.237 87.4139C61.0634 87.3887 60.897 87.367 60.732 87.367C60.3345 87.367 59.9715 87.4895 59.7204 87.9081L59.5239 88.2406L55.815 87.3698L54.891 88.8937C54.7619 89.1387 54.7533 89.3459 54.9627 89.5762L55.2124 89.8485C55.0402 90.3854 54.2683 91.1995 54.2683 91.1995L53.7174 90.5142C53.2812 90.0284 53.3529 89.1387 53.8048 88.3169L55.277 85.8466L58.4191 86.296L57.9328 85.1893C57.474 84.1666 57.8234 82.95 58.1124 81.9441L58.1125 81.9434C58.2375 81.508 58.3512 81.1125 58.3833 80.7884C58.3474 81.1125 58.0475 81.1867 57.6989 81.1867C57.5295 81.1867 57.3489 81.1692 57.1816 81.1531C57.0371 81.1384 56.9026 81.1258 56.7935 81.1258C56.7003 81.1258 56.6213 81.1356 56.5797 81.1657L55.7275 81.6809L55.0574 81.0915C54.9757 80.9788 54.9498 80.71 55.1464 80.5112L56.7003 78.7766L54.8651 76.6416L57.4363 77.9268L58.2226 76.9804C58.4377 77.189 58.3431 77.7399 58.3431 77.7399C59.1437 77.7602 61.3963 78.9964 61.5154 81.8895C61.5196 81.9777 61.5196 82.0764 61.5196 82.1737C61.5196 82.1737 61.5426 82.208 61.5814 82.2682C61.7406 82.4852 62.1796 83.0417 62.7349 83.0949L66.2903 83.4442H66.3032C66.4534 83.4442 66.6605 83.377 66.9154 83.2937C67.3227 83.1614 67.852 82.9892 68.4654 82.9892C69.0063 82.9892 69.6089 83.1264 70.2534 83.5303C70.2534 83.5303 70.5775 83.2762 71.1011 83.2475C71.141 83.2447 71.1872 83.2447 71.2229 83.2447C72.5627 83.2447 73.2438 84.2569 73.9354 85.2852C74.0663 85.4805 74.1986 85.6765 74.3351 85.8662C74.9763 86.7755 75.8387 88.1223 75.8387 88.1223C75.5202 88.4954 75.2262 88.7047 74.7313 88.7047C74.5962 88.7047 74.4415 88.6949 74.2721 88.6592C73.2893 88.48 72.7902 87.2466 72.3576 86.1784C72.0384 85.3895 71.7549 84.6902 71.3405 84.5726ZM52.2376 87.766C52.2376 87.766 53.4685 87.262 53.5776 86.905L53.4126 86.4948C53.2964 86.2295 53.3136 85.9411 53.5374 85.7836L54.8644 84.8715L57.0809 85.2957C57.0809 85.2957 56.6807 84.7959 56.7194 84.1274L54.6019 83.6822L52.6078 84.8904C51.7513 85.5281 51.6896 86.569 51.9723 87.1871L52.2376 87.766ZM69.2403 93.499C68.7598 93.499 68.3194 93.5046 67.9234 93.5221L68.9649 90.2937C69.0743 89.9941 68.7356 89.635 68.3993 89.278C68.2372 89.1058 68.0756 88.9343 67.965 88.7705C68.4786 89.0904 69.8056 89.7925 70.4452 90.0739C70.3808 90.1782 69.2403 93.499 69.2403 93.499Z" fill="white"/>
<path fill-rule="evenodd" clip-rule="evenodd" d="M71.7773 72.8749H47.2411V58.7812C47.2411 57.4161 46.8394 56.0439 46.3644 54.7759H57.4223C58.4739 55.8154 59.5027 56.4637 60.4827 56.8193C60.3564 57.3205 60.1871 58.3557 60.6591 59.3895C61.045 60.222 61.7424 60.8631 62.7539 61.2915C62.8615 62.3196 63.5186 63.8675 65.325 64.5515C64.5315 65.3468 63.7625 66.0965 63.4512 66.3978L56.1109 66.2821C55.9444 66.1992 55.6604 66.0122 55.5341 65.7495C55.5264 65.7295 55.5162 65.7145 55.5057 65.6991C55.4967 65.6859 55.4875 65.6724 55.4796 65.6552L56.6776 65.848C56.7034 65.8509 56.7293 65.8509 56.7551 65.8509C56.9861 65.8509 57.1884 65.6924 57.2257 65.4568C57.2644 65.1912 57.088 64.9484 56.8297 64.9099L55.3548 64.6786L56.9904 59.0583L55.4409 55.8154L52.9601 58.4257L52.8095 64.2687L51.1423 64.006C50.884 63.956 50.6386 64.1417 50.5927 64.4015C50.554 64.6585 50.729 64.9027 50.9902 64.9484L51.6903 65.0541C51.4407 65.1955 51.2757 65.3083 51.2556 65.324L51.1136 65.4225L51.0748 65.5967C50.6688 67.236 51.5856 68.7924 52.5785 69.4878L52.5412 69.6948C52.501 69.9461 52.5598 70.1918 52.7119 70.399C52.8568 70.609 53.0749 70.7343 53.326 70.7784C53.3762 70.7889 53.4307 70.7931 53.4809 70.7931C53.9085 70.7931 54.2844 70.497 54.3877 70.063C54.7579 70.1092 55.0965 70.1162 55.3275 70.1162H55.5212L65.1514 71.8494L65.3164 71.7409C66.0811 71.2082 69.008 69.0879 69.9665 68.3826C70.2289 68.6096 70.5243 68.8124 70.882 68.9823C70.5691 70.0189 70.5502 71.6142 71.7773 72.8749ZM47.241 73.8255H78.7857L78.792 85.6345C78.792 89.5489 76.4834 92.2817 72.8434 93.1728L73.4531 90.013L73.4608 89.9682C73.4923 89.7918 73.5266 89.5944 73.5518 89.4271C73.724 89.4985 73.9067 89.5587 74.1013 89.5944C74.3295 89.6371 74.5388 89.6588 74.7313 89.6588C75.6609 89.6588 76.2034 89.1716 76.5639 88.7558L77.0315 88.2133L76.6493 87.6197C76.615 87.5609 75.7673 86.2302 75.1184 85.3188C74.991 85.1403 74.8692 84.9604 74.746 84.7693C74.0054 83.6668 73.0786 82.2878 71.2236 82.2878L71.0556 82.2906C70.7511 82.3102 70.4886 82.369 70.2751 82.4502C69.6924 82.1807 69.0884 82.0379 68.4643 82.0379C67.6967 82.0379 67.0496 82.2479 66.6191 82.3949C66.5811 82.4054 66.5443 82.4173 66.509 82.4278C66.4298 82.4523 66.3583 82.4747 66.2978 82.4845L62.8284 82.145C62.7855 82.138 62.642 82.0547 62.4698 81.851V81.8335L63.2202 81.5339C63.0092 79.0447 60.6089 77.5138 59.2688 76.9958C59.21 76.7459 59.0895 76.4974 58.8799 76.2944L58.1339 75.5909L57.4782 76.3714L57.1554 76.7718L52.2943 74.7838L55.4581 78.7353L54.2112 80.6155C53.7535 81.0999 54.2572 81.5822 54.2572 81.5822L55.547 82.4677L56.8828 81.9707C56.9155 81.9707 56.9448 81.9756 56.9745 81.9805C56.9877 81.9826 57.001 81.9847 57.0148 81.9861C56.9778 82.0988 56.9354 82.397 56.8957 82.677C56.8646 82.8961 56.835 83.104 56.811 83.2013L54.491 82.7477L52.0547 84.1169C50.8022 85.0332 50.6314 86.5473 51.0963 87.584L51.3661 88.172L51.7491 89.0029L52.6042 88.6522C52.6157 88.6508 52.6272 88.6445 52.6329 88.6389C52.3274 89.6126 52.4522 90.5394 52.9974 91.1463L53.5168 91.7931L54.2055 92.6583L54.9616 91.8519C55.1826 91.6321 55.9056 90.8264 56.128 90.1397L56.2902 89.6126L55.9229 89.2073L55.8598 89.1359L56.2773 88.4534L59.3046 89.1632L59.9848 89.32L60.3463 88.725L60.5443 88.4009C60.5816 88.3309 60.5902 88.3204 60.7308 88.3204C60.837 88.3204 60.9446 88.3309 61.0608 88.3575C62.2043 88.5717 63.2575 88.6788 64.1915 88.6788C65.0997 88.6788 65.6421 88.6445 66.2863 88.4317C66.2863 88.4317 67.9119 90.2699 67.9678 90.3371L66.9736 93.3968L66.9276 93.5795C65.0437 93.7321 64.1255 94.1437 63.0165 95.2462C61.4066 93.6565 60.2631 93.4885 55.9343 93.4885C50.752 93.4885 47.241 90.4638 47.241 85.6345V73.8255Z" fill="#FFDD2D"/>
<path fill-rule="evenodd" clip-rule="evenodd" d="M56.2514 24.4207L55.425 24.3335L54.6386 24.2393C55.0003 25.0503 55.2656 25.82 55.4565 26.4568C57.5498 25.3017 60.2573 24.6434 63.0092 24.6434C65.7754 24.6434 68.4842 25.3017 70.5705 26.4568C70.7595 25.82 71.0269 25.0503 71.3881 24.2393L70.5992 24.3335L69.7713 24.4207L69.4226 23.671L68.368 21.4548L66.4454 22.4501L65.6965 22.8299L65.0982 22.2416L63.0092 20.1854L60.9244 22.2416L60.329 22.8299L59.58 22.4501L57.6489 21.4548L56.6072 23.671L56.2514 24.4207ZM71.3041 28.3176C69.6696 27.0182 66.7083 25.7973 63.0094 25.7973C59.3163 25.7973 56.3664 27.0182 54.7207 28.3176C54.7207 28.3176 54.2372 25.4075 52.5785 22.8415L55.5572 23.1785L57.1139 19.8828L60.114 21.4193L63.0094 18.5635L65.9148 21.4193L68.9077 19.8828L70.4676 23.1785L73.4489 22.8415C71.7885 25.4075 71.3041 28.3176 71.3041 28.3176ZM57.3415 78.9488C57.1622 78.932 57.0131 79.072 56.9988 79.2456C56.9859 79.4269 57.1206 79.5816 57.3028 79.5858C57.4791 79.5998 57.6311 79.4661 57.6484 79.2876C57.6555 79.1161 57.525 78.9558 57.3415 78.9488ZM71.9642 103.71L70.5236 99.7647C72.2365 99.2467 75.1849 98.1302 76.5044 97.3861L75.6252 100.257L78.6107 101.244C76.8047 102.146 74.6151 102.987 71.9642 103.71ZM63.0169 107.256C59.5448 107.256 55.582 106.462 54.414 106.048L56.1874 101.271C57.658 101.699 60.7213 102.152 62.9423 102.138H62.9481H63.0169H63.0772H63.0844C65.304 102.152 68.3629 101.699 69.8422 101.271L71.6128 106.048C70.4445 106.462 66.4819 107.256 63.0169 107.256ZM47.415 101.244L50.4047 100.257L49.5196 97.3861C50.838 98.1295 53.7904 99.246 55.5005 99.7647L54.0587 103.709C51.4175 102.987 49.2183 102.146 47.415 101.244ZM78.7451 100.367L76.9272 99.6751L77.4291 97.8047L77.9814 95.7684C77.9814 95.7684 74.7621 97.5072 70.224 98.8127C68.9369 99.1795 67.9627 99.3468 67.9627 99.3468V100.734C67.9627 100.734 65.5351 101.154 63.0844 101.154H63.0543H63.017H62.9697H62.9424C60.4875 101.154 58.0642 100.734 58.0642 100.734V99.3468C58.0642 99.3468 57.0885 99.1795 55.803 98.8127C51.2648 97.5072 48.0494 95.7684 48.0494 95.7684L48.5932 97.8047L49.104 99.6751L47.2819 100.367L45.2603 101.12C45.482 101.227 45.712 101.338 45.9492 101.453C48.1887 102.537 51.0698 103.931 53.7268 104.654L53.0338 106.539C53.0338 106.539 56.7614 108.23 62.9697 108.245V108.248H62.9883H63.017H63.04H63.0543V108.245C69.2712 108.23 72.9946 106.539 72.9946 106.539L72.2988 104.654C74.9777 103.925 77.8883 102.514 80.1304 101.426C80.3474 101.321 80.5588 101.219 80.7625 101.12L78.7451 100.367ZM109.892 74.746C109.892 74.746 108.606 76.9762 105.65 76.9762H105.614C102.066 76.9552 100.637 74.802 100.637 74.802C100.637 74.802 100.841 77.6034 99.5638 81.3827C98.0259 85.9425 99.5778 89.1968 99.5778 89.1968C99.5778 89.1968 98.7476 89.4194 97.7949 89.4194C97.4302 89.4194 97.0501 89.3837 96.6896 89.292C93.7272 88.5899 92.9894 85.9054 92.9894 85.9054C92.9894 85.9054 93.261 94.9725 82.6392 94.9725H82.5559C82.5559 94.9725 83.4925 93.7048 83.7683 90.0606C84.273 83.3336 88.8503 82.4082 88.8503 82.4082C88.8503 82.4082 86.4066 82.1023 85.3496 81.1587C83.692 79.6663 83.8096 77.9401 83.8096 77.9401C87.5476 77.889 89.9969 76.622 91.8617 74.4758C93.8833 72.1497 94.2137 69.6439 94.2137 69.6439C94.2137 69.6439 92.2047 71.456 88.319 71.456C87.9781 71.456 87.6134 71.4406 87.2375 71.4035C85.3993 71.2558 84.1281 70.0924 84.1281 70.0924C88.1727 67.5121 91.0112 63.007 88.4947 56.2243C86.4787 50.7897 81.6347 46.7287 76.7564 43.67C75.1338 42.662 74.2301 41.5396 74.2301 40.5757C74.2301 39.1835 75.4488 38.6171 76.6983 38.0363C77.4879 37.6693 78.2901 37.2965 78.8053 36.7061C80.3418 34.9312 79.3779 32.0567 78.0479 30.3247C78.0479 30.3247 78.4952 30.2332 79.2029 30.2332C80.6071 30.2332 83.0368 30.5831 85.0325 32.645C87.6834 35.3738 86.5844 38.3481 86.5844 38.3481L87.2949 38.4853C87.6995 38.571 88.1034 38.5905 88.5192 38.6108L88.5801 38.6138C88.6277 38.6138 88.676 38.6152 88.7236 38.6166C88.7719 38.6181 88.8202 38.6195 88.8671 38.6195C92.7185 38.6195 94.4398 34.6113 94.4398 34.6113C94.4398 34.6113 98.5348 39.6233 92.5057 43.5529C91.4683 44.2255 91.0112 44.8495 91.1316 45.5106L91.2247 45.9475L91.6538 46.0233C95.8335 47.1513 98.0392 49.9458 100.584 53.1704L100.586 53.172L100.6 53.1895L100.608 53.1997L100.611 53.2033L100.619 53.2131L100.626 53.2233L100.632 53.2299C100.732 53.3574 100.834 53.4854 100.935 53.6141C105.037 58.8017 110.837 58.9688 111.553 58.9688H111.632C111.632 58.9688 110.307 63.1283 106.406 63.1283C106.34 63.1283 106.284 63.1283 106.221 63.1241C104.429 63.0598 103.509 62.3787 103.509 62.3787C103.509 62.3787 102.81 71.8186 109.892 74.746ZM106.407 64.4022C111.191 64.4022 112.792 59.5587 112.856 59.3516L113.392 57.6438L111.598 57.6996H111.592C110.96 57.6996 105.68 57.561 101.939 52.8274L101.586 52.3891L101.568 52.3658C99.1298 49.28 96.8121 46.347 92.6758 45.0081C92.7969 44.901 92.9677 44.7683 93.2029 44.6154C95.4037 43.1776 96.6833 41.4269 97.0046 39.3964C97.4757 36.3421 95.5157 33.9046 95.4296 33.8061L94.0982 32.1683L93.2659 34.1117L93.2645 34.114C93.1938 34.2701 91.7938 37.3473 88.8685 37.3473H88.6473C88.5955 37.3444 88.5444 37.3416 88.4933 37.3389C88.3477 37.331 88.2042 37.3233 88.0649 37.3116C88.1678 35.9252 87.9144 33.7761 85.9544 31.7585C83.5996 29.3324 80.7128 28.9669 79.2036 28.9669C78.4924 28.9669 77.9919 29.0446 77.8428 29.0679C77.8225 29.071 77.8092 29.0731 77.8015 29.074L75.7904 29.4709L77.0329 31.0987C78.0038 32.3539 78.8879 34.67 77.8407 35.878C77.525 36.242 76.8936 36.541 76.2699 36.8364L76.1593 36.889C74.8062 37.5087 72.954 38.3754 72.954 40.5759C72.954 41.9981 74.0642 43.4889 76.0774 44.7554C82.033 48.4823 85.7087 52.3734 87.2956 56.6671C89.7519 63.2728 86.5466 67.041 83.4379 69.0258L82.04 69.9183L83.2608 71.0353L83.2622 71.036C83.4337 71.1858 84.924 72.4906 87.1276 72.6782C87.5469 72.7041 87.9459 72.7286 88.3204 72.7286C89.7337 72.7286 90.9398 72.5074 91.9198 72.2085C91.6503 72.6782 91.3171 73.1598 90.9027 73.6407C89.1233 75.6903 86.9358 76.6227 83.7907 76.6738L82.621 76.6927L82.5321 77.8589C82.5209 78.0948 82.432 80.2578 84.4907 82.0988C84.805 82.3844 85.1851 82.6182 85.5855 82.8079C84.1883 84.0588 82.7701 86.2379 82.4964 89.9675C82.264 93.0832 81.5192 94.2347 81.5094 94.2473L80.2165 96.2108L82.5524 96.2423C86.4108 96.2423 89.3634 95.1839 91.4109 93.0832C92.6219 91.8414 93.3135 90.4379 93.7223 89.1968C94.3922 89.7666 95.2588 90.2664 96.3907 90.5317C96.8198 90.6318 97.2874 90.6843 97.7956 90.6843C98.8554 90.6843 99.75 90.4666 99.8893 90.433L99.8991 90.4302L101.389 90.0361L100.731 88.6529L100.728 88.6459C100.648 88.4597 99.4595 85.7031 100.777 81.7971C101.354 80.0821 101.648 78.547 101.791 77.3521C102.731 77.8379 103.988 78.2404 105.613 78.246C109.249 78.246 110.882 75.5818 110.998 75.3928L111.003 75.3858L111.73 74.1265L110.383 73.5735C105.984 71.7563 105.011 66.8754 104.816 64.2351C105.214 64.3109 105.668 64.3808 106.18 64.3951L106.407 64.4022ZM103.944 44.9939C102.961 43.9829 101.922 43.6816 101.031 43.6816C99.6464 43.6816 98.609 44.4099 98.609 44.4099C100.619 45.4747 101.766 46.887 102.729 48.0734C103.55 49.0842 104.237 49.9309 105.212 50.2587C105.572 50.3829 105.935 50.4372 106.298 50.4372C107.862 50.4372 109.372 49.4305 109.894 48.2825C109.894 48.2825 107.027 48.1082 103.944 44.9939ZM101.736 48.8723C100.825 47.7485 99.7843 46.4805 98.0007 45.5352L96.1688 44.5543L97.8705 43.362L97.8922 43.348C98.1141 43.2068 99.365 42.4109 101.031 42.4109C102.45 42.4109 103.769 42.9921 104.858 44.0959C107.506 46.7875 109.887 47.0045 109.973 47.0074L111.822 47.116L111.057 48.8038C110.298 50.4873 108.294 51.7025 106.299 51.7025C105.785 51.7025 105.284 51.6253 104.813 51.464C103.499 51.031 102.654 49.9964 101.769 48.9131L101.736 48.8723ZM98.8386 62.3507V62.415C97.7648 53.7931 91.4753 47.566 84.4732 43.782C83.8278 43.4364 83.2279 43.1452 82.6497 42.8652C84.7791 43.1937 88.2126 43.2322 90.8607 40.9461C90.8607 40.9461 86.8077 43.9133 78.505 41.2174C79.1707 41.6478 80.0198 42.1295 80.9886 42.6795C83.3602 44.0254 86.4514 45.7799 89.3473 48.1886C99.54 57.1031 92.2481 65.7977 92.2481 65.7977C95.9098 61.9923 96.0617 57.9185 94.9844 54.5886C96.9143 57.7857 98.1484 61.6625 97.9545 66.4446C97.6731 73.297 93.891 79.2218 89.908 83.9825C87.9942 86.2939 87.5679 89.1331 87.5679 89.1331C87.5679 89.1331 88.3414 86.6271 90.5555 84.0497C94.8206 79.0776 98.4711 73.9158 98.9471 66.4732C99.3895 67.8239 101.207 71.5764 104.089 72.9904C104.089 72.9904 100.467 70.8183 98.8386 62.3507ZM33.0336 85.9054C33.0336 85.9054 32.7624 94.9725 43.3854 94.9725H43.4615C43.4615 94.9725 42.5318 93.7048 42.2591 90.0606C41.7542 83.3322 37.1743 82.4082 37.1743 82.4082C37.1743 82.4082 39.6192 82.103 40.6795 81.1587C42.3324 79.6663 42.2147 77.9401 42.2147 77.9401C38.4771 77.889 36.0308 76.622 34.1527 74.4758C32.144 72.1504 31.8112 69.644 31.8112 69.644C31.8112 69.644 33.8198 71.456 37.7009 71.456C38.0496 71.456 38.4111 71.4406 38.787 71.4035C40.6293 71.2565 41.9019 70.0924 41.9019 70.0924C37.8515 67.5121 35.015 63.0084 37.5287 56.2244C39.5431 50.7897 44.3855 46.7287 49.2666 43.6701C50.8879 42.662 51.7904 41.5396 51.7904 40.5757C51.7904 39.1837 50.5735 38.6173 49.325 38.0361C48.5359 37.6689 47.7343 37.2958 47.2192 36.7047C45.684 34.9312 46.6453 32.0553 47.9725 30.3247C47.9725 30.3247 47.532 30.2333 46.8217 30.2333C45.4185 30.2333 42.9909 30.5832 40.9937 32.6451C38.3351 35.3738 39.4398 38.3482 39.4398 38.3482L38.7296 38.4853C38.3346 38.569 37.9359 38.5896 37.5334 38.6105L37.4427 38.6153C37.3926 38.6153 37.3455 38.6163 37.2989 38.6174H37.2987C37.2532 38.6185 37.2082 38.6195 37.1614 38.6195C33.299 38.6195 31.5859 34.6128 31.5859 34.6128C31.5859 34.6128 27.4924 39.6233 33.5214 43.553C34.5587 44.2241 35.015 44.8481 34.893 45.5107L34.8012 45.9476L34.3622 46.0233C30.1846 47.154 27.976 49.9511 25.4255 53.1813C25.3122 53.3248 25.1983 53.4691 25.0835 53.6142C20.9858 58.8018 15.1893 58.9689 14.469 58.9689H14.3886C14.3886 58.9689 15.713 63.1284 19.617 63.1284C19.6787 63.1284 19.7375 63.1284 19.8021 63.1241C21.597 63.0599 22.5167 62.3787 22.5167 62.3787C22.5167 62.3787 23.2097 71.8186 16.1333 74.746C16.1333 74.746 17.4218 76.9748 20.376 76.9748H20.4104C23.9615 76.9552 25.3891 74.802 25.3891 74.802C25.3891 74.802 25.1825 77.6034 26.4551 81.3827C27.9946 85.9425 26.4508 89.1968 26.4508 89.1968C26.4508 89.1968 27.2744 89.4194 28.23 89.4194C28.5987 89.4194 28.9775 89.3837 29.3318 89.2906C32.2932 88.5899 33.0336 85.9054 33.0336 85.9054ZM44.5122 94.2396C44.5144 94.2431 44.5156 94.2452 44.5157 94.2459L45.8085 96.2108L43.4727 96.2423C39.6145 96.2423 36.6647 95.1825 34.6115 93.0839C33.4048 91.8414 32.7104 90.4379 32.3044 89.1968C31.6387 89.7666 30.7635 90.2664 29.6314 90.5317C29.2067 90.6318 28.7375 90.6843 28.2311 90.6843C27.1492 90.6843 26.2324 90.4568 26.1288 90.4309L26.1277 90.4302L24.6341 90.0361L25.2955 88.6529L25.3 88.6424C25.3931 88.4233 26.5599 85.6772 25.2482 81.7971C24.6714 80.0807 24.3773 78.547 24.2338 77.3521C23.294 77.8379 22.0386 78.2404 20.423 78.2446C16.7545 78.2446 15.1185 75.544 15.0245 75.3893L15.0226 75.3858L14.2965 74.1251L15.6395 73.5735C20.0385 71.7563 21.0141 66.8754 21.2136 64.2352C20.809 64.3109 20.3542 64.3809 19.8491 64.3951L19.6181 64.4023C14.8317 64.4023 13.2348 59.5587 13.1717 59.3517L12.6236 57.6438L14.4257 57.6996C15.0584 57.6996 20.347 57.561 24.0846 52.8275L24.4375 52.3891L24.4626 52.3573C26.8983 49.2746 29.2123 46.3458 33.3503 45.0082C33.2298 44.9011 33.0649 44.7683 32.8252 44.6155C30.6242 43.1776 29.343 41.4269 29.0245 39.3965C28.5571 36.3998 30.4376 33.997 30.5807 33.8142L30.587 33.8061L31.9328 32.1683L32.7621 34.1117C32.8152 34.2345 34.2098 37.3473 37.1625 37.3473H37.3792C37.4288 37.3445 37.4779 37.3419 37.5264 37.3392H37.5265H37.5266H37.5267C37.6736 37.3312 37.8166 37.3235 37.9588 37.3116C37.8584 35.9238 38.1152 33.7776 40.0765 31.7571C42.431 29.3324 45.3121 28.9669 46.8229 28.9669C47.5395 28.9669 48.0366 29.0453 48.1819 29.0682C48.2007 29.0711 48.2136 29.0731 48.2203 29.074L50.242 29.4709L48.9937 31.0988C48.0194 32.3525 47.1356 34.67 48.1845 35.878C48.4967 36.2381 49.118 36.5334 49.7351 36.8268L49.866 36.889C51.2205 37.5087 53.067 38.3755 53.067 40.5759C53.067 41.9981 51.9651 43.4889 49.9521 44.7554C43.9877 48.4823 40.3176 52.3734 38.7307 56.6672C36.2787 63.2728 39.4711 67.0396 42.5917 69.0258L43.9877 69.9183L42.7639 71.0353C42.5989 71.1809 41.1039 72.4899 38.8943 72.6782C38.4782 72.7041 38.0822 72.7286 37.702 72.7286C36.2844 72.7286 35.085 72.5074 34.1065 72.2085C34.3791 72.6782 34.712 73.1584 35.1237 73.6407C36.9014 75.6889 39.0951 76.6227 42.2302 76.6738L43.4081 76.6927L43.487 77.8589C43.5014 78.0948 43.5903 80.2578 41.5328 82.0988C41.2172 82.3844 40.8428 82.6182 40.4367 82.8079C41.837 84.0588 43.2546 86.2379 43.5329 89.9675C43.7622 92.967 44.4567 94.1451 44.5122 94.2396ZM22.0792 44.9923C23.0649 43.9828 24.1023 43.68 24.9976 43.68C26.375 43.68 27.418 44.4083 27.418 44.4083C25.4133 45.4725 24.2659 46.8819 23.3014 48.0669C22.4759 49.081 21.7843 49.9306 20.8037 50.2585C20.4536 50.3827 20.0892 50.437 19.7261 50.437C18.1637 50.437 16.65 49.4303 16.1335 48.2823C16.1335 48.2823 19.0002 48.1081 22.0792 44.9923ZM19.7256 51.7023C20.2392 51.7023 20.7385 51.6266 21.212 51.4652C22.5316 51.0303 23.3769 49.9934 24.2614 48.9084L24.291 48.8721L24.3167 48.8406C25.2271 47.7261 26.2518 46.4716 28.0214 45.5351L29.8579 44.5541L28.152 43.3617L28.129 43.3473C27.905 43.2045 26.6596 42.4108 24.9969 42.4108C23.575 42.4108 22.255 42.9905 21.166 44.0958C18.5175 46.7888 16.1429 47.0059 16.0568 47.0073L14.2088 47.1158L14.9678 48.8036C15.7297 50.4871 17.7341 51.7023 19.7256 51.7023ZM31.0406 54.5888C29.1094 57.7859 27.8755 61.6614 28.0749 66.4449C28.3518 73.2977 32.1339 79.2232 36.1082 83.9825C38.0308 86.2918 38.4627 89.1331 38.4627 89.1331C38.4627 89.1331 37.6821 86.6271 35.4697 84.0483C31.2041 79.0776 27.5555 73.913 27.0734 66.4734C26.6315 67.8243 24.8165 71.5771 21.9384 72.9904C21.9384 72.9904 25.5583 70.819 27.1839 62.3496V62.4167C28.2614 53.7935 34.55 47.5663 41.5532 43.7823C42.1289 43.4728 42.6747 43.2056 43.1947 42.9512L43.3754 42.8627C41.2476 43.194 37.8141 43.2326 35.1642 40.9465C35.1642 40.9465 39.2188 43.9137 47.519 41.2178C46.8536 41.6475 46.0065 42.1286 45.0398 42.6776L45.0397 42.6776C42.669 44.0239 39.5786 45.7789 36.6821 48.1889C26.4851 57.1034 33.7796 65.7995 33.7796 65.7995C30.1094 61.9926 29.9631 57.9173 31.0406 54.5888ZM60.6136 49.0002V50.7093C61.2062 49.9926 62.3496 50.1396 62.3496 50.1396V52.6025C62.3496 52.6025 62.3108 53.8161 61.8776 54.3401H63.1199H64.3551C63.9291 53.8161 63.8846 52.6025 63.8846 52.6025V50.1396C63.8846 50.1396 65.0323 49.9926 65.6191 50.7093V49.0002H63.1199H60.6136ZM60.7951 39.5939C60.7004 39.5631 60.2601 39.4203 59.5487 38.8595C58.2374 37.8472 58.2116 36.9148 58.2116 36.9148L61.1239 38.1327V39.7418L60.814 39.6005C60.8124 39.5995 60.806 39.5974 60.7951 39.5939H60.7951ZM66.4731 38.8595C67.7886 37.8472 67.8144 36.9148 67.8144 36.9148L64.9007 38.1327V39.7418L65.2091 39.6005C65.2108 39.5995 65.2171 39.5974 65.228 39.5939C65.3226 39.5631 65.7628 39.4203 66.4731 38.8595ZM55.9949 31.8145L63.0095 34.5718L70.0259 31.8145C69.433 30.408 66.6826 29.2143 63.0095 29.2099C59.3422 29.2143 56.5933 30.408 55.9949 31.8145ZM63.5247 45.6839L68.2407 43.2136L69.9223 33.5108L63.5247 35.6727V45.6839ZM73.3173 47.1147L71.1606 45.8695L68.9452 44.6058L63.0268 47.8129L63.0095 47.8L62.9981 47.8129L57.0796 44.6058L54.8643 45.8695L52.7036 47.1147H52.6806L52.134 47.4302C53.352 47.7643 54.2775 48.3641 55.0638 49.1608C55.0763 49.1727 55.0877 49.1857 55.0992 49.1989C55.1167 49.2189 55.1345 49.2393 55.157 49.2565C55.3306 49.4422 55.5028 49.6449 55.6678 49.8477C55.675 49.8565 55.6822 49.8651 55.6894 49.8737C55.7205 49.9112 55.7511 49.948 55.7826 49.9933C55.9346 50.1933 56.0882 50.4089 56.2374 50.6273C56.2561 50.6515 56.2743 50.679 56.293 50.7073C56.3074 50.729 56.3222 50.7512 56.3378 50.773C56.5158 51.0386 56.6836 51.317 56.85 51.6026C58.3824 54.2343 60.833 55.8078 63.0095 55.8107C65.189 55.8078 67.6381 54.2343 69.1733 51.6026C69.3426 51.3099 69.5148 51.0243 69.6927 50.7601C69.7185 50.723 69.7472 50.683 69.7716 50.6445C69.9223 50.4174 70.0812 50.1961 70.2464 49.9833C70.2646 49.9597 70.2828 49.9368 70.3003 49.9148C70.3164 49.8941 70.3325 49.8741 70.3472 49.8548C70.518 49.6449 70.6944 49.4407 70.8736 49.2494C70.8876 49.2364 70.9009 49.2231 70.9142 49.2101C70.9289 49.1946 70.9443 49.1797 70.9597 49.1666C71.7416 48.3712 72.6698 47.7643 73.8878 47.4302L73.3453 47.1147H73.3173ZM78.7822 58.7808C78.7822 57.4157 79.1805 56.0434 79.6628 54.7755H68.6022C66.9092 56.4475 65.2836 57.0687 63.8302 57.2115C63.5676 57.2386 63.3007 57.2558 63.031 57.2558H63.0095H62.9937C62.724 57.2558 62.4542 57.2386 62.1931 57.2115C61.9392 57.1901 61.6722 57.1501 61.4054 57.0887C61.3107 57.4657 61.1888 58.2496 61.5346 58.9979C61.8445 59.6732 62.4672 60.1773 63.3782 60.5114L63.6852 60.63L63.6896 60.9583C63.6896 61.0569 63.7613 63.1874 66.0928 63.7785L66.107 63.764C66.4816 63.3799 66.822 63.0309 67.0756 62.7404C66.5993 61.6224 66.849 60.4828 67.542 59.9245C67.5118 60.0431 67.2076 62.8375 69.4574 63.8756L69.829 64.0527L69.7185 64.4468C69.6826 64.5639 68.9322 67.2684 71.6569 68.275L72.1392 68.455L71.9264 68.9219C71.8781 69.0276 70.8106 71.4805 73.3271 72.8728H78.7864V68.5621C76.8467 68.325 76.0228 66.7729 75.8107 65.6719C74.9098 65.5191 74.2105 65.1294 73.7303 64.4982C72.7076 63.1554 73.3859 61.9153 73.5504 61.6142C73.57 61.5785 73.5826 61.556 73.584 61.5481C73.5826 61.561 73.584 63.0246 74.4919 63.927C74.9399 64.3611 75.4747 64.6995 76.2783 64.7752L76.6759 64.8123L76.7116 65.215C76.7186 65.3021 76.9356 67.2826 78.7864 67.5925L78.7822 58.7808ZM73.4531 90.0123L72.8434 93.1721C76.4834 92.281 78.792 89.5482 78.792 85.6345L78.7864 73.8255H47.2399V85.6345C47.2399 90.4652 50.7522 93.4878 55.9346 93.4878C60.2648 93.4878 61.4054 93.6565 63.0167 95.2455C64.1258 94.1437 65.0425 93.7321 66.9278 93.5795L66.9724 93.3954L67.968 90.3392C67.9121 90.2678 66.2865 88.4317 66.2865 88.4317C65.6409 88.6445 65.0985 88.6802 64.1918 88.6802C63.2577 88.6802 62.2031 88.5717 61.0611 88.3575C60.9463 88.3316 60.8387 88.3218 60.7311 88.3218C60.5905 88.3218 60.5833 88.3316 60.5446 88.4002L60.348 88.7243L59.9864 89.32L59.3035 89.1625L56.2776 88.4534L55.8629 89.1359L55.9245 89.2087L56.2904 89.6126L56.1269 90.1383C55.9059 90.8264 55.1828 91.6314 54.9618 91.8512L54.2057 92.6611L53.517 91.7931L52.999 91.1463C52.4553 90.5394 52.329 89.6126 52.6361 88.6375C52.6289 88.6445 52.616 88.6487 52.6045 88.6515L51.7508 89.0029L51.3678 88.1734L51.0966 87.5847C50.6317 86.5466 50.8024 85.0332 52.055 84.1162L54.4912 82.7484L56.8112 83.2027C56.8363 83.1033 56.8665 82.8898 56.8981 82.6658C56.9372 82.39 56.9785 82.0981 57.015 81.9861C57.0002 81.984 56.9857 81.9819 56.9712 81.9791C56.9421 81.9742 56.9132 81.9686 56.8816 81.9686L55.5473 82.4656L54.2574 81.5836C54.2574 81.5836 53.7552 81.0978 54.21 80.6155L55.4568 78.7346L52.296 74.7838L57.1556 76.7711L57.4799 76.3714L58.1356 75.5902L58.8802 76.2944C59.0911 76.4974 59.2117 76.7452 59.2705 76.9951C60.6077 77.5124 63.0095 79.0447 63.2218 81.5346L62.47 81.8349V81.8503C62.6436 82.0547 62.7842 82.1373 62.8287 82.1457L66.2995 82.4859C66.357 82.4747 66.4239 82.4537 66.4984 82.4313C66.5373 82.4194 66.5781 82.4068 66.6208 82.3942C67.0498 82.25 67.6969 82.0372 68.466 82.0372C69.0901 82.0372 69.6926 82.1786 70.2751 82.4502C70.4893 82.3704 70.7518 82.3102 71.057 82.2913L71.2236 82.2871C73.0793 82.2871 74.0033 83.6633 74.7432 84.7651L74.746 84.7693C74.8692 84.9618 74.991 85.1389 75.1191 85.3188C75.7687 86.2295 76.6143 87.5595 76.65 87.619L77.0315 88.2133L76.5639 88.7558C76.2034 89.1716 75.6602 89.6581 74.7299 89.6581C74.5395 89.6581 74.3316 89.6371 74.102 89.5937C73.9053 89.5566 73.7247 89.4985 73.5525 89.4271C73.5252 89.6084 73.486 89.8254 73.4531 90.0123ZM53.5772 86.9036L53.4137 86.4948C53.296 86.2295 53.3118 85.9411 53.537 85.7843L54.864 84.8729L57.0805 85.2957C57.0805 85.2957 56.6803 84.7959 56.719 84.1281L54.603 83.6822L52.6074 84.8904C51.7509 85.5288 51.6892 86.569 51.9733 87.1878L52.2372 87.766C52.2372 87.766 53.4696 87.262 53.5772 86.9036ZM71.8291 93.3667L72.5109 89.8338C72.5865 89.4481 72.6586 88.9315 72.6586 88.9315C72.6201 88.893 72.5746 88.8489 72.5235 88.7992C72.2176 88.5017 71.7073 88.0068 71.4 87.4251C71.1466 86.94 71.099 86.5767 71.0451 86.1665C70.9975 85.799 70.9443 85.3944 70.7343 84.8302C70.7343 84.8302 70.8708 84.5537 71.1865 84.5537C71.2348 84.5537 71.2894 84.5593 71.3412 84.5733C71.7549 84.6902 72.0377 85.3888 72.3569 86.177C72.7888 87.2452 73.2886 88.4793 74.2728 88.6599C74.4415 88.6928 74.5955 88.7047 74.7299 88.7047C75.2269 88.7047 75.5209 88.4961 75.838 88.1216C75.838 88.1216 74.977 86.7769 74.3358 85.8683C74.2 85.6793 74.0691 85.4847 73.9382 85.2901C73.2452 84.259 72.5634 83.244 71.2236 83.244C71.1865 83.244 71.1403 83.244 71.1018 83.2496C70.5768 83.2741 70.2534 83.5296 70.2534 83.5296C69.6096 83.1271 69.0069 82.9899 68.466 82.9899C67.8521 82.9899 67.322 83.1621 66.9145 83.2951C66.66 83.3777 66.4533 83.4456 66.3038 83.4456H66.2895L62.7369 83.0942C62.1802 83.0424 61.7398 82.4859 61.5819 82.2661C61.5432 82.2073 61.5217 82.1716 61.5217 82.1716C61.5217 82.0771 61.5217 81.9777 61.5159 81.8902C61.3955 78.9971 59.1443 77.7595 58.3422 77.7392C58.3422 77.7392 58.4369 77.1911 58.2203 76.9797L57.4354 77.9261L54.8643 76.6416L56.7008 78.7759L55.147 80.5126C54.9504 80.7107 54.9748 80.9767 55.0566 81.0894L55.7281 81.6802L56.5803 81.1678C56.622 81.1349 56.7009 81.1265 56.7927 81.1265C56.9016 81.1265 57.0359 81.1391 57.1804 81.1531C57.348 81.1692 57.5291 81.1867 57.6995 81.1867C58.0467 81.1867 58.3465 81.1132 58.3824 80.7891C58.3503 81.1132 58.2369 81.5087 58.112 81.9441C57.8235 82.95 57.4746 84.1659 57.9333 85.1886L58.4212 86.2967L55.2775 85.8445L53.8069 88.3176C53.3521 89.1401 53.2818 90.0298 53.7165 90.5149L54.2675 91.2002C54.2675 91.2002 55.0394 90.3868 55.2115 89.8499L54.9619 89.5769C54.751 89.3452 54.7625 89.1401 54.8916 88.893L55.8128 87.3719L59.523 88.2406L59.7211 87.9088C59.9722 87.4923 60.3337 87.3677 60.7312 87.3677C60.8962 87.3677 61.064 87.3866 61.2376 87.4153C61.9263 87.5504 63.0583 87.7303 64.1918 87.7303C65.4343 87.7303 66.6711 87.5091 67.3282 86.7769C68.0162 87.7919 69.0663 88.3701 69.8982 88.8279C70.6902 89.264 71.2838 89.5909 71.1795 90.0823L70.4634 93.4766C70.9366 93.4577 71.3944 93.4262 71.8291 93.3667ZM67.9237 93.5214C68.3182 93.506 68.7615 93.5004 69.2393 93.5004C69.2393 93.5004 70.3815 90.1782 70.4459 90.0725C69.8059 89.7925 68.4789 89.0911 67.9653 88.7698C68.0759 88.935 68.2385 89.1079 68.4015 89.2808C68.7373 89.6371 69.0748 89.9948 68.9638 90.2951L67.9237 93.5214ZM53.9088 58.8149L53.761 64.4232L54.4023 64.5217L55.9689 59.1376L55.1741 57.4828L53.9088 58.8149ZM55.5096 67.0454C55.2499 66.8813 54.8769 66.5943 54.6689 66.1617C54.4336 65.6633 54.0936 65.432 53.5987 65.432C52.9531 65.432 52.2645 65.8175 51.9675 65.9989C51.7322 67.3824 52.7566 68.6359 53.4437 68.8887C54.0663 69.1143 54.8224 69.1614 55.2097 69.1614C55.2149 69.1445 55.2211 69.126 55.2278 69.106C55.2399 69.0701 55.2537 69.0293 55.2657 68.9843C55.2987 68.8716 55.3302 68.7559 55.3561 68.6331C55.4637 68.0763 55.5024 67.4495 55.5096 67.0454ZM64.9321 70.8351C65.8417 70.203 68.3483 68.3821 69.3196 67.6696C68.6123 66.6415 68.5448 65.4206 68.7041 64.5638C68.2407 64.2683 67.8877 63.9327 67.6051 63.5786C66.5311 64.7442 64.525 66.6871 64.067 67.1305C64.0184 67.1776 63.9873 67.2078 63.9765 67.2184L63.8345 67.3612L56.4813 67.2441C56.4755 67.9709 56.3578 68.5863 56.2431 69.039C56.232 69.0841 56.2198 69.1301 56.2076 69.1767C56.1993 69.2083 56.191 69.24 56.1828 69.2718L64.9321 70.8351ZM60.4815 56.8174C59.5044 56.4633 58.4742 55.815 57.4211 54.7755H46.3633C46.8382 56.0434 47.2399 57.4157 47.2399 58.7808V72.8728H71.7773C70.5509 71.6135 70.5705 70.0189 70.8792 68.9848C70.5236 68.8134 70.2296 68.6092 69.9668 68.3836C69.0069 69.0875 66.0829 71.2068 65.3153 71.7409L65.1517 71.848L55.5229 70.1183H55.3263C55.0953 70.1183 54.7581 70.1085 54.388 70.0644C54.2847 70.497 53.9088 70.791 53.4798 70.791C53.431 70.791 53.3765 70.7882 53.3263 70.7784C53.0752 70.7357 52.8571 70.6083 52.7108 70.3983C52.5601 70.1925 52.5013 69.9471 52.5429 69.6958L52.5773 69.4874C51.5859 68.792 50.6691 67.2369 51.0751 65.5963L51.1139 65.422L51.2559 65.3235C51.2745 65.3078 51.441 65.195 51.6892 65.0551L50.9905 64.948C50.7279 64.9023 50.5514 64.6581 50.593 64.4025C50.6375 64.1426 50.8843 63.9541 51.1426 64.0041L52.8098 64.2683L52.9618 58.4267L55.4425 55.815L56.9907 59.0578L55.3565 64.6767L56.8285 64.908C57.0882 64.9494 57.2647 65.1908 57.226 65.4563C57.1873 65.692 56.9864 65.8504 56.7539 65.8504C56.7282 65.8504 56.7037 65.8504 56.6779 65.8476L55.4813 65.6563C55.4887 65.673 55.4977 65.6862 55.5066 65.6994C55.5167 65.7144 55.5267 65.7293 55.5344 65.7491C55.6607 66.0132 55.9447 66.1988 56.1112 66.2816L63.45 66.3973L63.4799 66.3682C63.8087 66.0486 64.5576 65.3205 65.3253 64.5496C63.5175 63.8685 62.8618 62.3206 62.7513 61.2911C61.7427 60.8627 61.0453 60.2215 60.6579 59.3891C60.1873 58.3567 60.3538 57.3214 60.4815 56.8174ZM62.4987 35.6727L56.0953 33.5108L57.7826 43.2136L62.4987 45.6839V35.6727ZM63.0253 27.6621C67.585 27.6621 71.7171 29.8597 71.7171 32.3028L71.6282 32.904L69.806 43.3078L71.6282 44.3645L76.3686 47.1147H76.3518C76.3518 47.1147 77.4172 47.6587 77.9037 47.9943C79.716 49.238 80.0947 51.0571 79.0475 51.8082C78.7864 50.326 77.6111 48.7782 75.4089 48.7782C73.8206 48.7782 72.6124 49.5892 71.6282 50.8158C71.3832 51.1243 71.1445 51.4541 70.9191 51.8082C70.644 52.2566 70.371 52.6493 70.0987 53.0262H82.2927C81.3932 54.8197 80.5441 56.7175 80.5441 58.7808V85.6345C80.5441 92.1354 75.5279 95.2357 70.0917 95.2357C69.775 95.2357 69.4791 95.2343 69.2015 95.2336C65.7938 95.221 65.1487 95.2189 63.0167 97.3434C60.8754 95.2189 60.2295 95.221 56.8241 95.2336C56.5467 95.2343 56.251 95.2357 55.9346 95.2357C50.5026 95.2357 45.4794 92.1354 45.4794 85.6345V58.7808C45.4794 56.7175 44.6286 54.8197 43.7319 53.0262H55.9246C55.6506 52.6493 55.3751 52.2566 55.1011 51.8082C54.8801 51.4541 54.6405 51.1243 54.388 50.8158C53.4137 49.5935 52.2028 48.7782 50.616 48.7782C48.4107 48.7782 47.2342 50.326 46.9759 51.8082C45.9299 51.0571 46.3131 49.238 48.1151 47.9943C48.6087 47.6587 49.6733 47.1147 49.6733 47.1147H49.6561L54.388 44.3645L56.2188 43.3078L54.3966 32.904L54.3061 32.3028C54.3061 29.8597 58.4383 27.6621 62.9981 27.6621H63.0095H63.021H63.0253Z" fill="#231F20"/>
</svg>
